<svg width="48" height="48" viewBox="0 0 48 48" fill="none" xmlns="http://www.w3.org/2000/svg" xmlns:xlink="http://www.w3.org/1999/xlink">
<path d="M4,13.899C4,12.134 4,11.252 4.139,10.517C4.749,7.281 7.281,4.749 10.517,4.139C11.252,4 12.134,4 13.9,4C14.673,4 15.06,4 15.431,4.035C17.033,4.185 18.553,4.814 19.792,5.841C20.079,6.079 20.353,6.353 20.899,6.899L22,8C23.632,9.632 24.447,10.447 25.424,10.991C25.961,11.289 26.53,11.525 27.121,11.694C28.196,12 29.349,12 31.657,12L32.404,12C37.669,12 40.301,12 42.012,13.539C42.17,13.68 42.32,13.83 42.461,13.988C44,15.699 44,18.331 44,23.596L44,28C44,35.542 44,39.314 41.657,41.657C39.314,44 35.542,44 28,44L20,44C12.458,44 8.686,44 6.343,41.657C4,39.314 4,35.542 4,28L4,13.899Z" fill="#BA68C8"/>
<path d="M24.5,20C24.5,19.172 25.172,18.5 26,18.5L36,18.5C36.828,18.5 37.5,19.172 37.5,20C37.5,20.828 36.828,21.5 36,21.5L26,21.5C25.172,21.5 24.5,20.828 24.5,20Z" clip-rule="evenodd" fill-rule="evenodd" fill="#FFFFFF"/>
<path d="M33.971,6.042C33.664,6 33.298,6 32.567,6L24,6L24.74,6.766C26.072,8.146 26.584,8.661 27.175,9.002C27.519,9.2 27.883,9.356 28.261,9.468C28.912,9.66 29.626,9.671 31.509,9.671L32.178,9.671C34.183,9.671 35.799,9.671 37.078,9.837C37.397,9.879 37.704,9.932 38,10C37.629,7.926 36.009,6.32 33.971,6.042Z" fill="#BA68C8"/>
</svg>
