<svg width="48" height="48" viewBox="0 0 48 48" fill="none" xmlns="http://www.w3.org/2000/svg" xmlns:xlink="http://www.w3.org/1999/xlink">
<path d="M15.5,5C15.5,4.172 14.829,3.5 14,3.5C13.172,3.5 12.5,4.172 12.5,5L12.5,8.159C9.622,8.389 7.732,8.955 6.343,10.343C4.955,11.732 4.389,13.621 4.159,16.5L43.841,16.5C43.611,13.621 43.045,11.732 41.657,10.343C40.268,8.955 38.379,8.389 35.5,8.159L35.5,5C35.5,4.172 34.828,3.5 34,3.5C33.172,3.5 32.5,4.172 32.5,5L32.5,8.026C31.169,8 29.678,8 28,8L20,8C18.322,8 16.831,8 15.5,8.026L15.5,5Z" fill="#BA68C8"/>
<path d="M44,24L44,28C44,35.542 44,39.314 41.657,41.657C39.314,44 35.542,44 28,44L20,44C12.458,44 8.686,44 6.343,41.657C4,39.314 4,35.542 4,28L4,24C4,22.322 4,20.831 4.026,19.5L43.974,19.5C44,20.831 44,22.322 44,24ZM32,26.5C32.828,26.5 33.5,27.172 33.5,28L33.5,30.5L36,30.5C36.828,30.5 37.5,31.172 37.5,32C37.5,32.828 36.828,33.5 36,33.5L33.5,33.5L33.5,36C33.5,36.828 32.828,37.5 32,37.5C31.172,37.5 30.5,36.828 30.5,36L30.5,33.5L28,33.5C27.172,33.5 26.5,32.828 26.5,32C26.5,31.172 27.172,30.5 28,30.5L30.5,30.5L30.5,28C30.5,27.172 31.172,26.5 32,26.5Z" clip-rule="evenodd" fill-rule="evenodd" fill="#BA68C8"/>
</svg>
