<svg width="36" height="26" viewBox="0 0 36 26" fill="none" xmlns="http://www.w3.org/2000/svg" xmlns:xlink="http://www.w3.org/1999/xlink">
<path d="M33.061,0.955L30.965,0.955C29.808,0.955 28.869,1.992 28.869,3.273L28.869,23.364C28.869,24.644 29.808,25.682 30.965,25.682L33.061,25.682C34.219,25.682 35.157,24.644 35.157,23.364L35.157,3.273C35.157,1.992 34.219,0.955 33.061,0.955ZM21.184,6.364L23.28,6.364C24.438,6.364 25.376,7.402 25.376,8.682L25.376,23.364C25.376,24.644 24.438,25.682 23.28,25.682L21.184,25.682C20.026,25.682 19.088,24.644 19.088,23.364L19.088,8.682C19.088,7.402 20.026,6.364 21.184,6.364ZM13.499,11.773L11.403,11.773C10.245,11.773 9.307,12.811 9.307,14.091L9.307,23.364C9.307,24.644 10.245,25.682 11.403,25.682L13.499,25.682C14.656,25.682 15.595,24.644 15.595,23.364L15.595,14.091C15.595,12.811 14.656,11.773 13.499,11.773ZM3.717,16.409L1.621,16.409C0.464,16.409 -0.475,17.447 -0.475,18.727L-0.475,23.364C-0.475,24.644 0.464,25.682 1.621,25.682L3.717,25.682C4.875,25.682 5.813,24.644 5.813,23.364L5.813,18.727C5.813,17.447 4.875,16.409 3.717,16.409Z" clip-rule="evenodd" fill-rule="evenodd" fill="#000000"/>
</svg>
