<svg width="88" height="86" viewBox="0 0 88 86" fill="none" xmlns="http://www.w3.org/2000/svg" xmlns:xlink="http://www.w3.org/1999/xlink">
<path d="M88,43C88,66.748 68.301,86 44,86C19.699,86 0,66.748 0,43C0,19.252 19.699,0 44,0C68.301,0 88,19.252 88,43Z" fill="#7D8BB7"/>
<path d="M51.304,48.852L51.304,47.852L51.304,48.852ZM64.953,63.142L65.953,63.142L64.953,63.142ZM25.143,63.142L24.143,63.142L25.143,63.142ZM38.223,48.852L38.223,47.852L38.223,47.852L38.223,48.852ZM27.418,65.524L27.418,64.524L27.418,65.524ZM62.678,65.524L62.678,64.524L62.678,64.524L62.678,65.524ZM55.097,30.056C55.728,36.468 51.459,41.92 45.75,42.405L45.92,44.398C52.896,43.805 57.812,37.219 57.088,29.86L55.097,30.056ZM45.75,42.405C40.028,42.892 34.751,38.232 34.12,31.813L32.13,32.009C32.853,39.361 38.957,44.99 45.92,44.398L45.75,42.405ZM34.12,31.813C33.489,25.401 37.758,19.949 43.467,19.464L43.298,17.471C36.322,18.064 31.406,24.65 32.13,32.009L34.12,31.813ZM43.467,19.464C49.189,18.977 54.466,23.637 55.097,30.056L57.088,29.86C56.364,22.509 50.26,16.879 43.298,17.471L43.467,19.464ZM51.304,49.852C57.372,49.852 60.403,51.575 61.997,53.886C63.652,56.285 63.953,59.566 63.953,63.142L65.953,63.142C65.953,59.573 65.685,55.71 63.643,52.75C61.54,49.701 57.747,47.852 51.304,47.852L51.304,49.852ZM26.143,63.142C26.143,57.58 27.269,54.345 29.184,52.469C31.1,50.593 34.033,49.852 38.223,49.852L38.223,47.852C33.883,47.852 30.276,48.6 27.785,51.04C25.292,53.481 24.143,57.391 24.143,63.142L26.143,63.142ZM27.418,66.524L62.678,66.524L62.678,64.524L27.418,64.524L27.418,66.524ZM63.953,63.142C63.953,63.949 63.339,64.524 62.678,64.524L62.678,66.524C64.529,66.524 65.953,64.966 65.953,63.142L63.953,63.142ZM24.143,63.142C24.143,64.966 25.566,66.524 27.418,66.524L27.418,64.524C26.757,64.524 26.143,63.949 26.143,63.142L24.143,63.142ZM38.223,49.852L51.304,49.852L51.304,47.852L38.223,47.852L38.223,49.852Z" fill="#FFFFFF"/>
</svg>
