<svg width="88" height="86" viewBox="0 0 88 86" fill="none" xmlns="http://www.w3.org/2000/svg" xmlns:xlink="http://www.w3.org/1999/xlink">
<path d="M88,43C88,66.748 68.301,86 44,86C19.699,86 0,66.748 0,43C0,19.252 19.699,0 44,0C68.301,0 88,19.252 88,43Z" fill="#7D8BB7"/>
<path d="M39.195,29.489L39.9,28.78L39.9,28.78L39.195,29.489ZM21.305,29.489L22.011,30.197L22.011,30.197L21.305,29.489ZM42.9,33.178L42.194,33.886L42.9,34.589L43.606,33.886L42.9,33.178ZM46.605,29.489L45.9,28.78L45.9,28.78L46.605,29.489ZM64.495,29.489L65.2,28.78L65.2,28.78L64.495,29.489ZM64.495,47.3L65.2,48.009L65.2,48.009L64.495,47.3ZM42.9,68.8L42.194,69.509L42.9,70.211L43.606,69.509L42.9,68.8ZM21.305,47.3L22.011,46.591L22.011,46.591L21.305,47.3ZM39.9,28.78C34.57,23.473 25.93,23.473 20.6,28.78L22.011,30.197C26.561,25.668 33.939,25.668 38.489,30.197L39.9,28.78ZM43.606,32.469L39.9,28.78L38.489,30.197L42.194,33.886L43.606,32.469ZM45.9,28.78L42.194,32.469L43.606,33.886L47.311,30.197L45.9,28.78ZM65.2,28.78C59.87,23.473 51.23,23.473 45.9,28.78L47.311,30.197C51.861,25.668 59.239,25.668 63.789,30.197L65.2,28.78ZM65.2,48.009C70.533,42.699 70.533,34.089 65.2,28.78L63.789,30.197C68.337,34.725 68.337,42.064 63.789,46.591L65.2,48.009ZM20.6,28.78C15.267,34.089 15.267,42.699 20.6,48.009L22.011,46.591C17.463,42.064 17.463,34.725 22.011,30.197L20.6,28.78ZM43.606,69.509L65.2,48.009L63.789,46.591L42.194,68.091L43.606,69.509ZM20.6,48.009L42.194,69.509L43.606,68.091L22.011,46.591L20.6,48.009Z" fill="#FFFFFF"/>
</svg>
