<svg width="88" height="86" viewBox="0 0 88 86" fill="none" xmlns="http://www.w3.org/2000/svg" xmlns:xlink="http://www.w3.org/1999/xlink">
<path d="M88,43C88,66.748 68.301,86 44,86C19.699,86 0,66.748 0,43C0,19.252 19.699,0 44,0C68.301,0 88,19.252 88,43Z" fill="#7D8BB7"/>
<path d="M27.014,30.854C27.567,30.854 28.014,30.406 28.014,29.853C28.013,29.301 27.565,28.854 27.013,28.854L27.014,30.854ZM20.952,26.127L19.952,26.129L20.952,26.127ZM27,22.524L27,21.524L26.999,21.524L27,22.524ZM54.57,22.524L54.57,21.524L54.57,21.524L54.57,22.524ZM58.431,25.527L57.431,25.527L57.431,25.527L58.431,25.527ZM57.431,29.854C57.431,30.406 57.878,30.854 58.431,30.854C58.983,30.854 59.431,30.406 59.431,29.854L57.431,29.854ZM67.046,41.517C67.598,41.517 68.046,41.069 68.046,40.517C68.046,39.964 67.598,39.517 67.046,39.517L67.046,41.517ZM67.046,55.511C67.598,55.511 68.046,55.063 68.046,54.511C68.046,53.959 67.598,53.511 67.046,53.511L67.046,55.511ZM56.635,46.847C56.083,46.847 55.635,47.295 55.635,47.847C55.635,48.399 56.083,48.847 56.635,48.847L56.635,46.847ZM56.982,48.847C57.534,48.847 57.982,48.399 57.982,47.847C57.982,47.295 57.534,46.847 56.982,46.847L56.982,48.847ZM21.952,26.522C21.952,25.97 21.504,25.522 20.952,25.522C20.4,25.522 19.952,25.97 19.952,26.522L21.952,26.522ZM26.965,28.854C26.412,28.854 25.965,29.302 25.965,29.854C25.965,30.406 26.412,30.854 26.965,30.854L26.965,28.854ZM27.013,28.854C25.719,28.855 24.375,28.606 23.394,28.102C22.432,27.607 21.954,26.958 21.952,26.125L19.952,26.129C19.956,27.961 21.11,29.177 22.48,29.88C23.829,30.574 25.514,30.855 27.014,30.854L27.013,28.854ZM21.952,26.125C21.951,25.351 22.378,24.739 23.297,24.266C24.242,23.779 25.582,23.525 27.001,23.524L26.999,21.524C25.391,21.525 23.705,21.806 22.381,22.488C21.032,23.183 19.949,24.371 19.952,26.129L21.952,26.125ZM27,23.524L54.57,23.524L54.57,21.524L27,21.524L27,23.524ZM54.57,23.524C55.804,23.524 56.501,23.846 56.88,24.192C57.253,24.532 57.431,24.996 57.431,25.527L59.431,25.527C59.431,24.53 59.082,23.493 58.227,22.714C57.377,21.939 56.143,21.524 54.57,21.524L54.57,23.524ZM57.431,25.527L57.431,29.854L59.431,29.854L59.431,25.527L57.431,25.527ZM56.982,41.517L67.046,41.517L67.046,39.517L56.982,39.517L56.982,41.517ZM50.408,47.514C50.408,44.275 53.275,41.517 56.982,41.517L56.982,39.517C52.323,39.517 48.408,43.024 48.408,47.514L50.408,47.514ZM56.982,53.511C53.275,53.511 50.408,50.753 50.408,47.514L48.408,47.514C48.408,52.004 52.323,55.511 56.982,55.511L56.982,53.511ZM67.046,53.511L56.982,53.511L56.982,55.511L67.046,55.511L67.046,53.511ZM56.635,48.847L56.982,48.847L56.982,46.847L56.635,46.847L56.635,48.847ZM68.143,33.155L68.143,60.175L70.143,60.175L70.143,33.155L68.143,33.155ZM65.718,62.476L24.377,62.476L24.377,64.476L65.718,64.476L65.718,62.476ZM21.952,60.175L21.952,26.522L19.952,26.522L19.952,60.175L21.952,60.175ZM24.377,62.476C23.003,62.476 21.952,61.412 21.952,60.175L19.952,60.175C19.952,62.585 21.968,64.476 24.377,64.476L24.377,62.476ZM68.143,60.175C68.143,61.412 67.092,62.476 65.718,62.476L65.718,64.476C68.127,64.476 70.143,62.585 70.143,60.175L68.143,60.175ZM65.718,30.854C67.092,30.854 68.143,31.919 68.143,33.155L70.143,33.155C70.143,30.745 68.127,28.854 65.718,28.854L65.718,30.854ZM26.965,30.854L65.718,30.854L65.718,28.854L26.965,28.854L26.965,30.854Z" fill="#FFFFFF"/>
</svg>
