<svg width="88" height="86" viewBox="0 0 88 86" fill="none" xmlns="http://www.w3.org/2000/svg" xmlns:xlink="http://www.w3.org/1999/xlink">
<path d="M88,43C88,66.748 68.301,86 44,86C19.699,86 0,66.748 0,43C0,19.252 19.699,0 44,0C68.301,0 88,19.252 88,43Z" fill="#7D8BB7"/>
<path d="M55.976,36.743C55.976,37.296 56.423,37.743 56.976,37.743C57.528,37.743 57.976,37.296 57.976,36.743L55.976,36.743ZM56.976,31.565L57.976,31.565L57.976,31.565L56.976,31.565ZM33.271,31.565L32.271,31.565L32.271,31.565L33.271,31.565ZM32.271,36.743C32.271,37.296 32.718,37.743 33.271,37.743C33.823,37.743 34.271,37.296 34.271,36.743L32.271,36.743ZM43.784,58.329C43.784,58.881 44.232,59.329 44.784,59.329C45.337,59.329 45.784,58.881 45.784,58.329L43.784,58.329ZM28.53,37.743L61.566,37.743L61.566,35.743L28.53,35.743L28.53,37.743ZM63.953,39.872L63.953,62.396L65.953,62.396L65.953,39.872L63.953,39.872ZM61.566,64.524L28.53,64.524L28.53,66.524L61.566,66.524L61.566,64.524ZM26.143,62.396L26.143,39.872L24.143,39.872L24.143,62.396L26.143,62.396ZM28.53,64.524C27.135,64.524 26.143,63.498 26.143,62.396L24.143,62.396C24.143,64.749 26.183,66.524 28.53,66.524L28.53,64.524ZM63.953,62.396C63.953,63.498 62.96,64.524 61.566,64.524L61.566,66.524C63.913,66.524 65.953,64.749 65.953,62.396L63.953,62.396ZM61.566,37.743C62.96,37.743 63.953,38.769 63.953,39.872L65.953,39.872C65.953,37.519 63.913,35.743 61.566,35.743L61.566,37.743ZM28.53,35.743C26.183,35.743 24.143,37.519 24.143,39.872L26.143,39.872C26.143,38.769 27.135,37.743 28.53,37.743L28.53,35.743ZM45.123,21.476C51.181,21.476 55.976,26.055 55.976,31.565L57.976,31.565C57.976,24.827 52.157,19.476 45.123,19.476L45.123,21.476ZM34.271,31.565C34.271,26.055 39.066,21.476 45.123,21.476L45.123,19.476C38.089,19.476 32.271,24.827 32.271,31.565L34.271,31.565ZM34.271,36.743L34.271,31.565L32.271,31.565L32.271,36.743L34.271,36.743ZM46.494,47.38C46.494,48.136 45.804,48.882 44.784,48.882L44.784,50.882C46.757,50.882 48.494,49.387 48.494,47.38L46.494,47.38ZM44.784,48.882C43.764,48.882 43.075,48.136 43.075,47.38L41.075,47.38C41.075,49.387 42.812,50.882 44.784,50.882L44.784,48.882ZM43.075,47.38C43.075,46.623 43.764,45.877 44.784,45.877L44.784,43.877C42.812,43.877 41.075,45.372 41.075,47.38L43.075,47.38ZM44.784,45.877C45.804,45.877 46.494,46.623 46.494,47.38L48.494,47.38C48.494,45.372 46.757,43.877 44.784,43.877L44.784,45.877ZM43.784,49.882L43.784,58.329L45.784,58.329L45.784,49.882L43.784,49.882ZM55.976,31.565L55.976,36.743L57.976,36.743L57.976,31.565L55.976,31.565Z" fill="#FFFFFF"/>
</svg>
