<svg width="88" height="90" viewBox="0 0 88 90" fill="none" xmlns="http://www.w3.org/2000/svg" xmlns:xlink="http://www.w3.org/1999/xlink">
<path d="M88,45C88,69.853 68.301,90 44,90C19.699,90 0,69.853 0,45C0,20.147 19.699,0 44,0C68.301,0 88,20.147 88,45Z" fill="#7D8BB7" stroke="#7D8BB7" stroke-width="2" stroke-miterlimit="3.999327"/>
<path d="M43.371,68.75C42.819,68.75 42.371,69.198 42.371,69.75C42.371,70.302 42.819,70.75 43.371,70.75L43.371,68.75ZM43.944,70.75C44.496,70.75 44.944,70.302 44.944,69.75C44.944,69.198 44.496,68.75 43.944,68.75L43.944,70.75ZM50.875,45.535L50.379,44.667L50.379,44.667L50.875,45.535ZM43.236,58.846C43.236,59.398 43.683,59.846 44.236,59.846C44.788,59.846 45.236,59.398 45.236,58.846L43.236,58.846ZM32.144,28.188C31.858,28.661 32.01,29.275 32.483,29.561C32.956,29.846 33.57,29.695 33.856,29.222L32.144,28.188ZM43.371,70.75L43.944,70.75L43.944,68.75L43.371,68.75L43.371,70.75ZM56.2,34.891C56.2,39.026 53.882,42.667 50.379,44.667L51.371,46.404C55.444,44.078 58.2,39.803 58.2,34.891L56.2,34.891ZM44.236,23.5C50.887,23.5 56.2,28.642 56.2,34.891L58.2,34.891C58.2,27.453 51.905,21.5 44.236,21.5L44.236,23.5ZM43.236,54.551L43.236,58.846L45.236,58.846L45.236,54.551L43.236,54.551ZM33.856,29.222C35.915,25.813 39.783,23.5 44.236,23.5L44.236,21.5C39.083,21.5 34.565,24.179 32.144,28.188L33.856,29.222ZM50.379,44.667C46.956,46.622 43.236,49.964 43.236,54.551L45.236,54.551C45.236,51.108 48.083,48.281 51.371,46.404L50.379,44.667Z" fill="#FFFFFF"/>
</svg>
