<svg width="88" height="86" viewBox="0 0 88 86" fill="none" xmlns="http://www.w3.org/2000/svg" xmlns:xlink="http://www.w3.org/1999/xlink">
<path d="M88,43C88,66.748 68.301,86 44,86C19.699,86 0,66.748 0,43C0,19.252 19.699,0 44,0C68.301,0 88,19.252 88,43Z" fill="#7D8BB7"/>
<path d="M43.616,43.605C43.063,43.605 42.616,44.053 42.616,44.605C42.616,45.157 43.063,45.605 43.616,45.605L43.616,43.605ZM71.552,44.605L72.169,45.392C72.411,45.202 72.552,44.912 72.552,44.605C72.552,44.298 72.411,44.008 72.169,43.818L71.552,44.605ZM62.539,50.404C62.104,50.745 62.029,51.373 62.369,51.808C62.71,52.242 63.339,52.318 63.773,51.977L62.539,50.404ZM63.773,37.232C63.339,36.892 62.71,36.968 62.369,37.402C62.029,37.837 62.104,38.465 62.539,38.806L63.773,37.232ZM55.024,26.81L55.024,27.81L55.024,26.81ZM56.934,28.667L57.934,28.667L57.934,28.667L56.934,28.667ZM29.647,28.667L30.647,28.667L30.647,28.667L29.647,28.667ZM31.557,61.429L31.557,62.429L31.557,62.429L31.557,61.429ZM29.647,59.572L28.647,59.572L28.647,59.572L29.647,59.572ZM55.024,61.429L55.024,60.429L55.024,60.429L55.024,61.429ZM56.934,59.572L57.934,59.572L57.934,59.572L56.934,59.572ZM55.934,36.497C55.934,37.05 56.382,37.497 56.934,37.497C57.486,37.497 57.934,37.05 57.934,36.497L55.934,36.497ZM57.934,52.021C57.934,51.468 57.486,51.021 56.934,51.021C56.382,51.021 55.934,51.468 55.934,52.021L57.934,52.021ZM43.616,45.605L71.552,45.605L71.552,43.605L43.616,43.605L43.616,45.605ZM70.935,43.818L62.539,50.404L63.773,51.977L72.169,45.392L70.935,43.818ZM72.169,43.818L63.773,37.232L62.539,38.806L70.935,45.392L72.169,43.818ZM55.024,27.81C55.554,27.81 55.934,28.22 55.934,28.667L57.934,28.667C57.934,27.063 56.605,25.81 55.024,25.81L55.024,27.81ZM31.557,27.81L55.024,27.81L55.024,25.81L31.557,25.81L31.557,27.81ZM30.647,28.667C30.647,28.22 31.028,27.81 31.557,27.81L31.557,25.81C29.977,25.81 28.647,27.063 28.647,28.667L30.647,28.667ZM31.557,60.429C31.028,60.429 30.647,60.019 30.647,59.572L28.647,59.572C28.647,61.176 29.977,62.429 31.557,62.429L31.557,60.429ZM55.024,60.429L31.557,60.429L31.557,62.429L55.024,62.429L55.024,60.429ZM55.934,59.572C55.934,60.019 55.554,60.429 55.024,60.429L55.024,62.429C56.605,62.429 57.934,61.176 57.934,59.572L55.934,59.572ZM30.647,59.572L30.647,28.667L28.647,28.667L28.647,59.572L30.647,59.572ZM55.934,28.667L55.934,36.497L57.934,36.497L57.934,28.667L55.934,28.667ZM55.934,52.021L55.934,59.572L57.934,59.572L57.934,52.021L55.934,52.021Z" fill="#FFFFFF"/>
</svg>
