<svg width="88" height="86" viewBox="0 0 88 86" fill="none" xmlns="http://www.w3.org/2000/svg" xmlns:xlink="http://www.w3.org/1999/xlink">
<path d="M88,43C88,66.748 68.301,86 44,86C19.699,86 0,66.748 0,43C0,19.252 19.699,0 44,0C68.301,0 88,19.252 88,43Z" fill="#7D8BB7"/>
<path d="M39.666,18.429L39.666,17.429C39.114,17.429 38.666,17.876 38.666,18.429L39.666,18.429ZM50.429,18.429L51.429,18.429C51.429,17.876 50.981,17.429 50.429,17.429L50.429,18.429ZM50.429,69.619L50.429,70.619C50.981,70.619 51.429,70.171 51.429,69.619L50.429,69.619ZM39.666,69.619L38.666,69.619C38.666,70.171 39.114,70.619 39.666,70.619L39.666,69.619ZM71.238,38.765L72.238,38.765C72.238,38.212 71.79,37.764 71.238,37.764L71.238,38.765ZM71.238,49.283L71.238,50.283C71.503,50.283 71.758,50.178 71.945,49.99C72.133,49.803 72.238,49.548 72.238,49.283L71.238,49.283ZM18.857,49.283L17.857,49.283C17.857,49.835 18.305,50.283 18.857,50.283L18.857,49.283ZM18.857,38.765L18.857,37.764C18.592,37.764 18.337,37.87 18.15,38.057C17.962,38.245 17.857,38.499 17.857,38.765L18.857,38.765ZM59.762,22.206L60.461,21.491C60.074,21.113 59.456,21.111 59.067,21.487L59.762,22.206ZM67.372,29.644L68.075,30.355C68.266,30.167 68.373,29.909 68.372,29.641C68.372,29.373 68.263,29.116 68.071,28.929L67.372,29.644ZM30.333,65.841L29.634,66.556C30.022,66.935 30.639,66.936 31.029,66.56L30.333,65.841ZM22.723,58.404L22.02,57.692C21.829,57.88 21.722,58.138 21.723,58.406C21.723,58.674 21.832,58.931 22.024,59.119L22.723,58.404ZM67.372,58.404L68.071,59.119C68.261,58.933 68.37,58.679 68.372,58.413C68.375,58.147 68.271,57.891 68.084,57.702L67.372,58.404ZM59.762,65.841L59.057,66.551C59.444,66.936 60.07,66.938 60.461,66.556L59.762,65.841ZM22.723,29.644L22.024,28.929C21.831,29.117 21.723,29.375 21.723,29.644C21.723,29.913 21.831,30.171 22.024,30.359L22.723,29.644ZM30.333,22.206L31.032,21.491C30.644,21.111 30.023,21.111 29.634,21.491L30.333,22.206ZM62.407,49.283L62.407,48.283L61.694,48.283L61.462,48.957L62.407,49.283ZM61.147,52.088L60.275,51.599L59.907,52.255L60.435,52.79L61.147,52.088ZM53.299,59.42L54.004,58.711L53.503,58.213L52.867,58.519L53.299,59.42ZM50.429,60.508L50.155,59.546L49.429,59.753L49.429,60.508L50.429,60.508ZM39.666,60.287L40.666,60.287L40.666,59.564L39.979,59.338L39.666,60.287ZM37.154,59.243L37.607,58.352L36.971,58.029L36.459,58.525L37.154,59.243ZM29.474,51.737L30.176,52.449L30.706,51.926L30.357,51.268L29.474,51.737ZM28.406,49.283L29.351,48.957L29.118,48.283L28.406,48.283L28.406,49.283ZM28.18,38.765L28.18,39.765L28.926,39.765L29.139,39.05L28.18,38.765ZM29.257,36.03L30.153,36.475L30.477,35.824L29.956,35.315L29.257,36.03ZM36.643,28.373L35.944,29.088L36.474,29.606L37.124,29.25L36.643,28.373ZM39.666,27.059L39.979,28.009L40.666,27.782L40.666,27.059L39.666,27.059ZM50.429,26.839L49.429,26.839L49.429,27.594L50.155,27.801L50.429,26.839ZM53.658,28.103L53.206,28.995L53.841,29.317L54.353,28.822L53.658,28.103ZM61.339,35.609L60.636,34.898L60.106,35.421L60.455,36.078L61.339,35.609ZM62.632,38.765L61.674,39.05L61.887,39.765L62.632,39.765L62.632,38.765ZM39.666,19.429L50.429,19.429L50.429,17.429L39.666,17.429L39.666,19.429ZM50.429,68.619L39.666,68.619L39.666,70.619L50.429,70.619L50.429,68.619ZM70.238,38.765L70.238,49.283L72.238,49.283L72.238,38.765L70.238,38.765ZM19.857,49.283L19.857,38.765L17.857,38.765L17.857,49.283L19.857,49.283ZM59.063,22.922L66.673,30.359L68.071,28.929L60.461,21.491L59.063,22.922ZM31.032,65.126L23.422,57.688L22.024,59.119L29.634,66.556L31.032,65.126ZM66.673,57.688L59.063,65.126L60.461,66.556L68.071,59.119L66.673,57.688ZM23.422,30.359L31.032,22.922L29.634,21.491L22.024,28.929L23.422,30.359ZM61.462,48.957C61.144,49.876 60.746,50.759 60.275,51.599L62.019,52.577C62.548,51.635 62.995,50.643 63.352,49.61L61.462,48.957ZM52.867,58.519C52.002,58.934 51.096,59.278 50.155,59.546L50.703,61.47C51.753,61.171 52.765,60.786 53.732,60.322L52.867,58.519ZM39.979,59.338C39.158,59.067 38.366,58.736 37.607,58.352L36.702,60.135C37.55,60.565 38.436,60.935 39.353,61.237L39.979,59.338ZM30.357,51.268C29.964,50.529 29.627,49.756 29.351,48.957L27.46,49.61C27.771,50.508 28.15,51.376 28.591,52.206L30.357,51.268ZM29.139,39.05C29.404,38.158 29.745,37.298 30.153,36.475L28.362,35.586C27.903,36.51 27.52,37.477 27.222,38.479L29.139,39.05ZM37.124,29.25C38.027,28.754 38.983,28.337 39.979,28.009L39.353,26.109C38.239,26.477 37.172,26.942 36.162,27.496L37.124,29.25ZM50.155,27.801C51.219,28.103 52.24,28.505 53.206,28.995L54.11,27.211C53.031,26.664 51.891,26.215 50.703,25.877L50.155,27.801ZM60.455,36.078C60.955,37.02 61.365,38.014 61.674,39.05L63.591,38.479C63.244,37.314 62.783,36.197 62.222,35.14L60.455,36.078ZM40.666,27.059L40.666,18.429L38.666,18.429L38.666,27.059L40.666,27.059ZM49.429,18.429L49.429,26.839L51.429,26.839L51.429,18.429L49.429,18.429ZM29.634,22.922L35.944,29.088L37.342,27.658L31.032,21.491L29.634,22.922ZM29.956,35.315L23.422,28.929L22.024,30.359L28.558,36.746L29.956,35.315ZM54.353,28.822L60.456,22.926L59.067,21.487L52.963,27.384L54.353,28.822ZM66.669,28.933L60.636,34.898L62.042,36.32L68.075,30.355L66.669,28.933ZM62.632,39.765L71.238,39.765L71.238,37.764L62.632,37.764L62.632,39.765ZM71.238,48.283L62.407,48.283L62.407,50.283L71.238,50.283L71.238,48.283ZM60.435,52.79L66.66,59.106L68.084,57.702L61.859,51.386L60.435,52.79ZM60.466,65.132L54.004,58.711L52.594,60.13L59.057,66.551L60.466,65.132ZM49.429,60.508L49.429,69.619L51.429,69.619L51.429,60.508L49.429,60.508ZM40.666,69.619L40.666,60.287L38.666,60.287L38.666,69.619L40.666,69.619ZM36.459,58.525L29.638,65.123L31.029,66.56L37.85,59.962L36.459,58.525ZM23.425,59.115L30.176,52.449L28.771,51.026L22.02,57.692L23.425,59.115ZM28.406,48.283L18.857,48.283L18.857,50.283L28.406,50.283L28.406,48.283ZM18.857,39.765L28.18,39.765L28.18,37.764L18.857,37.764L18.857,39.765ZM51.502,42.678C52.216,46.166 49.917,49.494 46.319,50.101L46.652,52.073C51.338,51.283 54.408,46.902 53.461,42.277L51.502,42.678ZM46.319,50.101C42.696,50.712 39.182,48.323 38.462,44.806L36.502,45.208C37.444,49.804 41.992,52.859 46.652,52.073L46.319,50.101ZM38.462,44.806C37.747,41.318 40.046,37.99 43.644,37.383L43.311,35.411C38.625,36.202 35.555,40.583 36.502,45.208L38.462,44.806ZM43.644,37.383C47.267,36.772 50.782,39.162 51.502,42.678L53.461,42.277C52.52,37.68 47.972,34.625 43.311,35.411L43.644,37.383Z" fill="#FFFFFF"/>
</svg>
