<svg width="70" height="72" viewBox="0 0 70 72" fill="none" xmlns="http://www.w3.org/2000/svg" xmlns:xlink="http://www.w3.org/1999/xlink">
<path d="M70,36C70,55.882 54.33,72 35,72C15.67,72 0,55.882 0,36C0,16.118 15.67,0 35,0C54.33,0 70,16.118 70,36Z" fill="#FFFFFF"/>
<path d="M20.143,23.058L21.643,23.065L21.643,23.065L20.143,23.058ZM24.552,20.331L23.874,21.669L23.874,21.669L24.552,20.331ZM24.381,53.684L25.045,55.029L25.045,55.029L24.381,53.684ZM20,50.91L18.5,50.903L20,50.91ZM52.295,39.903L51.631,38.558L51.631,38.558L52.295,39.903ZM52.323,34.403L53.001,33.065L52.323,34.403ZM52.017,38.651C52.845,38.656 53.521,37.987 53.525,37.159C53.529,36.331 52.861,35.656 52.033,35.651L52.017,38.651ZM20.079,35.484C19.251,35.48 18.576,36.148 18.572,36.976C18.567,37.805 19.235,38.48 20.064,38.484L20.079,35.484ZM51.631,38.558L23.717,52.339L25.045,55.029L52.959,41.248L51.631,38.558ZM21.5,50.918L21.643,23.065L18.643,23.05L18.5,50.903L21.5,50.918ZM23.874,21.669L51.645,35.741L53.001,33.065L25.23,18.993L23.874,21.669ZM21.643,23.065C21.649,21.882 22.871,21.16 23.874,21.669L25.23,18.993C22.199,17.456 18.661,19.679 18.643,23.05L21.643,23.065ZM23.717,52.339C22.708,52.837 21.494,52.102 21.5,50.918L18.5,50.903C18.483,54.274 21.998,56.533 25.045,55.029L23.717,52.339ZM52.959,41.248C56.328,39.585 56.352,34.763 53.001,33.065L51.645,35.741C52.792,36.322 52.783,37.989 51.631,38.558L52.959,41.248ZM52.033,35.651L20.079,35.484L20.064,38.484L52.017,38.651L52.033,35.651Z" fill="#7D8BB7"/>
</svg>
