<svg width="70" height="72" viewBox="0 0 70 72" fill="none" xmlns="http://www.w3.org/2000/svg" xmlns:xlink="http://www.w3.org/1999/xlink">
<path d="M70,36C70,55.882 54.33,72 35,72C15.67,72 0,55.882 0,36C0,16.118 15.67,0 35,0C54.33,0 70,16.118 70,36Z" fill="#FFFFFF"/>
<path d="M38.832,22.61C39.36,21.972 39.272,21.027 38.634,20.498C37.996,19.97 37.05,20.058 36.522,20.696L38.832,22.61ZM19.795,43.234L20.95,44.191L20.95,44.191L19.795,43.234ZM21.508,54.127L22.4,52.921L21.508,54.127ZM32.875,52.905L34.03,53.862L32.875,52.905ZM53.04,28.569L51.885,27.612L53.04,28.569ZM51.565,21.555L50.673,22.761L50.673,22.761L51.565,21.555ZM44.003,21.888L45.158,22.845L45.158,22.845L44.003,21.888ZM24.029,45.994L22.874,45.037L22.874,45.037L24.029,45.994ZM29.023,49.687L30.178,50.644L30.178,50.644L29.023,49.687ZM44.064,33.884C44.593,33.246 44.504,32.3 43.866,31.772C43.229,31.243 42.283,31.332 41.754,31.97L44.064,33.884ZM36.522,20.696L18.64,42.277L20.95,44.191L38.832,22.61L36.522,20.696ZM18.64,42.277C17.303,43.891 16.368,46.099 16.515,48.487C16.665,50.926 17.931,53.347 20.617,55.333L22.4,52.921C20.329,51.39 19.598,49.742 19.509,48.303C19.418,46.812 20.005,45.332 20.95,44.191L18.64,42.277ZM20.617,55.333C23.175,57.224 25.81,57.794 28.222,57.365C30.598,56.943 32.608,55.579 34.03,53.862L31.72,51.948C30.669,53.217 29.256,54.134 27.696,54.411C26.173,54.682 24.361,54.37 22.4,52.921L20.617,55.333ZM34.03,53.862L54.195,29.526L51.885,27.612L31.72,51.948L34.03,53.862ZM54.195,29.526C56.335,26.943 55.912,22.904 52.457,20.349L50.673,22.761C52.925,24.426 52.788,26.522 51.885,27.612L54.195,29.526ZM52.457,20.349C50.459,18.872 48.558,18.302 46.8,18.559C45.06,18.813 43.756,19.834 42.848,20.931L45.158,22.845C45.771,22.104 46.464,21.64 47.233,21.528C47.984,21.418 49.103,21.601 50.673,22.761L52.457,20.349ZM42.848,20.931L22.874,45.037L25.184,46.951L45.158,22.845L42.848,20.931ZM22.874,45.037C22.417,45.588 21.934,46.52 21.934,47.637C21.934,48.85 22.505,50.065 23.803,51.025L25.586,48.612C25.265,48.374 25.11,48.167 25.033,48.023C24.958,47.881 24.934,47.754 24.934,47.637C24.934,47.365 25.07,47.089 25.184,46.951L22.874,45.037ZM23.803,51.025C26.425,52.963 29.164,51.867 30.178,50.644L27.868,48.729C27.87,48.727 27.807,48.796 27.656,48.878C27.514,48.955 27.332,49.024 27.123,49.057C26.735,49.118 26.205,49.069 25.586,48.612L23.803,51.025ZM30.178,50.644L44.064,33.884L41.754,31.97L27.868,48.73L30.178,50.644Z" fill="#7D8BB7"/>
</svg>
