<svg width="34" height="30" viewBox="0 0 34 30" fill="none" xmlns="http://www.w3.org/2000/svg" xmlns:xlink="http://www.w3.org/1999/xlink">
<path d="M3.954,0L1.756,2.163L30.046,30L32.244,27.837L3.954,0L3.954,0Z" clip-rule="evenodd" fill-rule="evenodd" fill="#000000" fill-opacity="0.6"/>
<path d="M6.401,6.733L8.47,8.769C6.205,10.666 4.401,13.029 3.235,15.096L3.232,15.103C6.478,20.443 11.629,25.491 18.129,24.725C19.884,24.518 21.521,23.928 23.017,23.084L25.111,25.144C22.196,26.985 18.854,27.96 15.233,27.478C8.704,26.609 3.365,21.34 0,15.151C1.58,12.023 3.742,9.03 6.401,6.733L6.401,6.733ZM11.107,3.715C12.933,2.915 14.908,2.444 17.018,2.41C17.135,2.41 18.525,2.475 19.156,2.577C19.551,2.641 19.945,2.721 20.333,2.821C26.527,4.409 31.115,9.561 34,14.869C32.79,17.273 31.205,19.62 29.314,21.631L27.308,19.657C28.704,18.176 29.868,16.527 30.765,14.929C30.765,14.929 29.863,13.502 29.179,12.607C28.74,12.031 28.278,11.473 27.792,10.934C27.409,10.509 25.921,9.067 25.566,8.767C23.19,6.756 20.399,5.178 17.053,5.204C15.756,5.225 14.51,5.476 13.327,5.899L11.107,3.715L11.107,3.715Z" fill="#000000" fill-opacity="0.6"/>
<path d="M12.033,12.276L13.63,13.847L19.779,19.897C18.957,20.351 18.009,20.61 17,20.61C13.859,20.61 11.309,18.101 11.309,15.01C11.309,14.017 11.572,13.085 12.033,12.276ZM16.895,9.411C16.93,9.411 16.965,9.41 17,9.41C20.141,9.41 22.691,11.92 22.691,15.01C22.691,15.045 22.691,15.079 22.69,15.113L16.895,9.411Z" clip-rule="evenodd" fill-rule="evenodd" fill="#000000" fill-opacity="0.6"/>
</svg>
