<svg width="40" height="40" viewBox="0 0 40 40" fill="none" xmlns="http://www.w3.org/2000/svg" xmlns:xlink="http://www.w3.org/1999/xlink">
<path d="M39.979,19.374C39.979,17.735 39.843,16.539 39.548,15.299L20.398,15.299L20.398,22.696L31.639,22.696C31.412,24.534 30.189,27.302 27.469,29.163L27.431,29.41L33.486,33.994L33.905,34.035C37.758,30.558 39.979,25.442 39.979,19.374Z" fill="#4285F4"/>
<path d="M20.398,38.863C25.905,38.863 30.528,37.091 33.905,34.035L27.469,29.163C25.747,30.337 23.435,31.156 20.398,31.156C15.005,31.156 10.427,27.679 8.795,22.873L8.556,22.893L2.26,27.655L2.177,27.878C5.532,34.389 12.421,38.863 20.398,38.863Z" fill="#34A853"/>
<path d="M8.795,22.873C8.365,21.633 8.115,20.304 8.115,18.931C8.115,17.558 8.365,16.23 8.773,14.989L8.761,14.725L2.386,9.888L2.178,9.984C0.795,12.686 0.002,15.72 0.002,18.931C0.002,22.143 0.795,25.177 2.178,27.878L8.795,22.873Z" fill="#FBBC05"/>
<path d="M20.398,6.707C24.228,6.707 26.812,8.323 28.285,9.674L34.041,4.182C30.506,0.971 25.905,-1 20.398,-1C12.421,-1 5.532,3.473 2.177,9.984L8.772,14.989C10.427,10.184 15.005,6.707 20.398,6.707Z" fill="#EB4335"/>
</svg>
