<svg width="38" height="38" viewBox="0 0 38 38" fill="none" xmlns="http://www.w3.org/2000/svg" xmlns:xlink="http://www.w3.org/1999/xlink">
<path d="M36.348,19.421C36.348,17.863 36.224,16.726 35.956,15.548L18.545,15.548L18.545,22.579L28.765,22.579C28.559,24.326 27.446,26.957 24.974,28.725L24.939,28.961L30.444,33.318L30.826,33.357C34.328,30.052 36.348,25.189 36.348,19.421Z" fill="#4285F4"/>
<path d="M18.545,37.946C23.552,37.946 27.755,36.262 30.826,33.357L24.974,28.725C23.408,29.841 21.306,30.62 18.545,30.62C13.641,30.62 9.479,27.315 7.995,22.747L7.777,22.766L2.053,27.292L1.978,27.504C5.028,33.693 11.292,37.946 18.545,37.946Z" fill="#34A853"/>
<path d="M7.995,22.747C7.603,21.568 7.377,20.305 7.377,19C7.377,17.695 7.603,16.432 7.974,15.253L7.964,15.002L2.168,10.403L1.978,10.495C0.721,13.064 0,15.948 0,19C0,22.052 0.721,24.936 1.978,27.504L7.995,22.747Z" fill="#FBBC05"/>
<path d="M18.545,7.38C22.027,7.38 24.376,8.917 25.715,10.201L30.949,4.98C27.735,1.928 23.552,0.054 18.545,0.054C11.292,0.054 5.028,4.306 1.978,10.495L7.974,15.253C9.479,10.685 13.641,7.38 18.545,7.38Z" fill="#EB4335"/>
</svg>
