<svg width="92" height="62" viewBox="0 0 92 62" fill="none" xmlns="http://www.w3.org/2000/svg" xmlns:xlink="http://www.w3.org/1999/xlink">
<path d="M77.107,5.246C75.377,3.527 73.324,2.164 71.065,1.233C68.805,0.303 66.383,-0.176 63.937,-0.176C61.491,-0.176 59.069,0.303 56.809,1.233C54.549,2.164 52.496,3.527 50.767,5.246L47.178,8.812L43.589,5.246C40.097,1.776 35.359,-0.174 30.42,-0.174C25.48,-0.174 20.743,1.776 17.25,5.246C13.757,8.717 11.794,13.424 11.794,18.333C11.794,23.241 13.757,27.948 17.25,31.419L20.838,34.985L47.178,61.157L73.518,34.985L77.107,31.419C78.837,29.701 80.209,27.661 81.145,25.415C82.082,23.17 82.564,20.763 82.564,18.333C82.564,15.902 82.082,13.495 81.145,11.25C80.209,9.005 78.837,6.965 77.107,5.246L77.107,5.246Z" fill="url(#pf_0_18_319)"/>
<path d="M38.333,44.645C37.661,44.644 37.001,44.467 36.419,44.13C35.837,43.794 35.354,43.31 35.018,42.728L28.482,30.979L24.303,37.246C23.944,37.765 23.462,38.187 22.9,38.474C22.338,38.762 21.714,38.906 21.083,38.895L3.833,38.895C2.817,38.895 1.842,38.491 1.123,37.772C0.404,37.053 0,36.078 0,35.062C0,34.045 0.404,33.07 1.123,32.351C1.842,31.632 2.817,31.228 3.833,31.228L19.033,31.228L25.568,21.434C25.933,20.889 26.433,20.446 27.018,20.149C27.603,19.851 28.255,19.709 28.911,19.736C29.568,19.763 30.206,19.958 30.765,20.302C31.324,20.647 31.785,21.129 32.104,21.703L38.333,33.145L48.357,15.895C48.7,15.302 49.195,14.811 49.792,14.474C50.389,14.137 51.065,13.966 51.75,13.979C52.419,13.983 53.075,14.162 53.654,14.498C54.232,14.834 54.712,15.316 55.047,15.895L64.227,31.228L68.061,28.2C68.74,27.673 69.577,27.389 70.438,27.395L88.167,27.395C89.183,27.395 90.158,27.799 90.877,28.518C91.596,29.237 92,30.212 92,31.228C92,32.245 91.596,33.22 90.877,33.939C90.158,34.658 89.183,35.062 88.167,35.062L71.779,35.062L65.55,39.987C65.121,40.34 64.62,40.596 64.082,40.736C63.544,40.876 62.983,40.898 62.436,40.8C61.889,40.701 61.37,40.485 60.915,40.166C60.459,39.847 60.079,39.433 59.8,38.952L51.75,25.363L41.649,42.728C41.313,43.31 40.83,43.794 40.248,44.13C39.666,44.467 39.006,44.644 38.333,44.645Z" fill="#FFFFFF" fill-opacity="0.2"/>
<defs>
<linearGradient id="pf_0_18_319" x1="11.794" y1="28.446" x2="80.858" y2="30.491" gradientUnits="userSpaceOnUse">
<stop stop-color="#FF7070"/>
<stop offset="1" stop-color="#FF7070" stop-opacity="0.65"/>
</linearGradient>
</defs>
</svg>
