<svg width="92" height="62" viewBox="0 0 92 62" fill="none" xmlns="http://www.w3.org/2000/svg" xmlns:xlink="http://www.w3.org/1999/xlink">
<path d="M77.107,5.422C75.377,3.703 73.324,2.34 71.065,1.409C68.805,0.479 66.383,0 63.937,0C61.491,0 59.069,0.479 56.809,1.409C54.549,2.34 52.496,3.703 50.767,5.422L47.178,8.988L43.589,5.422C40.097,1.952 35.359,0.002 30.42,0.002C25.48,0.002 20.743,1.952 17.25,5.422C13.757,8.893 11.794,13.6 11.794,18.509C11.794,23.417 13.757,28.124 17.25,31.595L20.838,35.161L47.178,61.333L73.518,35.161L77.107,31.595C78.837,29.877 80.209,27.837 81.145,25.591C82.082,23.346 82.564,20.939 82.564,18.509C82.564,16.078 82.082,13.671 81.145,11.426C80.209,9.181 78.837,7.141 77.107,5.422L77.107,5.422Z" fill="url(#pf_0_18_325)"/>
<path d="M38.333,44.821C37.661,44.82 37.001,44.643 36.419,44.306C35.837,43.97 35.354,43.486 35.018,42.904L28.482,31.155L24.303,37.422C23.944,37.941 23.462,38.363 22.9,38.65C22.338,38.938 21.714,39.082 21.083,39.071L3.833,39.071C2.817,39.071 1.842,38.667 1.123,37.948C0.404,37.229 0,36.254 0,35.238C0,34.221 0.404,33.246 1.123,32.527C1.842,31.808 2.817,31.404 3.833,31.404L19.033,31.404L25.568,21.61C25.933,21.065 26.433,20.622 27.018,20.325C27.603,20.027 28.255,19.885 28.911,19.912C29.568,19.939 30.206,20.134 30.765,20.478C31.324,20.823 31.785,21.305 32.104,21.879L38.333,33.321L48.357,16.071C48.7,15.478 49.195,14.987 49.792,14.65C50.389,14.313 51.065,14.142 51.75,14.155C52.419,14.159 53.075,14.338 53.654,14.674C54.232,15.01 54.712,15.492 55.047,16.071L64.227,31.404L68.061,28.376C68.74,27.849 69.577,27.565 70.438,27.571L88.167,27.571C89.183,27.571 90.158,27.975 90.877,28.694C91.596,29.413 92,30.388 92,31.404C92,32.421 91.596,33.396 90.877,34.115C90.158,34.834 89.183,35.238 88.167,35.238L71.779,35.238L65.55,40.163C65.121,40.516 64.62,40.772 64.082,40.912C63.544,41.052 62.983,41.074 62.436,40.976C61.889,40.877 61.37,40.661 60.915,40.342C60.459,40.023 60.079,39.609 59.8,39.128L51.75,25.539L41.649,42.904C41.313,43.486 40.83,43.97 40.248,44.306C39.666,44.643 39.006,44.82 38.333,44.821Z" fill="#FFFFFF" fill-opacity="0.2"/>
<defs>
<linearGradient id="pf_0_18_325" x1="11.794" y1="28.622" x2="80.858" y2="30.667" gradientUnits="userSpaceOnUse">
<stop stop-color="#FF7070"/>
<stop offset="1" stop-color="#FF7070" stop-opacity="0.65"/>
</linearGradient>
</defs>
</svg>
