<svg width="46" height="44" viewBox="0 0 46 44" fill="none" xmlns="http://www.w3.org/2000/svg" xmlns:xlink="http://www.w3.org/1999/xlink">
<path d="M44.196,40.827L36.606,33.407L36.606,33.407L36.428,33.136C36.097,32.807 35.645,32.622 35.173,32.622C34.701,32.622 34.249,32.807 33.918,33.136L33.918,33.136C27.468,39.054 17.529,39.376 10.693,33.888C3.856,28.401 2.244,18.807 6.925,11.469C11.606,4.131 21.128,1.327 29.175,4.916C37.223,8.504 41.3,17.372 38.701,25.639C38.514,26.236 38.667,26.885 39.102,27.342C39.538,27.799 40.19,27.995 40.812,27.854C41.435,27.714 41.933,27.26 42.121,26.663L42.121,26.663C45.227,16.853 40.535,6.296 31.082,1.822C21.628,-2.653 10.249,0.298 4.305,8.765C-1.638,17.232 -0.362,28.674 7.308,35.689C14.978,42.705 26.74,43.189 34.985,36.827L41.705,43.398C42.4,44.073 43.522,44.073 44.216,43.398C44.909,42.712 44.909,41.609 44.216,40.924L44.216,40.924L44.196,40.827Z" fill="#8C98BE"/>
</svg>
