<svg width="40" height="44" viewBox="0 0 40 44" fill="none" xmlns="http://www.w3.org/2000/svg" xmlns:xlink="http://www.w3.org/1999/xlink">
<path d="M18.772,0.421C19.494,-0.14 20.506,-0.14 21.228,0.421L39.228,14.421C39.715,14.8 40,15.383 40,16L40,38C40,39.591 39.368,41.117 38.243,42.243C37.117,43.368 35.591,44 34,44L26,44L26,26C26,23.791 24.209,22 22,22L18,22C15.791,22 14,23.791 14,26L14,44L6,44C4.409,44 2.883,43.368 1.757,42.243C0.632,41.117 0,39.591 0,38L0,16C0,15.383 0.285,14.8 0.772,14.421L18.772,0.421Z" clip-rule="evenodd" fill-rule="evenodd" fill="#BA68C8"/>
</svg>
