<svg width="88" height="70" viewBox="0 0 88 70" fill="none" xmlns="http://www.w3.org/2000/svg" xmlns:xlink="http://www.w3.org/1999/xlink">
<path d="M78.284,30.916C77.945,31.594 78.22,32.419 78.898,32.757C79.576,33.096 80.4,32.821 80.739,32.143L78.284,30.916ZM80.085,30.28L81.336,30.845C81.343,30.829 81.35,30.814 81.356,30.798L80.085,30.28ZM81.521,24.407L82.888,24.534L82.888,24.53L81.521,24.407ZM70.009,3.962L70.612,2.729L70.611,2.729L70.009,3.962ZM42.403,13.472L41.17,12.87C41.165,12.879 41.161,12.888 41.157,12.897L42.403,13.472ZM41.966,14.522L40.677,14.994C40.875,15.535 41.39,15.894 41.966,15.894C42.542,15.894 43.056,15.535 43.254,14.994L41.966,14.522ZM41.529,13.472L42.775,12.897C42.771,12.888 42.766,12.879 42.762,12.87L41.529,13.472ZM13.922,3.962L13.321,2.729L13.32,2.729L13.922,3.962ZM4.421,31.58L5.654,30.979L5.654,30.979L4.421,31.58ZM41.953,67.12L41.111,68.204C41.607,68.589 42.3,68.589 42.795,68.204L41.953,67.12ZM75.855,38.84C76.358,38.273 76.307,37.406 75.741,36.902C75.174,36.399 74.307,36.45 73.803,37.016L75.855,38.84ZM13.385,28.533C12.627,28.533 12.013,29.147 12.013,29.905C12.013,30.663 12.627,31.278 13.385,31.278L13.385,28.533ZM26.383,29.905L27.58,29.234C27.337,28.801 26.88,28.533 26.383,28.533L26.383,29.905ZM31.365,38.79L30.168,39.461C30.423,39.915 30.912,40.186 31.432,40.161C31.952,40.136 32.412,39.819 32.622,39.342L31.365,38.79ZM39.169,21.02L40.464,20.565C40.277,20.034 39.784,19.67 39.221,19.649C38.658,19.627 38.139,19.952 37.912,20.468L39.169,21.02ZM42.29,29.905L40.996,30.36C41.189,30.91 41.708,31.278 42.29,31.278L42.29,29.905ZM49.445,29.905L50.641,29.233C50.398,28.8 49.941,28.533 49.445,28.533L49.445,29.905ZM54.439,38.79L53.243,39.463C53.498,39.916 53.987,40.187 54.507,40.161C55.027,40.135 55.487,39.818 55.696,39.341L54.439,38.79ZM62.23,21.02L63.552,20.651C63.396,20.093 62.906,19.692 62.327,19.651C61.748,19.61 61.207,19.938 60.974,20.469L62.23,21.02ZM65.364,32.255L64.043,32.623C64.211,33.228 64.769,33.641 65.396,33.627L65.364,32.255ZM85.699,33.152C86.456,33.134 87.056,32.505 87.039,31.748C87.021,30.99 86.392,30.39 85.634,30.408L85.699,33.152ZM80.739,32.143C80.967,31.686 81.176,31.2 81.336,30.845L78.835,29.716C78.645,30.135 78.48,30.524 78.284,30.916L80.739,32.143ZM81.356,30.798C82.172,28.796 82.688,26.686 82.888,24.534L80.155,24.28C79.98,26.163 79.528,28.011 78.815,29.762L81.356,30.798ZM82.888,24.53C83.29,20.079 82.331,15.612 80.139,11.719L77.747,13.065C79.667,16.474 80.506,20.386 80.154,24.283L82.888,24.53ZM80.139,11.719C77.947,7.826 74.624,4.691 70.612,2.729L69.407,5.195C72.919,6.912 75.828,9.657 77.747,13.065L80.139,11.719ZM70.611,2.729C65.363,0.168 59.313,-0.202 53.792,1.7L54.686,4.295C59.518,2.63 64.814,2.954 69.407,5.196L70.611,2.729ZM53.792,1.7C48.271,3.602 43.731,7.62 41.17,12.87L43.636,14.074C45.879,9.477 49.854,5.96 54.686,4.295L53.792,1.7ZM41.157,12.897C40.996,13.246 40.831,13.631 40.677,14.05L43.254,14.994C43.376,14.663 43.51,14.348 43.649,14.047L41.157,12.897ZM43.254,14.05C43.101,13.631 42.936,13.246 42.775,12.897L40.282,14.047C40.421,14.348 40.556,14.663 40.677,14.994L43.254,14.05ZM42.762,12.87C40.2,7.62 35.661,3.602 30.14,1.7L29.246,4.295C34.078,5.96 38.052,9.477 40.295,14.074L42.762,12.87ZM30.14,1.7C24.619,-0.202 18.569,0.168 13.321,2.729L14.524,5.196C19.118,2.954 24.413,2.63 29.246,4.295L30.14,1.7ZM13.32,2.729C8.074,5.291 4.06,9.832 2.16,15.355L4.756,16.248C6.419,11.413 9.933,7.437 14.525,5.195L13.32,2.729ZM2.16,15.355C0.26,20.878 0.629,26.93 3.187,32.181L5.654,30.979C3.415,26.382 3.092,21.083 4.756,16.248L2.16,15.355ZM3.187,32.18C4.545,34.971 7.667,38.617 11.414,42.424C15.203,46.273 19.768,50.421 24.16,54.234C28.555,58.048 32.792,61.54 35.928,64.077C37.497,65.345 38.791,66.376 39.694,67.09C40.146,67.447 40.499,67.725 40.74,67.914C40.861,68.008 40.953,68.08 41.016,68.129C41.047,68.154 41.071,68.172 41.087,68.185C41.095,68.191 41.101,68.195 41.105,68.199C41.107,68.2 41.109,68.202 41.11,68.202C41.11,68.203 41.111,68.203 41.111,68.203C41.111,68.204 41.111,68.204 41.953,67.12C42.795,66.036 42.795,66.036 42.795,66.036C42.795,66.036 42.795,66.036 42.794,66.035C42.793,66.035 42.792,66.034 42.79,66.032C42.786,66.029 42.78,66.025 42.773,66.019C42.757,66.007 42.734,65.989 42.704,65.965C42.643,65.918 42.552,65.847 42.433,65.753C42.195,65.567 41.845,65.292 41.397,64.937C40.501,64.229 39.214,63.204 37.654,61.943C34.534,59.419 30.323,55.949 25.959,52.161C21.593,48.37 17.087,44.275 13.37,40.498C9.611,36.679 6.793,33.318 5.654,30.979L3.187,32.18ZM41.953,67.12C42.795,68.204 42.796,68.203 42.796,68.203C42.796,68.203 42.796,68.203 42.797,68.203C42.797,68.202 42.799,68.201 42.8,68.2C42.803,68.198 42.807,68.195 42.813,68.19C42.824,68.182 42.84,68.169 42.862,68.152C42.905,68.118 42.969,68.068 43.053,68.002C43.221,67.871 43.468,67.677 43.786,67.427C44.422,66.926 45.341,66.197 46.476,65.286C48.746,63.465 51.882,60.914 55.347,57.992C62.26,52.165 70.545,44.812 75.855,38.84L73.803,37.016C68.637,42.828 60.485,50.071 53.578,55.894C50.134,58.798 47.016,61.335 44.758,63.145C43.63,64.051 42.717,64.774 42.087,65.271C41.772,65.52 41.527,65.711 41.362,65.841C41.279,65.906 41.216,65.955 41.174,65.987C41.153,66.004 41.137,66.016 41.127,66.024C41.121,66.029 41.117,66.032 41.115,66.034C41.114,66.035 41.113,66.035 41.112,66.036C41.112,66.036 41.112,66.036 41.111,66.036C41.111,66.036 41.111,66.036 41.953,67.12ZM13.385,31.278L26.383,31.278L26.383,28.533L13.385,28.533L13.385,31.278ZM25.186,30.576L30.168,39.461L32.562,38.119L27.58,29.234L25.186,30.576ZM32.622,39.342L40.425,21.572L37.912,20.468L30.109,38.238L32.622,39.342ZM37.874,21.475L40.996,30.36L43.585,29.45L40.464,20.565L37.874,21.475ZM42.29,31.278L49.445,31.278L49.445,28.533L42.29,28.533L42.29,31.278ZM48.248,30.578L53.243,39.463L55.635,38.118L50.641,29.233L48.248,30.578ZM55.696,39.341L63.487,21.571L60.974,20.469L53.182,38.239L55.696,39.341ZM60.909,21.389L64.043,32.623L66.686,31.886L63.552,20.651L60.909,21.389ZM65.396,33.627L85.699,33.152L85.634,30.408L65.332,30.883L65.396,33.627Z" fill="#FFFFFF"/>
</svg>
