<svg width="34" height="40" viewBox="0 0 34 40" fill="none" xmlns="http://www.w3.org/2000/svg" xmlns:xlink="http://www.w3.org/1999/xlink">
<path d="M27.634,21.068C27.616,17.802 29.074,15.336 32.024,13.52C30.374,11.126 27.88,9.809 24.587,9.551C21.47,9.301 18.063,11.393 16.816,11.393C15.499,11.393 12.478,9.64 10.107,9.64C5.207,9.72 0,13.6 0,21.495C0,23.827 0.421,26.236 1.264,28.723C2.388,31.989 6.445,40 10.678,39.866C12.891,39.813 14.454,38.273 17.334,38.273C20.126,38.273 21.575,39.866 24.042,39.866C28.31,39.804 31.98,32.523 33.052,29.248C27.327,26.515 27.634,21.237 27.634,21.068L27.634,21.068ZM22.664,6.453C25.061,3.569 24.841,0.943 24.771,0C22.655,0.125 20.205,1.46 18.809,3.106C17.272,4.869 16.368,7.049 16.561,9.506C18.853,9.684 20.943,8.491 22.664,6.453L22.664,6.453Z" fill="#000000"/>
</svg>
