<svg width="40" height="40" viewBox="0 0 40 40" fill="none" xmlns="http://www.w3.org/2000/svg" xmlns:xlink="http://www.w3.org/1999/xlink">
<path d="M20,40C31.046,40 40,31.046 40,20C40,8.954 31.046,0 20,0C8.954,0 0,8.954 0,20C0,23.199 0.751,26.223 2.087,28.905C2.442,29.618 2.56,30.432 2.354,31.201L1.163,35.653C0.646,37.586 2.414,39.354 4.347,38.837L8.799,37.646C9.568,37.44 10.382,37.558 11.095,37.913C13.777,39.249 16.801,40 20,40ZM12,22.5C11.172,22.5 10.5,23.172 10.5,24C10.5,24.828 11.172,25.5 12,25.5L23,25.5C23.828,25.5 24.5,24.828 24.5,24C24.5,23.172 23.828,22.5 23,22.5L12,22.5ZM10.5,17C10.5,16.172 11.172,15.5 12,15.5L28,15.5C28.828,15.5 29.5,16.172 29.5,17C29.5,17.828 28.828,18.5 28,18.5L12,18.5C11.172,18.5 10.5,17.828 10.5,17Z" clip-rule="evenodd" fill-rule="evenodd" fill="#BA68C8"/>
</svg>
