<svg width="88" height="46" viewBox="0 0 88 46" fill="none" xmlns="http://www.w3.org/2000/svg" xmlns:xlink="http://www.w3.org/1999/xlink">
<path d="M39.221,42.984C38.906,43.675 39.21,44.491 39.901,44.806C40.591,45.122 41.407,44.818 41.723,44.127L39.221,42.984ZM39.5,32.854L40.693,32.17L40.693,32.17L39.5,32.854ZM30.337,24.109L29.51,25.208L29.529,25.221L30.337,24.109ZM24.93,12.839L23.557,12.764C23.556,12.775 23.556,12.785 23.556,12.796L24.93,12.839ZM36.081,3.099L36.318,4.453L36.335,4.45L36.081,3.099ZM51.219,3.099L51.492,1.751L51.473,1.747L51.219,3.099ZM62.983,10.751L64.306,10.379L64.305,10.375L62.983,10.751ZM60.252,21.922L61.332,22.774L61.334,22.771L60.252,21.922ZM49.013,31.487L50.119,32.305L50.122,32.3L49.013,31.487ZM46.849,44.268C47.266,44.902 48.119,45.078 48.753,44.661C49.388,44.243 49.564,43.39 49.146,42.756L46.849,44.268ZM39.63,25.773C39.975,26.449 40.803,26.717 41.48,26.372C42.156,26.027 42.424,25.198 42.079,24.522L39.63,25.773ZM35.579,20.775L36.4,19.672C36.385,19.66 36.369,19.649 36.353,19.638L35.579,20.775ZM31.909,13.811L30.537,13.733C30.535,13.758 30.534,13.783 30.534,13.808L31.909,13.811ZM39.042,7.996L39.264,9.353L39.28,9.35L39.042,7.996ZM48.718,7.996L48.976,6.645L48.956,6.642L48.718,7.996ZM52.869,20.764L52.06,19.652L52.058,19.654L52.869,20.764ZM46.365,24.519C46.024,25.198 46.298,26.024 46.976,26.365C47.655,26.706 48.481,26.432 48.822,25.753L46.365,24.519ZM59.937,4.828C59.31,4.399 58.454,4.559 58.025,5.186C57.596,5.812 57.756,6.668 58.383,7.097L59.937,4.828ZM63.529,5.864L64.036,7.142L64.042,7.14L63.529,5.864ZM78.514,0.639L78.693,-0.724L78.691,-0.724L78.514,0.639ZM78.885,21.879L78.342,20.616L78.342,20.616L78.885,21.879ZM75.259,22.557L75.205,23.931L75.209,23.931L75.259,22.557ZM74.409,21.066C73.663,20.922 72.942,21.409 72.798,22.155C72.654,22.901 73.141,23.622 73.887,23.766L74.409,21.066ZM74.126,22.125L72.761,22.29L74.126,22.125ZM70.472,26.201L70.306,24.836L70.472,26.201ZM65.95,23.116L64.585,23.282L65.95,23.116ZM69.605,19.039L69.439,17.674L69.605,19.039ZM29.617,7.097C30.244,6.668 30.404,5.812 29.975,5.186C29.546,4.559 28.69,4.399 28.063,4.828L29.617,7.097ZM24.471,5.864L23.958,7.14L23.964,7.142L24.471,5.864ZM9.486,0.639L9.309,-0.724L9.307,-0.724L9.486,0.639ZM9.115,21.879L9.658,20.616L9.658,20.616L9.115,21.879ZM12.741,22.557L12.791,23.931L12.795,23.931L12.741,22.557ZM14.393,23.657C15.078,23.331 15.37,22.51 15.043,21.825C14.717,21.139 13.896,20.848 13.211,21.174L14.393,23.657ZM18.33,18.942L18.165,20.307L18.33,18.942ZM21.984,23.019L20.619,22.853L21.984,23.019ZM17.463,26.104L17.297,27.469L17.463,26.104ZM13.809,22.027L12.444,21.862L13.809,22.027ZM41.723,44.127C43.545,40.139 42.674,35.627 40.693,32.17L38.307,33.537C39.997,36.486 40.566,40.042 39.221,42.984L41.723,44.127ZM40.693,32.17C38.399,28.17 34.466,25.409 31.145,22.996L29.529,25.221C32.979,27.728 36.363,30.148 38.307,33.538L40.693,32.17ZM31.163,23.01C29.601,21.835 28.344,20.302 27.498,18.539L25.019,19.729C26.055,21.889 27.596,23.768 29.51,25.208L31.163,23.01ZM27.498,18.539C26.653,16.777 26.243,14.836 26.304,12.882L23.556,12.796C23.481,15.191 23.983,17.569 25.019,19.729L27.498,18.539ZM26.303,12.913C26.442,10.349 27.65,8.501 29.455,7.146C31.302,5.76 33.776,4.896 36.318,4.453L35.845,1.744C33.056,2.23 30.119,3.209 27.804,4.946C25.449,6.715 23.746,9.272 23.557,12.764L26.303,12.913ZM36.335,4.45C41.17,3.541 46.131,3.541 50.966,4.45L51.473,1.747C46.303,0.776 40.998,0.776 35.827,1.747L36.335,4.45ZM50.947,4.446C53.252,4.912 55.666,5.526 57.658,6.589C59.625,7.637 61.073,9.06 61.66,11.127L64.305,10.375C63.451,7.369 61.344,5.437 58.952,4.162C56.587,2.901 53.84,2.225 51.492,1.751L50.947,4.446ZM61.659,11.122C62.598,14.468 61.415,18.21 59.17,21.074L61.334,22.771C63.939,19.448 65.552,14.816 64.306,10.379L61.659,11.122ZM59.172,21.071C57.799,22.814 55.919,24.083 53.817,25.515C51.783,26.902 49.539,28.444 47.904,30.674L50.122,32.3C51.436,30.508 53.283,29.208 55.366,27.788C57.382,26.414 59.647,24.911 61.332,22.774L59.172,21.071ZM47.908,30.67C45.264,34.245 44.05,40.014 46.849,44.268L49.146,42.756C47.183,39.773 47.913,35.289 50.119,32.305L47.908,30.67ZM42.079,24.522C41.415,23.222 40.318,22.304 39.296,21.589C38.781,21.228 38.24,20.889 37.753,20.58C37.253,20.262 36.802,19.971 36.4,19.672L34.758,21.878C35.252,22.245 35.781,22.585 36.279,22.902C36.79,23.226 37.267,23.525 37.719,23.841C38.633,24.482 39.278,25.083 39.63,25.773L42.079,24.522ZM36.353,19.638C35.405,18.993 34.63,18.124 34.095,17.109L31.662,18.391C32.406,19.804 33.486,21.013 34.805,21.911L36.353,19.638ZM34.095,17.109C33.56,16.094 33.281,14.963 33.284,13.815L30.534,13.808C30.53,15.405 30.917,16.979 31.662,18.391L34.095,17.109ZM33.282,13.89C33.357,12.583 34.005,11.624 35.064,10.882C36.164,10.112 37.672,9.613 39.264,9.353L38.82,6.639C37.004,6.936 35.05,7.535 33.487,8.629C31.884,9.752 30.669,11.422 30.537,13.733L33.282,13.89ZM39.28,9.35C42.323,8.815 45.437,8.815 48.48,9.35L48.956,6.642C45.598,6.051 42.162,6.051 38.803,6.642L39.28,9.35ZM48.461,9.347C49.933,9.627 51.412,9.985 52.618,10.59C53.804,11.185 54.598,11.951 54.934,13.005L57.554,12.17C56.918,10.174 55.439,8.928 53.851,8.132C52.283,7.346 50.485,6.933 48.976,6.645L48.461,9.347ZM54.934,13.005C55.657,15.273 54.318,18.008 52.06,19.652L53.678,21.875C56.466,19.846 58.775,16.001 57.554,12.17L54.934,13.005ZM52.058,19.654C51.657,19.946 51.208,20.231 50.705,20.547C50.217,20.853 49.675,21.19 49.156,21.553C48.128,22.272 47.027,23.2 46.365,24.519L48.822,25.753C49.175,25.051 49.822,24.443 50.732,23.806C51.183,23.491 51.659,23.195 52.167,22.876C52.662,22.566 53.19,22.232 53.68,21.874L52.058,19.654ZM58.383,7.097C59.343,7.755 60.422,7.893 61.383,7.817C62.335,7.742 63.261,7.45 64.036,7.142L63.021,4.587C62.366,4.847 61.729,5.031 61.166,5.076C60.612,5.12 60.222,5.023 59.937,4.828L58.383,7.097ZM64.042,7.14C65.325,6.624 66.575,5.979 67.777,5.34C68.998,4.69 70.156,4.054 71.341,3.495C73.701,2.384 75.949,1.692 78.336,2.003L78.691,-0.724C75.53,-1.135 72.705,-0.187 70.169,1.008C68.906,1.603 67.661,2.286 66.485,2.912C65.291,3.547 64.152,4.132 63.016,4.589L64.042,7.14ZM78.334,2.002C80.576,2.297 82.058,3.361 82.99,4.806C83.948,6.292 84.381,8.277 84.277,10.426C84.064,14.814 81.688,19.177 78.342,20.616L79.428,23.142C84.067,21.148 86.78,15.586 87.023,10.559C87.147,8 86.649,5.406 85.301,3.316C83.927,1.184 81.727,-0.325 78.693,-0.724L78.334,2.002ZM78.342,20.616C77.386,21.027 76.35,21.221 75.309,21.183L75.209,23.931C76.656,23.984 78.097,23.714 79.428,23.142L78.342,20.616ZM75.313,21.183C75.121,21.175 74.651,21.113 74.409,21.066L73.887,23.766C74.207,23.828 74.825,23.916 75.205,23.931L75.313,21.183ZM72.761,22.29C72.889,23.35 71.985,24.633 70.306,24.836L70.637,27.566C73.473,27.222 75.842,24.855 75.491,21.959L72.761,22.29ZM70.306,24.836C68.627,25.04 67.444,24.011 67.316,22.951L64.585,23.282C64.936,26.177 67.801,27.91 70.637,27.566L70.306,24.836ZM67.316,22.951C67.187,21.891 68.091,20.608 69.77,20.404L69.439,17.674C66.603,18.018 64.235,20.386 64.585,23.282L67.316,22.951ZM69.77,20.404C71.449,20.201 72.633,21.23 72.761,22.29L75.491,21.959C75.14,19.063 72.275,17.33 69.439,17.674L69.77,20.404ZM28.063,4.828C27.778,5.023 27.388,5.12 26.834,5.076C26.271,5.031 25.635,4.847 24.979,4.587L23.964,7.142C24.739,7.45 25.665,7.742 26.617,7.817C27.578,7.893 28.657,7.755 29.617,7.097L28.063,4.828ZM24.984,4.589C23.848,4.132 22.709,3.547 21.515,2.912C20.34,2.286 19.095,1.603 17.831,1.008C15.295,-0.187 12.47,-1.135 9.309,-0.724L9.664,2.003C12.051,1.692 14.3,2.384 16.659,3.495C17.844,4.054 19.002,4.69 20.223,5.34C21.425,5.979 22.675,6.624 23.958,7.14L24.984,4.589ZM9.307,-0.724C6.274,-0.325 4.073,1.184 2.699,3.316C1.351,5.406 0.853,8 0.977,10.559C1.22,15.586 3.933,21.148 8.572,23.142L9.658,20.616C6.313,19.177 3.936,14.814 3.724,10.426C3.62,8.277 4.052,6.292 5.01,4.806C5.942,3.361 7.424,2.297 9.666,2.002L9.307,-0.724ZM8.572,23.142C9.903,23.714 11.344,23.984 12.791,23.931L12.691,21.183C11.651,21.221 10.615,21.027 9.658,20.616L8.572,23.142ZM12.795,23.931C12.862,23.928 13.153,23.924 13.383,23.905C13.613,23.886 14.012,23.839 14.393,23.657L13.211,21.174C13.267,21.148 13.295,21.145 13.272,21.149C13.252,21.154 13.214,21.159 13.153,21.165C13.092,21.17 13.024,21.173 12.944,21.175C12.904,21.177 12.866,21.177 12.822,21.179C12.781,21.18 12.734,21.181 12.688,21.183L12.795,23.931ZM18.165,20.307C19.844,20.51 20.748,21.793 20.619,22.853L23.349,23.184C23.7,20.288 21.332,17.921 18.496,17.577L18.165,20.307ZM20.619,22.853C20.491,23.913 19.307,24.943 17.629,24.739L17.297,27.469C20.134,27.813 22.999,26.08 23.349,23.184L20.619,22.853ZM17.629,24.739C15.95,24.535 15.046,23.252 15.174,22.192L12.444,21.862C12.093,24.757 14.461,27.125 17.297,27.469L17.629,24.739ZM15.174,22.192C15.302,21.133 16.486,20.103 18.165,20.307L18.496,17.577C15.66,17.233 12.795,18.966 12.444,21.862L15.174,22.192Z" fill="#FFFFFF"/>
</svg>
