<svg width="124" height="124" viewBox="0 0 124 124" fill="none" xmlns="http://www.w3.org/2000/svg" xmlns:xlink="http://www.w3.org/1999/xlink">
<path d="M92.259,22.867L91.553,22.159C91.365,22.347 91.259,22.601 91.259,22.867C91.259,23.132 91.365,23.387 91.553,23.574L92.259,22.867ZM99.216,15.921L99.922,15.213C99.532,14.824 98.899,14.824 98.509,15.213L99.216,15.921ZM107.24,23.933L107.947,24.641C108.135,24.453 108.24,24.199 108.24,23.933C108.24,23.668 108.135,23.413 107.947,23.226L107.24,23.933ZM100.284,30.879L99.577,31.587C99.968,31.976 100.6,31.976 100.99,31.587L100.284,30.879ZM103.439,18.308C103.048,18.698 103.048,19.331 103.438,19.722C103.828,20.113 104.461,20.114 104.852,19.723L103.439,18.308ZM122.187,2.416C122.578,2.026 122.578,1.392 122.188,1.002C121.798,0.611 121.165,0.61 120.774,1L122.187,2.416ZM42.258,102.169C41.867,102.559 41.867,103.192 42.257,103.583C42.647,103.974 43.281,103.974 43.671,103.584L42.258,102.169ZM95.082,50.841L95.788,51.548L95.799,51.538L95.082,50.841ZM96.441,48.371L97.414,48.603L97.419,48.581L96.441,48.371ZM100.218,30.818L101.196,31.028C101.267,30.696 101.165,30.35 100.925,30.11L100.218,30.818ZM92.193,22.805L92.899,22.098C92.659,21.858 92.315,21.756 91.983,21.828L92.193,22.805ZM74.613,26.576L74.403,25.598C74.392,25.601 74.381,25.603 74.369,25.606L74.613,26.576ZM72.215,27.933L72.921,28.641L72.921,28.641L72.215,27.933ZM19.391,79.262C19,79.652 19,80.285 19.39,80.676C19.78,81.067 20.413,81.067 20.804,80.677L19.391,79.262ZM31.643,68.628C31.252,68.238 30.619,68.238 30.229,68.629C29.838,69.02 29.839,69.653 30.23,70.043L31.643,68.628ZM53.04,92.819C53.431,93.209 54.064,93.208 54.455,92.817C54.845,92.427 54.844,91.793 54.454,91.403L53.04,92.819ZM1.298,102.357C0.907,101.967 0.274,101.967 -0.116,102.358C-0.507,102.749 -0.506,103.382 -0.115,103.772L1.298,102.357ZM19.448,123.305C19.838,123.695 20.472,123.694 20.862,123.304C21.252,122.913 21.252,122.28 20.861,121.889L19.448,123.305ZM48.093,109.409C48.484,109.8 49.117,109.799 49.507,109.409C49.897,109.018 49.897,108.385 49.506,107.995L48.093,109.409ZM15.026,73.549C14.635,73.159 14.002,73.159 13.612,73.55C13.221,73.941 13.222,74.574 13.612,74.964L15.026,73.549ZM43.048,81.431C43.439,81.041 43.44,80.408 43.049,80.017C42.659,79.626 42.026,79.625 41.635,80.016L43.048,81.431ZM9.572,112.029C9.181,112.419 9.18,113.052 9.571,113.443C9.961,113.834 10.594,113.835 10.985,113.444L9.572,112.029ZM67.823,32.486C67.432,32.096 66.799,32.096 66.409,32.487C66.018,32.878 66.019,33.511 66.41,33.901L67.823,32.486ZM73.812,41.292C74.203,41.682 74.836,41.682 75.226,41.291C75.616,40.9 75.616,40.267 75.225,39.877L73.812,41.292ZM56.002,44.288C55.611,43.898 54.978,43.899 54.588,44.289C54.198,44.68 54.198,45.313 54.589,45.704L56.002,44.288ZM61.991,53.094C62.382,53.484 63.015,53.484 63.405,53.093C63.795,52.702 63.795,52.069 63.404,51.679L61.991,53.094ZM44.277,55.997C43.886,55.606 43.253,55.606 42.862,55.997C42.472,56.387 42.471,57.02 42.862,57.411L44.277,55.997ZM50.509,65.065C50.9,65.456 51.533,65.456 51.923,65.066C52.314,64.676 52.314,64.042 51.924,63.652L50.509,65.065ZM92.966,23.574L99.922,16.629L98.509,15.213L91.553,22.159L92.966,23.574ZM98.509,16.629L106.534,24.641L107.947,23.226L99.922,15.213L98.509,16.629ZM106.534,23.226L99.577,30.171L100.99,31.587L107.947,24.641L106.534,23.226ZM100.99,30.171L92.966,22.159L91.553,23.574L99.577,31.587L100.99,30.171ZM104.852,19.723L122.187,2.416L120.774,1L103.439,18.308L104.852,19.723ZM43.671,103.584L95.788,51.548L94.375,50.133L42.258,102.169L43.671,103.584ZM95.799,51.538C96.592,50.723 97.15,49.709 97.414,48.603L95.469,48.138C95.288,48.893 94.907,49.586 94.365,50.143L95.799,51.538ZM97.419,48.581L101.196,31.028L99.24,30.608L95.464,48.16L97.419,48.581ZM100.925,30.11L92.899,22.098L91.486,23.513L99.511,31.526L100.925,30.11ZM91.983,21.828L74.403,25.598L74.822,27.554L92.402,23.783L91.983,21.828ZM74.369,25.606C73.287,25.878 72.298,26.437 71.508,27.226L72.921,28.641C73.455,28.108 74.124,27.73 74.856,27.546L74.369,25.606ZM71.508,27.226L19.391,79.262L20.804,80.677L72.921,28.641L71.508,27.226ZM30.23,70.043L53.04,92.819L54.454,91.403L31.643,68.628L30.23,70.043ZM-0.115,103.772L19.448,123.305L20.861,121.889L1.298,102.357L-0.115,103.772ZM49.506,107.995L15.026,73.549L13.612,74.964L48.093,109.409L49.506,107.995ZM41.635,80.016L9.572,112.029L10.985,113.444L43.048,81.431L41.635,80.016ZM66.41,33.901L73.812,41.292L75.225,39.877L67.823,32.486L66.41,33.901ZM54.589,45.704L61.991,53.094L63.404,51.679L56.002,44.288L54.589,45.704ZM42.862,57.411L50.509,65.065L51.924,63.652L44.277,55.997L42.862,57.411Z" fill="#FFFFFF"/>
</svg>
