<svg width="40" height="40" viewBox="0 0 40 40" fill="none" xmlns="http://www.w3.org/2000/svg" xmlns:xlink="http://www.w3.org/1999/xlink">
<path d="M17.758,1.457C17.964,1.02 18.283,0.652 18.68,0.394C19.076,0.136 19.533,0 20,0C20.467,0 20.924,0.136 21.32,0.394C21.717,0.652 22.036,1.02 22.242,1.457L27.067,11.67L37.859,13.31C38.321,13.38 38.755,13.584 39.112,13.898C39.468,14.212 39.734,14.624 39.878,15.088C40.022,15.552 40.039,16.048 39.927,16.521C39.815,16.995 39.579,17.426 39.244,17.766L31.435,25.716L33.28,36.947C33.358,37.427 33.307,37.921 33.131,38.373C32.955,38.824 32.662,39.215 32.285,39.501C31.907,39.788 31.461,39.958 30.996,39.993C30.53,40.028 30.065,39.927 29.652,39.7L20.002,34.398L10.348,39.7C9.935,39.926 9.47,40.027 9.004,39.992C8.539,39.956 8.093,39.786 7.716,39.499C7.339,39.212 7.046,38.821 6.871,38.37C6.695,37.918 6.644,37.425 6.723,36.944L8.565,25.716L0.756,17.766C0.421,17.426 0.185,16.995 0.073,16.521C-0.039,16.048 -0.022,15.552 0.122,15.088C0.266,14.624 0.532,14.212 0.888,13.898C1.245,13.584 1.679,13.38 2.141,13.31L12.933,11.672L17.758,1.455L17.758,1.457Z" fill="#EF802F"/>
</svg>
