<svg width="72" height="86" viewBox="0 0 72 86" fill="none" xmlns="http://www.w3.org/2000/svg" xmlns:xlink="http://www.w3.org/1999/xlink">
<path d="M57.117,49.782C56.359,49.782 55.744,50.396 55.744,51.154C55.744,51.912 56.359,52.526 57.117,52.526L57.117,49.782ZM67.515,84.425C67.515,85.183 68.13,85.798 68.888,85.798C69.645,85.798 70.26,85.183 70.26,84.425L67.515,84.425ZM-0.706,84.425C-0.706,85.183 -0.091,85.798 0.667,85.798C1.425,85.798 2.039,85.183 2.039,84.425L-0.706,84.425ZM13.906,52.526C14.664,52.526 15.278,51.912 15.278,51.154C15.278,50.396 14.664,49.782 13.906,49.782L13.906,52.526ZM51.415,30.815C51.546,30.068 51.047,29.357 50.3,29.226C49.554,29.095 48.842,29.594 48.711,30.341L51.415,30.815ZM34.777,43.435L34.777,44.807L34.778,44.807L34.777,43.435ZM20.855,30.343C20.725,29.596 20.014,29.096 19.267,29.226C18.521,29.356 18.021,30.066 18.151,30.813L20.855,30.343ZM17.687,21.343L16.315,21.343C16.315,21.802 16.544,22.23 16.926,22.485C17.308,22.739 17.792,22.786 18.216,22.609L17.687,21.343ZM17.687,18.126L16.315,18.125L16.315,18.126L17.687,18.126ZM34.789,1.021L34.789,2.394L34.789,2.394L34.789,1.021ZM51.879,18.126L53.251,18.126L51.879,18.126ZM50.506,23.553C50.506,24.311 51.121,24.926 51.879,24.926C52.637,24.926 53.251,24.311 53.251,23.553L50.506,23.553ZM17.687,21.396C18.445,21.396 19.06,20.781 19.06,20.024C19.06,19.266 18.445,18.651 17.687,18.651L17.687,21.396ZM19.075,31.915C19.833,31.915 20.447,31.301 20.447,30.543C20.447,29.785 19.833,29.171 19.075,29.171L19.075,31.915ZM51.867,18.651C51.109,18.651 50.495,19.266 50.495,20.024C50.495,20.781 51.109,21.396 51.867,21.396L51.867,18.651ZM50.294,29.205C49.537,29.205 48.922,29.82 48.922,30.578C48.922,31.336 49.537,31.95 50.294,31.95L50.294,29.205ZM30.742,10.384L32.06,10.002C31.878,9.372 31.276,8.959 30.623,9.016C29.97,9.073 29.448,9.584 29.377,10.236L30.742,10.384ZM41.819,16.552L43.191,16.552C43.191,16.163 43.026,15.792 42.737,15.532C42.448,15.272 42.062,15.146 41.675,15.187L41.819,16.552ZM51.957,24.865C52.713,24.815 53.286,24.162 53.236,23.405C53.187,22.649 52.533,22.076 51.777,22.126L51.957,24.865ZM49.659,46.738C48.901,46.738 48.286,47.352 48.286,48.11C48.286,48.868 48.901,49.483 49.659,49.483L49.659,46.738ZM57.652,72.02C57.652,72.777 58.267,73.392 59.024,73.392C59.782,73.392 60.397,72.777 60.397,72.02L57.652,72.02ZM20.024,49.546C20.778,49.476 21.333,48.807 21.262,48.052C21.192,47.298 20.523,46.743 19.768,46.813L20.024,49.546ZM39.772,82.285L38.419,82.057C38.307,82.72 38.694,83.367 39.331,83.584C39.968,83.8 40.669,83.523 40.985,82.928L39.772,82.285ZM45.947,45.634L46.364,44.326C45.985,44.205 45.572,44.255 45.232,44.462C44.893,44.669 44.66,45.014 44.594,45.406L45.947,45.634ZM49.358,46.722L50.73,46.725C50.732,46.127 50.345,45.596 49.775,45.414L49.358,46.722ZM49.335,55.262L49.927,56.5C50.402,56.273 50.706,55.793 50.707,55.266L49.335,55.262ZM47.254,56.258L46.662,55.019C46.332,55.177 46.078,55.46 45.958,55.805C45.837,56.15 45.86,56.529 46.02,56.858L47.254,56.258ZM50.283,62.484L51.495,63.127C51.701,62.74 51.709,62.278 51.517,61.883L50.283,62.484ZM29.782,82.285L28.57,82.928C28.886,83.523 29.586,83.8 30.223,83.584C30.861,83.367 31.247,82.72 31.135,82.057L29.782,82.285ZM23.608,45.634L24.961,45.406C24.895,45.014 24.662,44.669 24.322,44.462C23.982,44.255 23.57,44.205 23.191,44.326L23.608,45.634ZM20.196,46.722L19.779,45.414C19.209,45.596 18.822,46.127 18.824,46.725L20.196,46.722ZM20.22,55.262L18.847,55.266C18.849,55.793 19.152,56.273 19.628,56.5L20.22,55.262ZM22.301,56.258L23.535,56.858C23.695,56.529 23.717,56.15 23.597,55.805C23.476,55.46 23.223,55.177 22.893,55.019L22.301,56.258ZM19.271,62.484L18.037,61.883C17.846,62.278 17.854,62.74 18.059,63.127L19.271,62.484ZM25.358,46.571C24.757,46.109 23.896,46.221 23.434,46.822C22.971,47.423 23.083,48.284 23.684,48.747L25.358,46.571ZM45.813,48.747C46.413,48.284 46.525,47.423 46.063,46.822C45.601,46.221 44.739,46.109 44.139,46.571L45.813,48.747ZM23.014,45.214C22.418,45.682 22.314,46.545 22.783,47.141C23.251,47.737 24.113,47.841 24.709,47.373L23.014,45.214ZM27.332,41.202C27.255,40.448 26.582,39.898 25.828,39.975C25.074,40.052 24.524,40.725 24.601,41.479L27.332,41.202ZM44.869,47.556C45.49,47.991 46.345,47.841 46.781,47.221C47.216,46.601 47.067,45.745 46.446,45.309L44.869,47.556ZM44.71,41.485C44.79,40.732 44.244,40.056 43.49,39.976C42.736,39.896 42.061,40.442 41.981,41.195L44.71,41.485ZM6.078,83.148C6.836,83.148 7.45,82.533 7.45,81.775C7.45,81.017 6.836,80.403 6.078,80.403L6.078,83.148ZM4.656,81.775L3.284,81.775C3.284,82.533 3.898,83.148 4.656,83.148L4.656,81.775ZM4.656,72.101L3.284,72.098L3.284,72.101L4.656,72.101ZM19.352,72.101L20.725,72.101L20.725,72.096L19.352,72.101ZM19.352,81.775L19.352,83.148C20.11,83.148 20.725,82.533 20.725,81.775L19.352,81.775ZM17.618,80.403C16.86,80.403 16.245,81.017 16.245,81.775C16.245,82.533 16.86,83.148 17.618,83.148L17.618,80.403ZM57.117,52.526C59.948,52.526 62.508,54.157 64.42,57.087C66.336,60.023 67.515,64.163 67.515,68.802L70.26,68.802C70.26,63.733 68.977,59.048 66.718,55.587C64.456,52.121 61.13,49.782 57.117,49.782L57.117,52.526ZM67.515,68.802L67.515,84.425L70.26,84.425L70.26,68.802L67.515,68.802ZM2.039,84.425L2.039,68.802L-0.706,68.802L-0.706,84.425L2.039,84.425ZM2.039,68.802C2.039,64.199 3.368,60.07 5.441,57.127C7.518,54.179 10.25,52.526 13.097,52.526L13.097,49.782C9.11,49.782 5.627,52.098 3.197,55.547C0.764,59.001 -0.706,63.696 -0.706,68.802L2.039,68.802ZM13.097,52.526L13.906,52.526L13.906,49.782L13.097,49.782L13.097,52.526ZM48.711,30.341C48.136,33.623 46.424,36.597 43.875,38.741L45.642,40.841C48.685,38.282 50.728,34.732 51.415,30.815L48.711,30.341ZM43.875,38.741C41.327,40.885 38.105,42.061 34.776,42.063L34.778,44.807C38.753,44.805 42.599,43.401 45.642,40.841L43.875,38.741ZM34.777,42.063C31.45,42.062 28.229,40.887 25.682,38.743L23.915,40.843C26.956,43.403 30.803,44.807 34.777,44.807L34.777,42.063ZM25.682,38.743C23.135,36.599 21.426,33.624 20.855,30.343L18.151,30.813C18.832,34.731 20.873,38.283 23.915,40.843L25.682,38.743ZM19.06,21.343L19.06,18.126L16.315,18.126L16.315,21.343L19.06,21.343ZM19.06,18.127C19.062,13.953 20.721,9.951 23.671,7.001L21.73,5.06C18.266,8.525 16.318,13.224 16.315,18.125L19.06,18.127ZM23.671,7.001C26.62,4.05 30.619,2.394 34.789,2.394L34.789,-0.351C29.891,-0.351 25.194,1.595 21.73,5.06L23.671,7.001ZM34.789,2.394C38.957,2.394 42.955,4.051 45.902,7.001L47.844,5.061C44.382,1.596 39.686,-0.351 34.789,-0.351L34.789,2.394ZM45.902,7.001C48.85,9.951 50.506,13.953 50.506,18.126L53.251,18.126C53.251,13.226 51.306,8.526 47.844,5.061L45.902,7.001ZM50.506,18.126L50.506,23.553L53.251,23.553L53.251,18.126L50.506,18.126ZM17.687,18.651C16.901,18.651 16.186,18.888 15.6,19.374C15.039,19.84 14.689,20.456 14.463,21.069C14.024,22.259 13.933,23.78 13.933,25.243L16.678,25.243C16.678,23.801 16.783,22.712 17.038,22.018C17.159,21.69 17.28,21.546 17.352,21.487C17.399,21.448 17.479,21.396 17.687,21.396L17.687,18.651ZM13.933,25.243C13.933,26.755 14.093,28.3 14.606,29.516C14.868,30.137 15.251,30.741 15.819,31.195C16.408,31.666 17.123,31.915 17.918,31.915L17.918,29.171C17.725,29.171 17.619,29.12 17.533,29.051C17.425,28.965 17.279,28.79 17.135,28.448C16.836,27.74 16.678,26.635 16.678,25.243L13.933,25.243ZM17.918,31.915L19.075,31.915L19.075,29.171L17.918,29.171L17.918,31.915ZM51.867,21.396C52.07,21.396 52.118,21.445 52.134,21.459C52.18,21.5 52.287,21.626 52.393,21.962C52.618,22.676 52.68,23.78 52.68,25.277L55.425,25.277C55.425,23.835 55.382,22.313 55.01,21.134C54.817,20.524 54.501,19.888 53.951,19.403C53.372,18.891 52.653,18.651 51.867,18.651L51.867,21.396ZM52.68,25.277C52.68,26.691 52.524,27.795 52.228,28.497C52.086,28.835 51.942,29.005 51.838,29.088C51.755,29.154 51.649,29.205 51.451,29.205L51.451,31.95C52.241,31.95 52.955,31.706 53.545,31.238C54.114,30.786 54.497,30.183 54.758,29.563C55.269,28.349 55.425,26.803 55.425,25.277L52.68,25.277ZM51.451,29.205L50.294,29.205L50.294,31.95L51.451,31.95L51.451,29.205ZM18.216,22.609C24.588,19.951 28.055,17.092 29.938,14.788C30.88,13.636 31.417,12.633 31.721,11.883C31.873,11.509 31.967,11.2 32.023,10.97C32.052,10.855 32.071,10.759 32.084,10.686C32.09,10.649 32.095,10.617 32.099,10.592C32.1,10.579 32.102,10.567 32.103,10.557C32.104,10.552 32.104,10.547 32.105,10.543C32.105,10.541 32.105,10.539 32.106,10.537C32.106,10.536 32.106,10.534 32.106,10.534C32.106,10.532 32.106,10.531 30.742,10.384C29.377,10.236 29.378,10.235 29.378,10.233C29.378,10.233 29.378,10.232 29.378,10.231C29.378,10.229 29.378,10.228 29.378,10.226C29.379,10.223 29.379,10.221 29.379,10.218C29.38,10.214 29.38,10.211 29.381,10.209C29.381,10.205 29.381,10.207 29.38,10.214C29.377,10.227 29.371,10.261 29.358,10.314C29.332,10.42 29.279,10.602 29.178,10.85C28.978,11.345 28.582,12.11 27.813,13.05C26.277,14.93 23.216,17.55 17.159,20.076L18.216,22.609ZM30.742,10.384C29.423,10.765 29.424,10.766 29.424,10.766C29.424,10.767 29.424,10.768 29.424,10.768C29.425,10.769 29.425,10.771 29.426,10.772C29.427,10.775 29.428,10.779 29.429,10.783C29.431,10.79 29.434,10.8 29.437,10.811C29.444,10.833 29.453,10.862 29.465,10.897C29.488,10.967 29.522,11.062 29.566,11.179C29.656,11.412 29.791,11.731 29.983,12.106C30.365,12.853 30.981,13.836 31.922,14.788C33.847,16.735 37.024,18.436 41.963,17.917L41.675,15.187C37.595,15.616 35.233,14.233 33.874,12.859C33.174,12.15 32.711,11.413 32.426,10.856C32.284,10.578 32.188,10.349 32.129,10.196C32.1,10.12 32.08,10.063 32.069,10.03C32.064,10.013 32.06,10.002 32.059,9.997C32.058,9.995 32.058,9.994 32.058,9.995C32.058,9.995 32.058,9.996 32.059,9.997C32.059,9.998 32.059,9.999 32.059,9.999C32.059,10 32.06,10.001 32.06,10.001C32.06,10.002 32.06,10.002 30.742,10.384ZM41.819,16.552C40.447,16.552 40.447,16.553 40.447,16.554C40.447,16.554 40.447,16.555 40.447,16.556C40.447,16.557 40.447,16.559 40.447,16.56C40.447,16.564 40.447,16.567 40.447,16.572C40.447,16.58 40.447,16.591 40.447,16.603C40.448,16.627 40.449,16.659 40.451,16.698C40.454,16.775 40.46,16.879 40.472,17.007C40.497,17.262 40.544,17.614 40.637,18.029C40.821,18.854 41.192,19.96 41.946,21.051C43.519,23.328 46.531,25.221 51.957,24.865L51.777,22.126C47.155,22.429 45.143,20.85 44.204,19.491C43.702,18.764 43.445,18.01 43.315,17.43C43.251,17.142 43.22,16.905 43.205,16.747C43.197,16.669 43.194,16.61 43.193,16.576C43.192,16.559 43.191,16.549 43.191,16.544C43.191,16.542 43.191,16.542 43.191,16.543C43.191,16.543 43.191,16.544 43.191,16.546C43.191,16.547 43.191,16.548 43.191,16.549C43.191,16.549 43.191,16.55 43.191,16.55C43.191,16.551 43.191,16.552 41.819,16.552ZM49.659,49.483C52.991,49.483 54.871,50.483 55.975,51.91C57.135,53.409 57.652,55.645 57.652,58.526L60.397,58.526C60.397,55.412 59.856,52.44 58.146,50.23C56.379,47.948 53.577,46.738 49.659,46.738L49.659,49.483ZM57.652,58.526L57.652,72.02L60.397,72.02L60.397,58.526L57.652,58.526ZM19.768,46.813C16.397,47.128 14.015,48.493 12.53,50.712C11.095,52.857 10.626,55.617 10.626,58.503L13.371,58.503C13.371,55.845 13.816,53.727 14.811,52.238C15.758,50.823 17.324,49.798 20.024,49.546L19.768,46.813ZM10.626,58.503L10.626,64.74L13.371,64.74L13.371,58.503L10.626,58.503ZM41.126,82.512L47.3,45.862L44.594,45.406L38.419,82.057L41.126,82.512ZM45.53,46.941L48.941,48.029L49.775,45.414L46.364,44.326L45.53,46.941ZM47.986,46.718L47.963,55.259L50.707,55.266L50.73,46.725L47.986,46.718ZM48.743,54.024L46.662,55.019L47.846,57.496L49.927,56.5L48.743,54.024ZM46.02,56.858L49.049,63.084L51.517,61.883L48.488,55.657L46.02,56.858ZM49.071,61.84L38.56,81.641L40.985,82.928L51.495,63.127L49.071,61.84ZM31.135,82.057L24.961,45.406L22.254,45.862L28.429,82.512L31.135,82.057ZM23.191,44.326L19.779,45.414L20.613,48.029L24.024,46.941L23.191,44.326ZM18.824,46.725L18.847,55.266L21.592,55.259L21.569,46.718L18.824,46.725ZM19.628,56.5L21.709,57.496L22.893,55.019L20.812,54.024L19.628,56.5ZM21.067,55.657L18.037,61.883L20.505,63.084L23.535,56.858L21.067,55.657ZM18.059,63.127L28.57,82.928L30.994,81.641L20.484,61.84L18.059,63.127ZM23.684,48.747C26.856,51.188 30.746,52.512 34.748,52.512L34.748,49.767C31.352,49.767 28.051,48.644 25.358,46.571L23.684,48.747ZM34.748,52.512C38.751,52.512 42.64,51.188 45.813,48.747L44.139,46.571C41.446,48.644 38.145,49.767 34.748,49.767L34.748,52.512ZM24.709,47.373C25.631,46.649 26.355,45.703 26.814,44.624L24.288,43.551C24.01,44.204 23.572,44.776 23.014,45.214L24.709,47.373ZM26.814,44.624C27.272,43.545 27.45,42.368 27.332,41.202L24.601,41.479C24.673,42.185 24.565,42.898 24.288,43.551L26.814,44.624ZM46.446,45.309C45.842,44.885 45.363,44.307 45.057,43.634L42.558,44.769C43.066,45.888 43.864,46.85 44.869,47.556L46.446,45.309ZM45.057,43.634C44.752,42.962 44.632,42.22 44.71,41.485L41.981,41.195C41.851,42.417 42.05,43.651 42.558,44.769L45.057,43.634ZM62.023,76.371C62.023,78.03 60.679,79.373 59.025,79.373L59.025,82.118C62.197,82.118 64.768,79.544 64.768,76.371L62.023,76.371ZM59.025,79.373C57.37,79.373 56.026,78.03 56.026,76.371L53.281,76.371C53.281,79.544 55.852,82.118 59.025,82.118L59.025,79.373ZM56.026,76.371C56.026,74.712 57.37,73.369 59.025,73.369L59.025,70.624C55.852,70.624 53.281,73.198 53.281,76.371L56.026,76.371ZM59.025,73.369C60.679,73.369 62.023,74.712 62.023,76.371L64.768,76.371C64.768,73.198 62.197,70.624 59.025,70.624L59.025,73.369ZM6.078,80.403L4.656,80.403L4.656,83.148L6.078,83.148L6.078,80.403ZM6.028,81.775L6.028,72.101L3.284,72.101L3.284,81.775L6.028,81.775ZM6.028,72.103C6.031,70.516 6.661,68.995 7.781,67.873L5.838,65.934C4.205,67.57 3.287,69.787 3.284,72.098L6.028,72.103ZM7.781,67.873C8.901,66.75 10.418,66.118 12.003,66.113L11.994,63.368C9.683,63.375 7.47,64.298 5.838,65.934L7.781,67.873ZM11.994,66.113C13.58,66.118 15.099,66.75 16.221,67.873L18.163,65.933C16.529,64.297 14.314,63.375 12.003,63.368L11.994,66.113ZM16.221,67.873C17.343,68.995 17.975,70.517 17.98,72.105L20.725,72.096C20.717,69.784 19.797,67.568 18.163,65.933L16.221,67.873ZM17.98,72.101L17.98,81.775L20.725,81.775L20.725,72.101L17.98,72.101ZM19.352,80.403L17.618,80.403L17.618,83.148L19.352,83.148L19.352,80.403Z" fill="#FFFFFF"/>
</svg>
