<svg width="116" height="130" viewBox="0 0 116 130" fill="none" xmlns="http://www.w3.org/2000/svg" xmlns:xlink="http://www.w3.org/1999/xlink">
<path d="M14.666,22.095C15.219,22.095 15.666,21.647 15.666,21.095C15.666,20.543 15.219,20.095 14.666,20.095L14.666,22.095ZM77.463,128.575C78.015,128.575 78.463,128.127 78.463,127.575C78.463,127.022 78.015,126.575 77.463,126.575L77.463,128.575ZM69.946,20.095C69.394,20.095 68.946,20.543 68.946,21.095C68.946,21.647 69.394,22.095 69.946,22.095L69.946,20.095ZM82.558,62.332C82.558,62.884 83.006,63.332 83.558,63.332C84.11,63.332 84.558,62.884 84.558,62.332L82.558,62.332ZM69.946,26.295L69.946,27.295C70.498,27.295 70.946,26.848 70.946,26.295L69.946,26.295ZM65.753,12.41L65.753,13.41L65.753,12.41ZM51.107,12.41L50.196,11.997C50.056,12.307 50.082,12.666 50.266,12.952C50.451,13.237 50.767,13.41 51.107,13.41L51.107,12.41ZM51.846,8.908L50.846,8.908L50.846,8.919L51.846,8.908ZM33.376,8.908L34.376,8.911L34.376,8.908L33.376,8.908ZM34.115,12.41L34.115,13.41C34.453,13.41 34.769,13.239 34.953,12.955C35.138,12.671 35.166,12.314 35.029,12.004L34.115,12.41ZM18.914,12.41L18.914,13.41L18.914,12.41ZM14.722,16.385L13.722,16.385L14.722,16.385ZM14.722,26.295L13.722,26.295C13.722,26.848 14.169,27.295 14.722,27.295L14.722,26.295ZM15.608,80.978C15.056,80.978 14.608,81.426 14.608,81.978C14.608,82.53 15.056,82.978 15.608,82.978L15.608,80.978ZM32.6,82.978C33.153,82.978 33.6,82.53 33.6,81.978C33.6,81.426 33.153,80.978 32.6,80.978L32.6,82.978ZM15.608,95.319C15.056,95.319 14.608,95.767 14.608,96.319C14.608,96.871 15.056,97.319 15.608,97.319L15.608,95.319ZM54.487,97.319C55.039,97.319 55.487,96.871 55.487,96.319C55.487,95.767 55.039,95.319 54.487,95.319L54.487,97.319ZM15.608,109.835C15.056,109.835 14.608,110.283 14.608,110.835C14.608,111.387 15.056,111.835 15.608,111.835L15.608,109.835ZM56.389,111.835C56.941,111.835 57.389,111.387 57.389,110.835C57.389,110.283 56.941,109.835 56.389,109.835L56.389,111.835ZM19.376,50.65C18.824,50.65 18.376,51.098 18.376,51.65C18.376,52.203 18.824,52.65 19.376,52.65L19.376,50.65ZM28.445,51.65L29.305,51.141C29.125,50.837 28.798,50.65 28.445,50.65L28.445,51.65ZM34.761,62.314L33.901,62.824C34.09,63.143 34.441,63.332 34.812,63.313C35.183,63.294 35.513,63.071 35.669,62.734L34.761,62.314ZM44.642,40.969L45.602,40.687C45.484,40.287 45.131,40.002 44.716,39.972C44.301,39.941 43.91,40.171 43.735,40.549L44.642,40.969ZM48.613,54.469L47.654,54.752C47.779,55.177 48.17,55.469 48.613,55.469L48.613,54.469ZM65.901,55.469C66.453,55.469 66.901,55.022 66.901,54.469C66.901,53.917 66.453,53.469 65.901,53.469L65.901,55.469ZM84.613,88.895C84.613,88.342 84.166,87.895 83.613,87.895C83.061,87.895 82.613,88.342 82.613,88.895L84.613,88.895ZM82.613,111.605C82.613,112.158 83.061,112.605 83.613,112.605C84.166,112.605 84.613,112.158 84.613,111.605L82.613,111.605ZM95.6,101.259C96.153,101.259 96.6,100.811 96.6,100.259C96.6,99.706 96.153,99.259 95.6,99.259L95.6,101.259ZM71.645,99.259C71.093,99.259 70.645,99.706 70.645,100.259C70.645,100.811 71.093,101.259 71.645,101.259L71.645,99.259ZM14.666,20.095L10.972,20.095L10.972,22.095L14.666,22.095L14.666,20.095ZM10.972,20.095C4.825,20.095 0.036,25.291 0.036,31.601L2.036,31.601C2.036,26.284 6.038,22.095 10.972,22.095L10.972,20.095ZM0.036,31.601L0.036,117.069L2.036,117.069L2.036,31.601L0.036,31.601ZM0.036,117.069C0.036,123.363 4.883,128.575 10.972,128.575L10.972,126.575C6.091,126.575 2.036,122.366 2.036,117.069L0.036,117.069ZM10.972,128.575L77.463,128.575L77.463,126.575L10.972,126.575L10.972,128.575ZM69.946,22.095L73.64,22.095L73.64,20.095L69.946,20.095L69.946,22.095ZM73.64,22.095C78.572,22.095 82.558,26.281 82.558,31.601L84.558,31.601C84.558,25.294 79.79,20.095 73.64,20.095L73.64,22.095ZM82.558,31.601L82.558,62.332L84.558,62.332L84.558,31.601L82.558,31.601ZM70.946,26.295L70.946,16.385L68.946,16.385L68.946,26.295L70.946,26.295ZM70.946,16.385C70.946,15.047 70.385,13.777 69.406,12.848L68.03,14.3C68.623,14.862 68.946,15.613 68.946,16.385L70.946,16.385ZM69.406,12.848C68.428,11.922 67.114,11.41 65.753,11.41L65.753,13.41C66.617,13.41 67.435,13.735 68.03,14.3L69.406,12.848ZM65.753,11.41L51.107,11.41L51.107,13.41L65.753,13.41L65.753,11.41ZM52.018,12.822C52.578,11.584 52.861,10.247 52.846,8.897L50.846,8.919C50.857,9.975 50.637,11.023 50.196,11.997L52.018,12.822ZM52.846,8.908C52.846,6.303 51.754,3.816 49.829,1.991L48.453,3.443C49.992,4.902 50.846,6.869 50.846,8.908L52.846,8.908ZM49.829,1.991C47.906,0.168 45.309,-0.847 42.611,-0.847L42.611,1.153C44.811,1.153 46.912,1.982 48.453,3.443L49.829,1.991ZM42.611,-0.847C39.913,-0.847 37.316,0.168 35.393,1.991L36.769,3.443C38.31,1.982 40.41,1.153 42.611,1.153L42.611,-0.847ZM35.393,1.991C33.468,3.816 32.376,6.303 32.376,8.908L34.376,8.908C34.376,6.869 35.23,4.902 36.769,3.443L35.393,1.991ZM32.376,8.904C32.372,10.249 32.653,11.579 33.201,12.815L35.029,12.004C34.594,11.023 34.372,9.972 34.376,8.911L32.376,8.904ZM34.115,11.41L18.914,11.41L18.914,13.41L34.115,13.41L34.115,11.41ZM18.914,11.41C17.554,11.41 16.239,11.922 15.262,12.848L16.638,14.3C17.233,13.735 18.051,13.41 18.914,13.41L18.914,11.41ZM15.262,12.848C14.282,13.777 13.722,15.047 13.722,16.385L15.722,16.385C15.722,15.613 16.044,14.862 16.638,14.3L15.262,12.848ZM13.722,16.385L13.722,26.295L15.722,26.295L15.722,16.385L13.722,16.385ZM14.722,27.295L69.946,27.295L69.946,25.295L14.722,25.295L14.722,27.295ZM15.608,82.978L32.6,82.978L32.6,80.978L15.608,80.978L15.608,82.978ZM15.608,97.319L54.487,97.319L54.487,95.319L15.608,95.319L15.608,97.319ZM15.608,111.835L56.389,111.835L56.389,109.835L15.608,109.835L15.608,111.835ZM19.376,52.65L28.445,52.65L28.445,50.65L19.376,50.65L19.376,52.65ZM27.584,52.16L33.901,62.824L35.622,61.804L29.305,51.141L27.584,52.16ZM35.669,62.734L45.55,41.389L43.735,40.549L33.854,61.894L35.669,62.734ZM43.683,41.251L47.654,54.752L49.573,54.187L45.602,40.687L43.683,41.251ZM48.613,55.469L65.901,55.469L65.901,53.469L48.613,53.469L48.613,55.469ZM112.036,100.259C112.036,115.062 99.361,127.153 83.613,127.153L83.613,129.153C100.364,129.153 114.036,116.266 114.036,100.259L112.036,100.259ZM83.613,127.153C67.865,127.153 55.191,115.062 55.191,100.259L53.191,100.259C53.191,116.266 66.863,129.153 83.613,129.153L83.613,127.153ZM55.191,100.259C55.191,85.455 67.865,73.365 83.613,73.365L83.613,71.365C66.863,71.365 53.191,84.252 53.191,100.259L55.191,100.259ZM83.613,73.365C99.361,73.365 112.036,85.455 112.036,100.259L114.036,100.259C114.036,84.252 100.364,71.365 83.613,71.365L83.613,73.365ZM82.613,88.895L82.613,111.605L84.613,111.605L84.613,88.895L82.613,88.895ZM95.6,99.259L71.645,99.259L71.645,101.259L95.6,101.259L95.6,99.259Z" fill="#FFFFFF"/>
</svg>
