<svg width="32" height="32" viewBox="0 0 32 32" fill="none" xmlns="http://www.w3.org/2000/svg" xmlns:xlink="http://www.w3.org/1999/xlink">
<path d="M5.714,0C4.199,0 2.745,0.602 1.674,1.674C0.602,2.745 0,4.199 0,5.714L0,6.857L32,6.857L32,5.714C32,4.199 31.398,2.745 30.326,1.674C29.255,0.602 27.801,0 26.286,0L5.714,0ZM32,9.143L0,9.143L0,26.286C0,27.801 0.602,29.255 1.674,30.326C2.745,31.398 4.199,32 5.714,32L26.286,32C27.801,32 29.255,31.398 30.326,30.326C31.398,29.255 32,27.801 32,26.286L32,9.143ZM11.429,16C11.429,16.606 11.188,17.188 10.759,17.616C10.33,18.045 9.749,18.286 9.143,18.286C8.537,18.286 7.955,18.045 7.527,17.616C7.098,17.188 6.857,16.606 6.857,16C6.857,15.394 7.098,14.812 7.527,14.384C7.955,13.955 8.537,13.714 9.143,13.714C9.749,13.714 10.33,13.955 10.759,14.384C11.188,14.812 11.429,15.394 11.429,16L11.429,16ZM9.143,25.143C8.537,25.143 7.955,24.902 7.527,24.473C7.098,24.045 6.857,23.463 6.857,22.857C6.857,22.251 7.098,21.67 7.527,21.241C7.955,20.812 8.537,20.571 9.143,20.571C9.749,20.571 10.33,20.812 10.759,21.241C11.188,21.67 11.429,22.251 11.429,22.857C11.429,23.463 11.188,24.045 10.759,24.473C10.33,24.902 9.749,25.143 9.143,25.143ZM18.286,16C18.286,16.606 18.045,17.188 17.616,17.616C17.188,18.045 16.606,18.286 16,18.286C15.394,18.286 14.812,18.045 14.384,17.616C13.955,17.188 13.714,16.606 13.714,16C13.714,15.394 13.955,14.812 14.384,14.384C14.812,13.955 15.394,13.714 16,13.714C16.606,13.714 17.188,13.955 17.616,14.384C18.045,14.812 18.286,15.394 18.286,16L18.286,16ZM16,25.143C15.394,25.143 14.812,24.902 14.384,24.473C13.955,24.045 13.714,23.463 13.714,22.857C13.714,22.251 13.955,21.67 14.384,21.241C14.812,20.812 15.394,20.571 16,20.571C16.606,20.571 17.188,20.812 17.616,21.241C18.045,21.67 18.286,22.251 18.286,22.857C18.286,23.463 18.045,24.045 17.616,24.473C17.188,24.902 16.606,25.143 16,25.143ZM25.143,16C25.143,16.606 24.902,17.188 24.473,17.616C24.045,18.045 23.463,18.286 22.857,18.286C22.251,18.286 21.67,18.045 21.241,17.616C20.812,17.188 20.571,16.606 20.571,16C20.571,15.394 20.812,14.812 21.241,14.384C21.67,13.955 22.251,13.714 22.857,13.714C23.463,13.714 24.045,13.955 24.473,14.384C24.902,14.812 25.143,15.394 25.143,16L25.143,16Z" fill="#1648CE"/>
</svg>
