<svg width="102" height="86" viewBox="0 0 102 86" fill="none" xmlns="http://www.w3.org/2000/svg" xmlns:xlink="http://www.w3.org/1999/xlink">
<path d="M89.745,39.387C90.069,38.702 89.777,37.884 89.092,37.559C88.407,37.235 87.589,37.527 87.264,38.212L89.745,39.387ZM78.886,56.317L77.675,55.673L77.673,55.677L78.886,56.317ZM70.462,82.521L71.009,83.78L71.01,83.779L70.462,82.521ZM58.232,76.043L59.463,75.436L59.46,75.43L58.232,76.043ZM51.676,67.947L51.427,69.297L51.428,69.297L51.676,67.947ZM44.03,74.584L45.258,75.196L45.266,75.18L44.03,74.584ZM35.917,83.783L35.384,82.518L35.377,82.521L35.917,83.783ZM24.569,81.325L23.496,82.18C23.511,82.199 23.527,82.218 23.543,82.236L24.569,81.325ZM21.646,70.707L22.998,70.943C23.003,70.915 23.007,70.887 23.01,70.858L21.646,70.707ZM19.916,60.089L18.708,60.741L18.717,60.756L19.916,60.089ZM6.821,39.246L5.621,39.913L5.622,39.913L6.821,39.246ZM8.741,6.209L9.554,7.315L9.572,7.301L8.741,6.209ZM27.683,1.346L27.86,-0.014C27.848,-0.016 27.836,-0.017 27.824,-0.019L27.683,1.346ZM46.331,9.113L46.968,7.898C46.952,7.889 46.935,7.881 46.918,7.873L46.331,9.113ZM61.444,14.765C62.199,14.826 62.861,14.262 62.921,13.507C62.982,12.751 62.419,12.09 61.663,12.029L61.444,14.765ZM47.192,8.058C46.667,8.605 46.685,9.473 47.232,9.998C47.778,10.523 48.647,10.505 49.172,9.958L47.192,8.058ZM59.599,2.437L59.247,1.111L59.226,1.117L59.599,2.437ZM84.249,5.907L85.003,4.76L84.992,4.752L84.249,5.907ZM90.648,16.597C90.782,17.343 91.495,17.839 92.241,17.705C92.987,17.571 93.484,16.858 93.35,16.112L90.648,16.597ZM90.823,20.73L92.064,20.144C91.837,19.664 91.352,19.357 90.821,19.358C90.289,19.359 89.806,19.666 89.58,20.148L90.823,20.73ZM93.279,25.934L92.038,26.52C92.21,26.884 92.532,27.154 92.921,27.259L93.279,25.934ZM100.129,27.787L100.49,29.111C101.087,28.948 101.502,28.405 101.501,27.786C101.501,27.166 101.085,26.624 100.487,26.462L100.129,27.787ZM93.279,29.653L92.918,28.329C92.531,28.435 92.209,28.704 92.038,29.067L93.279,29.653ZM90.823,34.857L89.58,35.44C89.806,35.921 90.289,36.229 90.821,36.23C91.352,36.23 91.837,35.924 92.064,35.443L90.823,34.857ZM88.383,29.653L89.626,29.071C89.455,28.706 89.133,28.435 88.744,28.329L88.383,29.653ZM81.533,27.787L81.175,26.462C80.577,26.624 80.161,27.166 80.161,27.786C80.16,28.405 80.575,28.948 81.173,29.111L81.533,27.787ZM88.383,25.934L88.742,27.259C89.131,27.153 89.455,26.882 89.626,26.517L88.383,25.934ZM87.264,38.212C85.879,41.137 84.275,44.013 82.615,46.911C80.963,49.795 79.245,52.717 77.675,55.673L80.098,56.961C81.642,54.056 83.323,51.196 84.997,48.275C86.662,45.368 88.311,42.415 89.745,39.387L87.264,38.212ZM77.673,55.677C75.373,60.038 75.43,64.948 75.147,69.116L77.886,69.302C78.191,64.797 78.145,60.666 80.1,56.957L77.673,55.677ZM75.147,69.116C74.997,71.338 74.867,73.88 74.14,76.175C73.429,78.421 72.195,80.269 69.914,81.263L71.01,83.779C74.247,82.369 75.893,79.729 76.757,77.004C77.604,74.328 77.742,71.417 77.886,69.302L75.147,69.116ZM69.915,81.263C67.543,82.294 65.415,81.714 63.576,80.398C61.692,79.051 60.231,76.994 59.463,75.436L57.001,76.649C57.911,78.495 59.633,80.952 61.979,82.63C64.368,84.34 67.517,85.298 71.009,83.78L69.915,81.263ZM59.46,75.43C59.179,74.866 58.898,74.182 58.509,73.311C58.138,72.479 57.696,71.546 57.15,70.653C56.073,68.892 54.458,67.064 51.924,66.598L51.428,69.297C52.821,69.554 53.887,70.577 54.808,72.085C55.261,72.826 55.647,73.632 56.003,74.43C56.342,75.188 56.689,76.024 57.004,76.655L59.46,75.43ZM51.925,66.598C48.976,66.055 46.891,67.497 45.505,69.196C44.175,70.827 43.313,72.912 42.794,73.987L45.266,75.18C45.889,73.89 46.567,72.237 47.632,70.931C48.643,69.692 49.809,68.999 51.427,69.297L51.925,66.598ZM42.802,73.971C41.048,77.49 39.319,80.861 35.384,82.518L36.449,85.048C41.441,82.946 43.553,78.616 45.258,75.196L42.802,73.971ZM35.377,82.521C31.747,84.076 27.804,82.902 25.596,80.414L23.543,82.236C26.49,85.557 31.68,87.09 36.457,85.044L35.377,82.521ZM25.643,80.47C23.328,77.564 22.428,74.209 22.998,70.943L20.294,70.471C19.577,74.583 20.74,78.719 23.496,82.18L25.643,80.47ZM23.01,70.858C23.236,68.811 23.366,66.997 23.128,65.166C22.885,63.309 22.274,61.505 21.115,59.421L18.717,60.756C19.737,62.589 20.216,64.064 20.406,65.521C20.6,67.005 20.505,68.542 20.282,70.556L23.01,70.858ZM21.123,59.436C19.159,55.803 16.835,52.314 14.541,48.889C12.235,45.446 9.96,42.069 8.021,38.58L5.622,39.913C7.627,43.521 9.97,46.997 12.261,50.417C14.564,53.855 16.815,57.239 18.709,60.741L21.123,59.436ZM8.021,38.58C5.297,33.674 2.993,27.75 2.736,22.099C2.483,16.515 4.215,11.237 9.554,7.315L7.929,5.103C1.712,9.67 -0.292,15.91 -0.005,22.223C0.278,28.468 2.793,34.819 5.621,39.913L8.021,38.58ZM9.572,7.301C11.862,5.557 14.676,4.222 17.803,3.42L17.12,0.761C13.675,1.646 10.52,3.13 7.91,5.117L9.572,7.301ZM17.803,3.42C20.929,2.617 24.264,2.374 27.542,2.712L27.824,-0.019C24.228,-0.389 20.567,-0.123 17.12,0.761L17.803,3.42ZM27.506,2.707C30.888,3.147 33.906,4.314 36.859,5.754C38.34,6.475 39.785,7.256 41.26,8.048C42.725,8.835 44.216,9.63 45.743,10.353L46.918,7.873C45.461,7.183 44.027,6.418 42.558,5.63C41.098,4.846 39.601,4.037 38.062,3.287C34.978,1.783 31.657,0.479 27.86,-0.014L27.506,2.707ZM45.693,10.328C50.392,12.793 55.807,14.313 61.444,14.765L61.663,12.029C56.368,11.604 51.315,10.178 46.968,7.898L45.693,10.328ZM49.172,9.958C51.853,7.164 55.6,4.993 59.972,3.758L59.226,1.117C54.453,2.464 50.258,4.863 47.192,8.058L49.172,9.958ZM59.951,3.764C63.922,2.71 68.194,2.46 72.339,3.043L72.722,0.325C68.22,-0.308 63.578,-0.039 59.247,1.111L59.951,3.764ZM72.339,3.043C76.485,3.627 80.333,5.02 83.507,7.061L84.992,4.752C81.454,2.477 77.223,0.959 72.722,0.325L72.339,3.043ZM83.496,7.054C85.867,8.611 87.448,9.964 88.538,11.417C89.61,12.846 90.263,14.448 90.648,16.597L93.35,16.112C92.905,13.634 92.113,11.609 90.733,9.77C89.371,7.953 87.492,6.395 85.003,4.76L83.496,7.054ZM89.581,21.316L92.038,26.52L94.52,25.348L92.064,20.144L89.581,21.316ZM92.921,27.259L99.771,29.112L100.487,26.462L93.637,24.609L92.921,27.259ZM99.768,26.463L92.918,28.329L93.64,30.977L100.49,29.111L99.768,26.463ZM92.038,29.067L89.581,34.271L92.064,35.443L94.52,30.239L92.038,29.067ZM92.065,34.275L89.626,29.071L87.141,30.236L89.58,35.44L92.065,34.275ZM88.744,28.329L81.894,26.463L81.173,29.111L88.023,30.977L88.744,28.329ZM81.892,29.112L88.742,27.259L88.025,24.609L81.175,26.462L81.892,29.112ZM89.626,26.517L92.065,21.313L89.58,20.148L87.141,25.352L89.626,26.517Z" fill="#FFFFFF"/>
</svg>
