<svg width="32" height="32" viewBox="0 0 32 32" fill="none" xmlns="http://www.w3.org/2000/svg" xmlns:xlink="http://www.w3.org/1999/xlink">
<path d="M16,0C20.243,0 24.313,1.686 27.314,4.686C30.314,7.687 32,11.757 32,16C32,20.243 30.314,24.313 27.314,27.314C24.313,30.314 20.243,32 16,32C11.757,32 7.687,30.314 4.686,27.314C1.686,24.313 0,20.243 0,16C0,11.757 1.686,7.687 4.686,4.686C7.687,1.686 11.757,0 16,0L16,0ZM15,6C14.735,6 14.48,6.105 14.293,6.293C14.105,6.48 14,6.735 14,7L14,17L14.016,17.18C14.058,17.41 14.18,17.618 14.359,17.768C14.539,17.918 14.766,18 15,18L21,18L21.18,17.984C21.426,17.939 21.646,17.805 21.798,17.606C21.949,17.407 22.02,17.159 21.998,16.91C21.975,16.661 21.86,16.429 21.676,16.261C21.491,16.093 21.25,16 21,16L16,16L16,7L15.984,6.82C15.942,6.59 15.82,6.382 15.641,6.232C15.461,6.082 15.234,6 15,6Z" fill="#1648CE"/>
</svg>
