<svg width="114" height="130" viewBox="0 0 114 130" fill="none" xmlns="http://www.w3.org/2000/svg" xmlns:xlink="http://www.w3.org/1999/xlink">
<path d="M14.172,22.095C14.724,22.095 15.172,21.647 15.172,21.095C15.172,20.543 14.724,20.095 14.172,20.095L14.172,22.095ZM76.969,128.575C77.521,128.575 77.969,128.127 77.969,127.575C77.969,127.022 77.521,126.575 76.969,126.575L76.969,128.575ZM69.452,20.095C68.9,20.095 68.452,20.543 68.452,21.095C68.452,21.647 68.9,22.095 69.452,22.095L69.452,20.095ZM82.064,62.332C82.064,62.884 82.512,63.332 83.064,63.332C83.616,63.332 84.064,62.884 84.064,62.332L82.064,62.332ZM69.452,26.295L69.452,27.295C70.004,27.295 70.452,26.848 70.452,26.295L69.452,26.295ZM65.259,12.41L65.259,13.41L65.259,12.41ZM50.613,12.41L49.702,11.997C49.562,12.307 49.588,12.666 49.772,12.952C49.957,13.237 50.273,13.41 50.613,13.41L50.613,12.41ZM51.352,8.908L50.352,8.908L50.352,8.919L51.352,8.908ZM32.882,8.908L33.882,8.911L33.882,8.908L32.882,8.908ZM33.621,12.41L33.621,13.41C33.959,13.41 34.275,13.239 34.459,12.955C34.644,12.671 34.672,12.314 34.535,12.004L33.621,12.41ZM18.42,12.41L18.42,13.41L18.42,12.41ZM14.228,16.385L13.228,16.385L14.228,16.385ZM14.228,26.295L13.228,26.295C13.228,26.848 13.675,27.295 14.228,27.295L14.228,26.295ZM15.114,80.978C14.562,80.978 14.114,81.426 14.114,81.978C14.114,82.53 14.562,82.978 15.114,82.978L15.114,80.978ZM32.106,82.978C32.659,82.978 33.106,82.53 33.106,81.978C33.106,81.426 32.659,80.978 32.106,80.978L32.106,82.978ZM15.114,95.319C14.562,95.319 14.114,95.767 14.114,96.319C14.114,96.871 14.562,97.319 15.114,97.319L15.114,95.319ZM53.993,97.319C54.545,97.319 54.993,96.871 54.993,96.319C54.993,95.767 54.545,95.319 53.993,95.319L53.993,97.319ZM15.114,109.835C14.562,109.835 14.114,110.283 14.114,110.835C14.114,111.387 14.562,111.835 15.114,111.835L15.114,109.835ZM55.895,111.835C56.447,111.835 56.895,111.387 56.895,110.835C56.895,110.283 56.447,109.835 55.895,109.835L55.895,111.835ZM18.882,50.65C18.33,50.65 17.882,51.098 17.882,51.65C17.882,52.203 18.33,52.65 18.882,52.65L18.882,50.65ZM27.951,51.65L28.811,51.141C28.631,50.837 28.304,50.65 27.951,50.65L27.951,51.65ZM34.267,62.314L33.407,62.824C33.596,63.143 33.947,63.332 34.318,63.313C34.689,63.294 35.019,63.071 35.175,62.734L34.267,62.314ZM44.148,40.969L45.108,40.687C44.99,40.287 44.637,40.002 44.222,39.972C43.807,39.941 43.416,40.171 43.241,40.549L44.148,40.969ZM48.119,54.469L47.16,54.752C47.285,55.177 47.676,55.469 48.119,55.469L48.119,54.469ZM65.407,55.469C65.959,55.469 66.407,55.022 66.407,54.469C66.407,53.917 65.959,53.469 65.407,53.469L65.407,55.469ZM84.119,88.895C84.119,88.342 83.672,87.895 83.119,87.895C82.567,87.895 82.119,88.342 82.119,88.895L84.119,88.895ZM82.119,111.605C82.119,112.158 82.567,112.605 83.119,112.605C83.672,112.605 84.119,112.158 84.119,111.605L82.119,111.605ZM95.106,101.259C95.659,101.259 96.106,100.811 96.106,100.259C96.106,99.706 95.659,99.259 95.106,99.259L95.106,101.259ZM71.151,99.259C70.599,99.259 70.151,99.706 70.151,100.259C70.151,100.811 70.599,101.259 71.151,101.259L71.151,99.259ZM14.172,20.095L10.478,20.095L10.478,22.095L14.172,22.095L14.172,20.095ZM10.478,20.095C4.331,20.095 -0.458,25.291 -0.458,31.601L1.542,31.601C1.542,26.284 5.544,22.095 10.478,22.095L10.478,20.095ZM-0.458,31.601L-0.458,117.069L1.542,117.069L1.542,31.601L-0.458,31.601ZM-0.458,117.069C-0.458,123.363 4.388,128.575 10.478,128.575L10.478,126.575C5.597,126.575 1.542,122.366 1.542,117.069L-0.458,117.069ZM10.478,128.575L76.969,128.575L76.969,126.575L10.478,126.575L10.478,128.575ZM69.452,22.095L73.146,22.095L73.146,20.095L69.452,20.095L69.452,22.095ZM73.146,22.095C78.078,22.095 82.064,26.281 82.064,31.601L84.064,31.601C84.064,25.294 79.296,20.095 73.146,20.095L73.146,22.095ZM82.064,31.601L82.064,62.332L84.064,62.332L84.064,31.601L82.064,31.601ZM70.452,26.295L70.452,16.385L68.452,16.385L68.452,26.295L70.452,26.295ZM70.452,16.385C70.452,15.047 69.891,13.777 68.912,12.848L67.536,14.3C68.129,14.862 68.452,15.613 68.452,16.385L70.452,16.385ZM68.912,12.848C67.934,11.922 66.62,11.41 65.259,11.41L65.259,13.41C66.123,13.41 66.941,13.735 67.536,14.3L68.912,12.848ZM65.259,11.41L50.613,11.41L50.613,13.41L65.259,13.41L65.259,11.41ZM51.524,12.822C52.084,11.584 52.367,10.247 52.352,8.897L50.352,8.919C50.363,9.975 50.143,11.023 49.702,11.997L51.524,12.822ZM52.352,8.908C52.352,6.303 51.26,3.816 49.335,1.991L47.959,3.443C49.498,4.902 50.352,6.869 50.352,8.908L52.352,8.908ZM49.335,1.991C47.412,0.168 44.815,-0.847 42.117,-0.847L42.117,1.153C44.317,1.153 46.418,1.982 47.959,3.443L49.335,1.991ZM42.117,-0.847C39.419,-0.847 36.822,0.168 34.899,1.991L36.275,3.443C37.816,1.982 39.916,1.153 42.117,1.153L42.117,-0.847ZM34.899,1.991C32.974,3.816 31.882,6.303 31.882,8.908L33.882,8.908C33.882,6.869 34.736,4.902 36.275,3.443L34.899,1.991ZM31.882,8.904C31.878,10.249 32.159,11.579 32.707,12.815L34.535,12.004C34.1,11.023 33.878,9.972 33.882,8.911L31.882,8.904ZM33.621,11.41L18.42,11.41L18.42,13.41L33.621,13.41L33.621,11.41ZM18.42,11.41C17.06,11.41 15.745,11.922 14.767,12.848L16.144,14.3C16.739,13.735 17.557,13.41 18.42,13.41L18.42,11.41ZM14.767,12.848C13.788,13.777 13.228,15.047 13.228,16.385L15.228,16.385C15.228,15.613 15.55,14.862 16.144,14.3L14.767,12.848ZM13.228,16.385L13.228,26.295L15.228,26.295L15.228,16.385L13.228,16.385ZM14.228,27.295L69.452,27.295L69.452,25.295L14.228,25.295L14.228,27.295ZM15.114,82.978L32.106,82.978L32.106,80.978L15.114,80.978L15.114,82.978ZM15.114,97.319L53.993,97.319L53.993,95.319L15.114,95.319L15.114,97.319ZM15.114,111.835L55.895,111.835L55.895,109.835L15.114,109.835L15.114,111.835ZM18.882,52.65L27.951,52.65L27.951,50.65L18.882,50.65L18.882,52.65ZM27.09,52.16L33.407,62.824L35.128,61.804L28.811,51.141L27.09,52.16ZM35.175,62.734L45.056,41.389L43.241,40.549L33.36,61.894L35.175,62.734ZM43.189,41.251L47.16,54.752L49.079,54.187L45.108,40.687L43.189,41.251ZM48.119,55.469L65.407,55.469L65.407,53.469L48.119,53.469L48.119,55.469ZM111.542,100.259C111.542,115.062 98.867,127.153 83.119,127.153L83.119,129.153C99.87,129.153 113.542,116.266 113.542,100.259L111.542,100.259ZM83.119,127.153C67.371,127.153 54.697,115.062 54.697,100.259L52.697,100.259C52.697,116.266 66.369,129.153 83.119,129.153L83.119,127.153ZM54.697,100.259C54.697,85.455 67.371,73.365 83.119,73.365L83.119,71.365C66.369,71.365 52.697,84.252 52.697,100.259L54.697,100.259ZM83.119,73.365C98.867,73.365 111.542,85.455 111.542,100.259L113.542,100.259C113.542,84.252 99.87,71.365 83.119,71.365L83.119,73.365ZM82.119,88.895L82.119,111.605L84.119,111.605L84.119,88.895L82.119,88.895ZM95.106,99.259L71.151,99.259L71.151,101.259L95.106,101.259L95.106,99.259Z" fill="#FFFFFF"/>
</svg>
