<svg width="30" height="40" viewBox="0 0 30 40" fill="none" xmlns="http://www.w3.org/2000/svg" xmlns:xlink="http://www.w3.org/1999/xlink">
<path d="M14.342,6.214L15.207,5.713L14.342,6.214ZM14.066,7.162L13.568,6.295L13.568,6.295L14.066,7.162ZM2.733,12.883L3.598,12.381L2.733,12.883ZM3.696,13.119L4.194,13.987L4.194,13.987L3.696,13.119ZM14.97,33.847C14.489,34.118 14.319,34.728 14.591,35.209C14.862,35.69 15.472,35.86 15.953,35.589L14.97,33.847ZM27.5,29.076C27.981,28.805 28.151,28.195 27.88,27.714C27.609,27.233 26.999,27.063 26.518,27.334L27.5,29.076ZM14.686,6.807L15.55,6.305L15.051,5.444L14.187,5.94L14.686,6.807ZM26.832,27.739L25.967,28.241L25.967,28.241L26.832,27.739ZM15.224,34.407L14.359,34.909L14.359,34.909L15.224,34.407ZM3.077,13.475L2.579,12.608L1.708,13.108L2.212,13.977L3.077,13.475ZM27.036,28.58L28.035,28.634L28.035,28.634L27.036,28.58ZM25.985,37.387L25.001,37.206L25.001,37.206L25.985,37.387ZM24.091,38.484L24.419,37.539L24.419,37.539L24.091,38.484ZM15.854,35.003L15.404,35.896L15.404,35.896L15.854,35.003ZM9.996,9.488C9.716,9.012 9.103,8.853 8.627,9.134C8.151,9.414 7.993,10.027 8.273,10.503L9.996,9.488ZM20.787,31.736C21.067,32.212 21.68,32.37 22.156,32.09C22.632,31.81 22.79,31.197 22.51,30.721L20.787,31.736ZM13.477,6.716C13.369,6.53 13.465,6.355 13.568,6.295L14.565,8.03C15.352,7.577 15.694,6.553 15.207,5.713L13.477,6.716ZM3.198,12.252C3.299,12.194 3.492,12.198 3.598,12.381L1.868,13.385C2.354,14.221 3.409,14.438 4.194,13.987L3.198,12.252ZM13.568,6.295L3.198,12.252L4.194,13.987L14.565,8.03L13.568,6.295ZM3.598,12.381C1.52,8.799 1.283,6.533 1.659,5.093C2.032,3.669 3.072,2.785 4.224,2.124L3.228,0.389C1.892,1.157 0.297,2.398 -0.276,4.587C-0.843,6.759 -0.332,9.592 1.868,13.385L3.598,12.381ZM4.224,2.124C5.376,1.462 6.667,1.003 8.095,1.394C9.54,1.789 11.395,3.128 13.477,6.716L15.207,5.713C13.002,1.913 10.793,0.059 8.623,-0.535C6.437,-1.134 4.563,-0.378 3.228,0.389L4.224,2.124ZM15.953,35.589L27.5,29.076L26.518,27.334L14.97,33.847L15.953,35.589ZM13.821,7.309L25.967,28.241L27.697,27.237L15.55,6.305L13.821,7.309ZM16.088,33.905L3.942,12.973L2.212,13.977L14.359,34.909L16.088,33.905ZM14.187,5.94L2.579,12.608L3.575,14.342L15.184,7.674L14.187,5.94ZM26.038,28.526C25.84,32.18 25.336,35.386 25.001,37.206L26.968,37.568C27.312,35.695 27.831,32.4 28.035,28.634L26.038,28.526ZM24.419,37.539C22.66,36.928 19.6,35.772 16.304,34.111L15.404,35.896C18.803,37.611 21.951,38.799 23.762,39.428L24.419,37.539ZM25.001,37.206C24.952,37.475 24.69,37.633 24.419,37.539L23.762,39.428C25.183,39.922 26.695,39.051 26.968,37.568L25.001,37.206ZM14.359,34.909C14.602,35.329 14.964,35.674 15.404,35.896L16.304,34.111C16.216,34.066 16.141,33.995 16.088,33.905L14.359,34.909ZM25.967,28.241C26.02,28.331 26.043,28.43 26.038,28.526L28.035,28.634C28.061,28.142 27.941,27.657 27.697,27.237L25.967,28.241ZM8.273,10.503L20.787,31.736L22.51,30.721L9.996,9.488L8.273,10.503Z" transform="rotate(0 13.774 19.408)" fill="#252525"/>
</svg>
