<svg width="112" height="86" viewBox="0 0 112 86" fill="none" xmlns="http://www.w3.org/2000/svg" xmlns:xlink="http://www.w3.org/1999/xlink">
<path d="M102.44,22.315C103.151,22.053 103.516,21.264 103.254,20.553C102.992,19.842 102.203,19.477 101.492,19.739L102.44,22.315ZM77.704,29.165L77.55,27.801L77.548,27.801L77.704,29.165ZM58.873,28.825L59.1,30.178C59.115,30.176 59.129,30.173 59.144,30.17L58.873,28.825ZM51.408,33.489L50.218,32.806C50.206,32.827 50.194,32.849 50.183,32.87L51.408,33.489ZM54.637,39.926L54.136,41.204C54.165,41.215 54.195,41.226 54.225,41.235L54.637,39.926ZM58.481,46.59L57.117,46.442L57.117,46.442L58.481,46.59ZM61.019,52.261L60.361,53.465C60.371,53.471 60.381,53.476 60.391,53.481L61.019,52.261ZM83.415,38.551L82.605,37.443L82.598,37.448L83.415,38.551ZM110.614,29.412C111.361,29.284 111.863,28.575 111.736,27.828C111.608,27.081 110.899,26.579 110.152,26.706L110.614,29.412ZM1.877,52.832C1.128,52.945 0.612,53.644 0.725,54.394C0.838,55.143 1.537,55.659 2.286,55.546L1.877,52.832ZM20.334,48.518L21.051,49.688L21.061,49.682L20.334,48.518ZM32.614,37.686L33.222,38.916C33.237,38.909 33.252,38.901 33.266,38.893L32.614,37.686ZM42.151,36.622L42.537,35.306C42.523,35.301 42.508,35.297 42.493,35.293L42.151,36.622ZM46.276,42.747L47.526,43.313C47.543,43.275 47.559,43.235 47.573,43.196L46.276,42.747ZM50.213,49.383L50.904,48.197L50.901,48.195L50.213,49.383ZM53.946,54.572L52.6,54.303L52.597,54.322L53.946,54.572ZM36.926,57.989L36.664,59.336C36.68,59.339 36.697,59.342 36.713,59.345L36.926,57.989ZM20.129,57.578L19.934,56.219C19.918,56.222 19.901,56.224 19.885,56.227L20.129,57.578ZM3.382,62.447C2.696,62.77 2.402,63.588 2.726,64.273C3.049,64.959 3.866,65.253 4.552,64.93L3.382,62.447ZM95.573,18.793C95.749,19.531 96.49,19.986 97.227,19.809C97.964,19.633 98.419,18.893 98.243,18.156L95.573,18.793ZM95.359,13.087L96.647,12.613C96.415,11.982 95.759,11.612 95.099,11.74L95.359,13.087ZM49.673,1.532L50.806,0.758C50.55,0.383 50.126,0.16 49.673,0.16C49.219,0.16 48.795,0.383 48.539,0.758L49.673,1.532ZM4.004,13.087L4.265,11.74C3.608,11.613 2.955,11.978 2.72,12.605L4.004,13.087ZM0.999,47.98C1.196,48.712 1.948,49.146 2.68,48.95C3.412,48.754 3.846,48.001 3.65,47.269L0.999,47.98ZM13.233,64.689C12.712,64.138 11.844,64.112 11.293,64.633C10.741,65.153 10.716,66.021 11.236,66.573L13.233,64.689ZM49.673,83.155L49.446,84.508C49.596,84.533 49.749,84.533 49.899,84.508L49.673,83.155ZM100.09,35.869C100.113,35.111 99.517,34.479 98.759,34.457C98.001,34.434 97.369,35.031 97.347,35.788L100.09,35.869ZM61.638,34.732C61.784,33.988 61.3,33.267 60.556,33.121C59.812,32.975 59.091,33.459 58.945,34.203L61.638,34.732ZM57.06,46.452C56.984,47.206 57.534,47.879 58.288,47.955C59.042,48.031 59.715,47.481 59.791,46.727L57.06,46.452ZM47.236,43.974C47.561,43.29 47.269,42.471 46.585,42.146C45.9,41.821 45.082,42.112 44.756,42.797L47.236,43.974ZM40.627,52.249C40.33,52.946 40.656,53.752 41.353,54.048C42.051,54.345 42.856,54.02 43.153,53.322L40.627,52.249ZM101.492,19.739C100.138,20.237 98.303,20.957 96.247,21.757C94.184,22.56 91.882,23.449 89.566,24.296C84.88,26.011 80.308,27.489 77.55,27.801L77.858,30.528C80.998,30.174 85.878,28.568 90.51,26.874C92.853,26.016 95.176,25.119 97.242,24.315C99.317,23.508 101.116,22.802 102.44,22.315L101.492,19.739ZM77.548,27.801C74.58,28.142 71.647,27.76 68.471,27.418C65.353,27.081 62.032,26.788 58.602,27.479L59.144,30.17C62.116,29.571 65.056,29.81 68.176,30.146C71.238,30.477 74.52,30.911 77.861,30.528L77.548,27.801ZM58.647,27.471C56.844,27.773 55.139,28.397 53.676,29.312L55.13,31.639C56.262,30.932 57.621,30.425 59.1,30.178L58.647,27.471ZM53.676,29.312C52.213,30.226 51.015,31.415 50.218,32.806L52.599,34.172C53.143,33.223 53.998,32.347 55.13,31.639L53.676,29.312ZM50.183,32.87C49.388,34.444 49.384,36.215 50.175,37.792L52.628,36.561C52.228,35.762 52.229,34.907 52.633,34.108L50.183,32.87ZM50.175,37.792C50.952,39.341 52.401,40.524 54.136,41.204L55.137,38.648C53.898,38.163 53.043,37.387 52.628,36.561L50.175,37.792ZM54.225,41.235C55.551,41.652 56.373,41.965 56.893,42.248C57.386,42.517 57.445,42.672 57.461,42.713C57.504,42.821 57.545,43.059 57.469,43.743C57.433,44.068 57.38,44.434 57.315,44.893C57.251,45.343 57.18,45.859 57.117,46.442L59.846,46.737C59.904,46.2 59.97,45.72 60.032,45.278C60.094,44.845 60.155,44.423 60.197,44.044C60.277,43.32 60.324,42.486 60.011,41.698C59.67,40.841 59.009,40.275 58.207,39.838C57.431,39.415 56.382,39.036 55.048,38.617L54.225,41.235ZM57.117,46.442C56.864,48.779 57.406,51.851 60.361,53.465L61.677,51.056C60.116,50.204 59.651,48.54 59.846,46.737L57.117,46.442ZM60.391,53.481C63.199,54.926 65.941,54.889 68.469,53.978C70.942,53.087 73.19,51.372 75.164,49.495C77.146,47.61 78.945,45.469 80.481,43.652C82.074,41.767 83.295,40.347 84.231,39.654L82.598,37.448C81.342,38.378 79.882,40.109 78.384,41.88C76.829,43.721 75.127,45.743 73.273,47.506C71.412,49.275 69.491,50.692 67.539,51.395C65.642,52.079 63.701,52.098 61.647,51.041L60.391,53.481ZM84.224,39.659C88.592,36.467 91.837,34.498 95.624,33.032C99.433,31.557 103.853,30.565 110.614,29.412L110.152,26.706C103.364,27.864 98.714,28.892 94.633,30.473C90.53,32.061 87.065,34.183 82.605,37.443L84.224,39.659ZM2.286,55.546C9.211,54.503 16.186,52.669 21.051,49.688L19.617,47.348C15.226,50.038 8.689,51.806 1.877,52.832L2.286,55.546ZM21.061,49.682C23.728,48.017 25.551,45.819 27.269,43.886C29.016,41.921 30.706,40.159 33.222,38.916L32.007,36.455C28.98,37.949 26.994,40.065 25.218,42.062C23.413,44.093 21.868,45.942 19.608,47.354L21.061,49.682ZM33.266,38.893C34.466,38.246 35.871,37.814 37.367,37.647L37.062,34.919C35.243,35.122 33.495,35.651 31.963,36.478L33.266,38.893ZM37.367,37.647C38.862,37.48 40.387,37.586 41.81,37.952L42.493,35.293C40.742,34.843 38.882,34.716 37.062,34.919L37.367,37.647ZM41.765,37.939C43.078,38.324 44.065,39.038 44.614,39.853L46.891,38.32C45.918,36.876 44.342,35.835 42.537,35.306L41.765,37.939ZM44.614,39.853C45.148,40.646 45.254,41.502 44.979,42.299L47.573,43.196C48.146,41.538 47.879,39.787 46.891,38.32L44.614,39.853ZM45.025,42.182C44.557,43.218 44.199,44.134 44.084,44.949C43.954,45.861 44.12,46.698 44.701,47.438C45.196,48.069 45.932,48.54 46.662,48.964C47.047,49.188 47.485,49.428 47.955,49.687C48.43,49.949 48.951,50.238 49.526,50.57L50.901,48.195C50.3,47.847 49.758,47.547 49.28,47.283C48.796,47.017 48.392,46.795 48.041,46.591C47.301,46.161 46.996,45.916 46.861,45.744C46.812,45.682 46.759,45.628 46.801,45.335C46.857,44.944 47.061,44.34 47.526,43.313L45.025,42.182ZM49.522,50.568C50.526,51.153 51.408,51.837 51.978,52.543C52.547,53.245 52.697,53.821 52.6,54.303L55.292,54.841C55.606,53.267 54.972,51.879 54.112,50.817C53.255,49.757 52.066,48.874 50.904,48.197L49.522,50.568ZM52.597,54.322C52.402,55.375 51.827,56.072 50.909,56.572C49.933,57.103 48.572,57.399 46.937,57.494C43.667,57.686 39.85,57.058 37.138,56.633L36.713,59.345C39.339,59.756 43.472,60.447 47.098,60.234C48.911,60.128 50.734,59.791 52.22,58.983C53.764,58.144 54.93,56.796 55.295,54.821L52.597,54.322ZM37.188,56.642C31.544,55.544 25.656,55.4 19.934,56.219L20.323,58.936C25.744,58.16 31.323,58.297 36.664,59.336L37.188,56.642ZM19.885,56.227C13.862,57.316 8.283,60.138 3.382,62.447L4.552,64.93C9.58,62.56 14.787,59.938 20.373,58.928L19.885,56.227ZM98.243,18.156C97.834,16.443 97.439,15.067 97.144,14.115C96.996,13.639 96.874,13.268 96.788,13.014C96.745,12.887 96.71,12.79 96.687,12.722C96.675,12.689 96.665,12.663 96.659,12.644C96.655,12.635 96.653,12.628 96.651,12.623C96.65,12.62 96.649,12.618 96.649,12.616C96.648,12.616 96.648,12.615 96.648,12.614C96.648,12.614 96.648,12.614 96.648,12.614C96.647,12.613 96.647,12.613 96.647,12.613C96.647,12.613 96.647,12.613 95.359,13.087C94.072,13.561 94.072,13.561 94.071,13.561C94.071,13.561 94.071,13.561 94.071,13.561C94.071,13.561 94.071,13.56 94.071,13.56C94.071,13.56 94.071,13.56 94.071,13.561C94.072,13.561 94.072,13.562 94.072,13.563C94.073,13.566 94.075,13.57 94.077,13.577C94.082,13.59 94.09,13.611 94.1,13.639C94.12,13.696 94.15,13.783 94.189,13.898C94.268,14.129 94.382,14.476 94.522,14.927C94.801,15.828 95.18,17.146 95.573,18.793L98.243,18.156ZM95.359,13.087C95.099,11.74 95.099,11.74 95.099,11.74C95.099,11.74 95.099,11.74 95.099,11.74C95.099,11.74 95.098,11.74 95.096,11.74C95.093,11.741 95.088,11.742 95.081,11.743C95.067,11.746 95.045,11.75 95.016,11.755C94.957,11.766 94.867,11.782 94.747,11.803C94.509,11.844 94.154,11.903 93.696,11.972C92.78,12.11 91.452,12.289 89.817,12.448C86.545,12.766 82.065,13.005 77.217,12.692C67.428,12.06 56.58,9.211 50.806,0.758L48.539,2.306C55.065,11.859 67.059,14.787 77.04,15.431C82.076,15.756 86.711,15.508 90.083,15.18C91.771,15.015 93.148,14.83 94.105,14.686C94.584,14.614 94.959,14.552 95.216,14.507C95.344,14.485 95.443,14.467 95.511,14.455C95.545,14.449 95.571,14.444 95.589,14.44C95.598,14.439 95.605,14.437 95.611,14.436C95.613,14.436 95.615,14.435 95.617,14.435C95.617,14.435 95.618,14.435 95.619,14.435C95.619,14.435 95.62,14.434 95.359,13.087ZM48.539,0.758C42.766,9.211 31.922,12.06 22.138,12.692C17.292,13.005 12.814,12.766 9.544,12.448C7.91,12.289 6.583,12.11 5.667,11.972C5.209,11.903 4.855,11.844 4.616,11.803C4.497,11.782 4.407,11.766 4.348,11.755C4.319,11.75 4.297,11.746 4.283,11.743C4.276,11.742 4.271,11.741 4.268,11.74C4.266,11.74 4.265,11.74 4.265,11.74C4.265,11.74 4.265,11.74 4.265,11.74C4.265,11.74 4.265,11.74 4.004,13.087C3.744,14.434 3.744,14.435 3.745,14.435C3.746,14.435 3.746,14.435 3.747,14.435C3.749,14.435 3.751,14.436 3.753,14.436C3.758,14.437 3.765,14.439 3.774,14.44C3.793,14.444 3.819,14.449 3.853,14.455C3.921,14.467 4.02,14.485 4.148,14.507C4.405,14.552 4.779,14.614 5.258,14.686C6.215,14.83 7.59,15.015 9.278,15.18C12.648,15.508 17.281,15.756 22.315,15.431C32.291,14.787 44.281,11.859 50.806,2.306L48.539,0.758ZM4.004,13.087C2.72,12.605 2.719,12.605 2.719,12.606C2.719,12.606 2.719,12.607 2.719,12.607C2.718,12.608 2.718,12.609 2.717,12.611C2.716,12.614 2.715,12.618 2.713,12.623C2.709,12.633 2.704,12.648 2.697,12.666C2.684,12.703 2.664,12.756 2.64,12.825C2.592,12.962 2.522,13.162 2.437,13.421C2.265,13.939 2.028,14.692 1.759,15.648C1.222,17.56 0.559,20.288 0.045,23.572C-0.981,30.129 -1.419,38.971 0.999,47.98L3.65,47.269C1.365,38.754 1.766,30.327 2.757,23.996C3.251,20.837 3.889,18.216 4.402,16.39C4.658,15.478 4.883,14.765 5.042,14.284C5.122,14.043 5.185,13.861 5.228,13.74C5.249,13.68 5.265,13.635 5.276,13.607C5.281,13.592 5.285,13.582 5.287,13.576C5.288,13.572 5.289,13.57 5.289,13.569C5.289,13.569 5.29,13.568 5.29,13.568C5.29,13.568 5.29,13.569 5.29,13.569C5.289,13.569 5.289,13.569 4.004,13.087ZM11.236,66.573C18.95,74.747 30.911,81.408 49.446,84.508L49.899,81.801C31.817,78.777 20.449,72.337 13.233,64.689L11.236,66.573ZM49.899,84.508C69.934,81.15 82.395,73.648 89.902,64.561C97.4,55.484 99.823,44.984 100.09,35.869L97.347,35.788C97.092,44.494 94.784,54.341 87.786,62.813C80.796,71.274 68.996,78.524 49.446,81.801L49.899,84.508ZM60.292,34.467C58.945,34.203 58.945,34.203 58.945,34.203C58.945,34.203 58.945,34.203 58.945,34.204C58.945,34.204 58.945,34.204 58.945,34.205C58.944,34.206 58.944,34.207 58.944,34.209C58.943,34.212 58.942,34.217 58.941,34.224C58.938,34.238 58.934,34.257 58.929,34.283C58.919,34.335 58.905,34.411 58.886,34.51C58.848,34.708 58.794,34.995 58.727,35.356C58.593,36.078 58.409,37.097 58.208,38.285C57.808,40.655 57.335,43.72 57.06,46.452L59.791,46.727C60.057,44.086 60.518,41.09 60.915,38.742C61.113,37.571 61.294,36.567 61.426,35.856C61.491,35.5 61.545,35.218 61.582,35.026C61.6,34.929 61.614,34.855 61.624,34.806C61.629,34.781 61.632,34.762 61.635,34.75C61.636,34.744 61.637,34.739 61.637,34.736C61.638,34.734 61.638,34.733 61.638,34.733C61.638,34.732 61.638,34.732 61.638,34.732C61.638,34.732 61.638,34.732 61.638,34.732C61.638,34.732 61.638,34.732 60.292,34.467ZM45.996,43.385C44.756,42.797 44.756,42.797 44.756,42.797C44.756,42.797 44.756,42.797 44.756,42.797C44.756,42.797 44.756,42.797 44.756,42.798C44.756,42.798 44.755,42.799 44.755,42.799C44.754,42.801 44.753,42.803 44.752,42.806C44.75,42.811 44.746,42.818 44.741,42.828C44.732,42.848 44.718,42.877 44.7,42.916C44.664,42.994 44.609,43.113 44.534,43.276C44.385,43.603 44.154,44.112 43.829,44.843C43.18,46.306 42.15,48.663 40.627,52.249L43.153,53.322C44.672,49.748 45.695,47.404 46.338,45.958C46.659,45.234 46.885,44.735 47.03,44.418C47.103,44.26 47.155,44.147 47.188,44.075C47.205,44.039 47.217,44.013 47.225,43.996C47.229,43.988 47.232,43.982 47.234,43.978C47.234,43.977 47.235,43.975 47.235,43.975C47.236,43.974 47.236,43.974 47.236,43.974C47.236,43.974 47.236,43.974 47.236,43.974C47.236,43.974 47.236,43.974 47.236,43.974C47.236,43.974 47.236,43.974 45.996,43.385Z" fill="#FFFFFF"/>
</svg>
