<svg width="26" height="28" viewBox="0 0 26 28" fill="none" xmlns="http://www.w3.org/2000/svg" xmlns:xlink="http://www.w3.org/1999/xlink">
<path d="M15.277,1.107C14.726,1.071 14.25,1.489 14.215,2.041C14.18,2.592 14.598,3.067 15.149,3.103L15.277,1.107ZM22.438,15.779C22.216,16.285 22.445,16.875 22.95,17.098C23.455,17.321 24.046,17.092 24.268,16.586L22.438,15.779ZM16.242,4.953C15.694,4.887 15.196,5.278 15.13,5.826C15.064,6.375 15.455,6.873 16.003,6.939L16.242,4.953ZM19.351,12.798C19.157,13.315 19.42,13.892 19.937,14.085C20.454,14.279 21.03,14.016 21.224,13.499L19.351,12.798ZM11.255,5.089L10.389,5.59L10.389,5.59L11.255,5.089ZM8.657,0.597L9.523,0.097L8.657,0.597ZM7.209,0.218L6.699,-0.641L6.699,-0.641L7.209,0.218ZM1.254,10.854L2.12,10.354L2.115,10.346L1.254,10.854ZM10.901,6.603L11.595,7.322L10.901,6.603ZM18.522,17.658L17.657,18.159L17.657,18.159L18.522,17.658ZM21.12,22.15L21.985,21.65L21.985,21.65L21.12,22.15ZM20.724,23.591L21.213,24.464L21.213,24.464L20.724,23.591ZM8.522,23.423L9.392,22.93L9.387,22.923L8.522,23.423ZM17.033,17.207L17.308,18.169L17.033,17.207ZM15.149,3.103C21.065,3.482 24.952,10.077 22.438,15.779L24.268,16.586C27.303,9.704 22.679,1.582 15.277,1.107L15.149,3.103ZM16.003,6.939C17.195,7.082 18.274,7.884 18.943,9.041C19.611,10.197 19.802,11.592 19.351,12.798L21.224,13.499C21.917,11.645 21.592,9.626 20.674,8.04C19.758,6.455 18.182,5.186 16.242,4.953L16.003,6.939ZM12.12,4.589L9.523,0.097L7.791,1.098L10.389,5.59L12.12,4.589ZM6.699,-0.641C4.786,0.494 3.272,1.503 2.12,2.446C0.972,3.386 0.131,4.304 -0.374,5.272C-1.456,7.347 -0.827,9.293 0.392,11.362L2.115,10.346C0.994,8.444 0.813,7.321 1.399,6.197C1.729,5.565 2.342,4.849 3.387,3.994C4.427,3.142 5.844,2.192 7.72,1.078L6.699,-0.641ZM9.523,0.097C8.953,-0.889 7.683,-1.226 6.699,-0.641L7.72,1.078C7.727,1.074 7.733,1.073 7.738,1.072C7.743,1.071 7.751,1.071 7.759,1.073C7.774,1.078 7.785,1.086 7.791,1.098L9.523,0.097ZM10.389,5.59C10.433,5.667 10.434,5.695 10.432,5.681C10.429,5.662 10.432,5.636 10.438,5.617C10.442,5.606 10.439,5.623 10.401,5.673C10.361,5.725 10.301,5.792 10.206,5.883L11.595,7.322C11.837,7.089 12.177,6.731 12.338,6.241C12.523,5.678 12.424,5.113 12.12,4.589L10.389,5.59ZM10.206,5.883C10.214,5.876 10.183,5.905 10.078,5.976C9.985,6.039 9.863,6.117 9.714,6.206C9.418,6.385 9.049,6.593 8.663,6.804C7.923,7.21 7.068,7.658 6.732,7.851L7.731,9.584C8.052,9.399 8.806,9.007 9.625,8.558C10.018,8.342 10.415,8.119 10.747,7.919C11.042,7.741 11.388,7.523 11.595,7.322L10.206,5.883ZM17.657,18.159L20.254,22.651L21.985,21.65L19.388,17.158L17.657,18.159ZM20.236,22.719C18.332,23.784 16.8,24.534 15.541,25.008C14.277,25.483 13.349,25.656 12.635,25.625C11.365,25.57 10.481,24.85 9.392,22.93L7.652,23.916C8.837,26.006 10.209,27.521 12.549,27.623C13.64,27.671 14.856,27.402 16.245,26.88C17.64,26.355 19.271,25.55 21.213,24.464L20.236,22.719ZM20.254,22.651C20.261,22.662 20.263,22.675 20.259,22.689C20.257,22.697 20.254,22.703 20.25,22.707C20.247,22.711 20.243,22.715 20.236,22.719L21.213,24.464C22.212,23.905 22.556,22.636 21.985,21.65L20.254,22.651ZM19.388,17.158C19.085,16.633 18.645,16.265 18.066,16.144C17.562,16.039 17.082,16.153 16.758,16.246L17.308,18.169C17.434,18.133 17.522,18.114 17.587,18.106C17.65,18.098 17.667,18.104 17.656,18.102C17.637,18.098 17.613,18.087 17.598,18.075C17.588,18.067 17.612,18.082 17.657,18.159L19.388,17.158ZM16.758,16.246C16.483,16.324 16.133,16.506 15.84,16.667C15.513,16.847 15.136,17.07 14.762,17.297C13.988,17.766 13.265,18.225 12.864,18.456L13.863,20.189C14.282,19.947 15.094,19.435 15.799,19.007C16.165,18.785 16.514,18.579 16.803,18.42C16.948,18.34 17.07,18.277 17.167,18.23C17.275,18.179 17.315,18.167 17.308,18.169L16.758,16.246ZM6.732,7.851C6.396,8.046 6.267,8.353 6.22,8.538C6.174,8.718 6.179,8.881 6.187,8.984C6.204,9.194 6.261,9.412 6.319,9.599C6.44,9.988 6.643,10.481 6.889,11.017C7.385,12.101 8.11,13.486 8.875,14.833C9.639,16.179 10.46,17.515 11.15,18.494C11.491,18.978 11.825,19.409 12.12,19.714C12.262,19.86 12.44,20.026 12.643,20.145C12.779,20.226 13.303,20.512 13.863,20.189L12.864,18.456C13.091,18.325 13.314,18.326 13.45,18.351C13.574,18.373 13.649,18.417 13.662,18.425C13.688,18.44 13.655,18.424 13.556,18.322C13.371,18.131 13.108,17.801 12.785,17.342C12.146,16.436 11.362,15.162 10.614,13.845C9.867,12.529 9.171,11.198 8.707,10.184C8.473,9.672 8.311,9.271 8.228,9.004C8.184,8.863 8.179,8.813 8.18,8.825C8.181,8.828 8.189,8.91 8.159,9.028C8.128,9.15 8.027,9.414 7.731,9.584L6.732,7.851ZM0.388,11.355L7.656,23.924L9.387,22.923L2.12,10.354L0.388,11.355Z" fill="#BA68C8"/>
</svg>
