<svg width="30" height="46" viewBox="0 0 30 46" fill="none" xmlns="http://www.w3.org/2000/svg" xmlns:xlink="http://www.w3.org/1999/xlink">
<path d="M6.979,42.5C6.15,42.5 5.479,43.172 5.479,44C5.479,44.828 6.15,45.5 6.979,45.5L6.979,42.5ZM23.574,45.5C24.403,45.5 25.074,44.828 25.074,44C25.074,43.172 24.403,42.5 23.574,42.5L23.574,45.5ZM8.085,8.807L6.585,8.807L6.585,8.807L8.085,8.807ZM21.915,8.807L20.415,8.807L20.415,8.807L21.915,8.807ZM21.915,24.364L23.415,24.364L23.415,24.364L21.915,24.364ZM8.085,24.364L9.585,24.364L9.585,24.364L8.085,24.364ZM15,31.17L15,32.67L15,32.67L15,31.17ZM15,2L15,0.5L15,2ZM2,21.636L2,20.136C1.172,20.136 0.5,20.808 0.5,21.636L2,21.636ZM2,23.431L0.5,23.431L0.5,23.431L2,23.431ZM28,23.431L26.5,23.431L26.5,23.431L28,23.431ZM28,21.636L29.5,21.636C29.5,21.239 29.342,20.857 29.061,20.576C28.779,20.294 28.398,20.136 28,20.136L28,21.636ZM13.777,44C13.777,44.828 14.448,45.5 15.277,45.5C16.105,45.5 16.777,44.828 16.777,44L13.777,44ZM16.777,36.909C16.777,36.081 16.105,35.409 15.277,35.409C14.448,35.409 13.777,36.081 13.777,36.909L16.777,36.909ZM6.979,45.5L23.574,45.5L23.574,42.5L6.979,42.5L6.979,45.5ZM15,29.67C11.987,29.67 9.585,27.272 9.585,24.364L6.585,24.364C6.585,28.974 10.375,32.67 15,32.67L15,29.67ZM20.415,24.364C20.415,27.272 18.013,29.67 15,29.67L15,32.67C19.625,32.67 23.415,28.974 23.415,24.364L20.415,24.364ZM15,3.5C18.013,3.5 20.415,5.898 20.415,8.807L23.415,8.807C23.415,4.197 19.625,0.5 15,0.5L15,3.5ZM9.585,8.807C9.585,5.898 11.987,3.5 15,3.5L15,0.5C10.375,0.5 6.585,4.197 6.585,8.807L9.585,8.807ZM9.585,24.364L9.585,8.807L6.585,8.807L6.585,24.364L9.585,24.364ZM20.415,8.807L20.415,24.364L23.415,24.364L23.415,8.807L20.415,8.807ZM0.5,21.636L0.5,23.431L3.5,23.431L3.5,21.636L0.5,21.636ZM15,38.409C23.059,38.409 29.5,31.651 29.5,23.431L26.5,23.431C26.5,30.098 21.301,35.409 15,35.409L15,38.409ZM0.5,23.431C0.5,31.651 6.941,38.409 15,38.409L15,35.409C8.699,35.409 3.5,30.098 3.5,23.431L0.5,23.431ZM29.5,23.431L29.5,21.636L26.5,21.636L26.5,23.431L29.5,23.431ZM21.915,23.136L28,23.136L28,20.136L21.915,20.136L21.915,23.136ZM2,23.136L8.5,23.136L8.5,20.136L2,20.136L2,23.136ZM16.777,44L16.777,36.909L13.777,36.909L13.777,44L16.777,44Z" fill="#7D8BB7"/>
</svg>
