<svg width="86" height="124" viewBox="0 0 86 124" fill="none" xmlns="http://www.w3.org/2000/svg" xmlns:xlink="http://www.w3.org/1999/xlink">
<path d="M57.179,48.122C57.179,47.57 56.731,47.122 56.179,47.122C55.627,47.122 55.179,47.57 55.179,48.122L57.179,48.122ZM33.06,122.597L33.06,121.597L33.06,121.597L33.06,122.597ZM9.942,99.99L8.941,99.99L8.942,100.015L9.942,99.99ZM10.942,19.597C10.942,19.045 10.494,18.597 9.942,18.597C9.39,18.597 8.942,19.045 8.942,19.597L10.942,19.597ZM55.179,38.53C55.179,39.082 55.627,39.53 56.179,39.53C56.731,39.53 57.179,39.082 57.179,38.53L55.179,38.53ZM56.179,19.558L57.179,19.558C57.179,19.006 56.731,18.558 56.179,18.558L56.179,19.558ZM10.057,18.558C9.505,18.558 9.057,19.006 9.057,19.558C9.057,20.11 9.505,20.558 10.057,20.558L10.057,18.558ZM55.422,73.55C55.784,73.967 56.415,74.013 56.833,73.652C57.251,73.291 57.297,72.659 56.935,72.242L55.422,73.55ZM33.06,71.194L32.407,70.436L32.405,70.438L33.06,71.194ZM11.124,68.878C10.764,68.46 10.132,68.412 9.714,68.772C9.295,69.133 9.247,69.764 9.608,70.183L11.124,68.878ZM67.571,92.114C67.345,91.611 66.753,91.386 66.249,91.613C65.745,91.839 65.521,92.431 65.747,92.935L67.571,92.114ZM79.272,122.988C79.498,123.492 80.09,123.716 80.594,123.49C81.098,123.263 81.322,122.671 81.096,122.167L79.272,122.988ZM4.74,1.708L4.74,0.708L4.74,1.708ZM66.081,19.577L66.081,20.577C66.634,20.577 67.081,20.13 67.081,19.577L66.081,19.577ZM0.097,19.577L-0.903,19.577C-0.903,20.13 -0.455,20.577 0.097,20.577L0.097,19.577ZM55.179,48.122L55.179,99.39L57.179,99.39L57.179,48.122L55.179,48.122ZM55.179,99.39C55.179,105.281 52.848,110.93 48.699,115.094L50.116,116.506C54.639,111.966 57.179,105.809 57.179,99.39L55.179,99.39ZM48.699,115.094C44.551,119.258 38.925,121.597 33.06,121.597L33.06,123.597C39.458,123.597 45.593,121.046 50.116,116.506L48.699,115.094ZM33.06,121.597C27.293,121.599 21.752,119.339 17.62,115.298L16.221,116.728C20.727,121.134 26.769,123.599 33.061,123.597L33.06,121.597ZM17.62,115.298C13.487,111.257 11.091,105.755 10.941,99.964L8.942,100.015C9.105,106.325 11.716,112.323 16.221,116.728L17.62,115.298ZM10.942,99.99L10.942,19.597L8.942,19.597L8.942,99.99L10.942,99.99ZM56.179,38.53C57.179,38.53 57.179,38.53 57.179,38.53C57.179,38.53 57.179,38.529 57.179,38.529C57.179,38.529 57.179,38.528 57.179,38.528C57.179,38.528 57.179,38.527 57.179,38.527C57.179,38.526 57.179,38.525 57.179,38.525C57.179,38.524 57.179,38.523 57.179,38.522C57.179,38.521 57.179,38.521 57.179,38.52C57.179,38.519 57.179,38.518 57.179,38.516C57.179,38.515 57.179,38.514 57.179,38.513C57.179,38.512 57.179,38.51 57.179,38.509C57.179,38.508 57.179,38.506 57.179,38.505C57.179,38.503 57.179,38.501 57.179,38.5C57.179,38.498 57.179,38.496 57.179,38.495C57.179,38.493 57.179,38.491 57.179,38.489C57.179,38.487 57.179,38.485 57.179,38.483C57.179,38.481 57.179,38.479 57.179,38.477C57.179,38.475 57.179,38.472 57.179,38.47C57.179,38.468 57.179,38.465 57.179,38.463C57.179,38.46 57.179,38.458 57.179,38.455C57.179,38.453 57.179,38.45 57.179,38.447C57.179,38.445 57.179,38.442 57.179,38.439C57.179,38.436 57.179,38.433 57.179,38.43C57.179,38.427 57.179,38.424 57.179,38.421C57.179,38.418 57.179,38.415 57.179,38.412C57.179,38.408 57.179,38.405 57.179,38.402C57.179,38.398 57.179,38.395 57.179,38.391C57.179,38.388 57.179,38.384 57.179,38.381C57.179,38.377 57.179,38.373 57.179,38.37C57.179,38.366 57.179,38.362 57.179,38.358C57.179,38.354 57.179,38.35 57.179,38.346C57.179,38.342 57.179,38.338 57.179,38.334C57.179,38.33 57.179,38.326 57.179,38.322C57.179,38.317 57.179,38.313 57.179,38.309C57.179,38.304 57.179,38.3 57.179,38.296C57.179,38.291 57.179,38.286 57.179,38.282C57.179,38.277 57.179,38.273 57.179,38.268C57.179,38.263 57.179,38.258 57.179,38.253C57.179,38.249 57.179,38.244 57.179,38.239C57.179,38.234 57.179,38.229 57.179,38.224C57.179,38.218 57.179,38.213 57.179,38.208C57.179,38.203 57.179,38.198 57.179,38.192C57.179,38.187 57.179,38.182 57.179,38.176C57.179,38.171 57.179,38.165 57.179,38.16C57.179,38.154 57.179,38.148 57.179,38.143C57.179,38.137 57.179,38.131 57.179,38.125C57.179,38.12 57.179,38.114 57.179,38.108C57.179,38.102 57.179,38.096 57.179,38.09C57.179,38.084 57.179,38.078 57.179,38.072C57.179,38.065 57.179,38.059 57.179,38.053C57.179,38.047 57.179,38.04 57.179,38.034C57.179,38.028 57.179,38.021 57.179,38.015C57.179,38.008 57.179,38.002 57.179,37.995C57.179,37.988 57.179,37.982 57.179,37.975C57.179,37.968 57.179,37.961 57.179,37.955C57.179,37.948 57.179,37.941 57.179,37.934C57.179,37.927 57.179,37.92 57.179,37.913C57.179,37.906 57.179,37.899 57.179,37.892C57.179,37.884 57.179,37.877 57.179,37.87C57.179,37.863 57.179,37.855 57.179,37.848C57.179,37.84 57.179,37.833 57.179,37.826C57.179,37.818 57.179,37.81 57.179,37.803C57.179,37.795 57.179,37.788 57.179,37.78C57.179,37.772 57.179,37.764 57.179,37.757C57.179,37.749 57.179,37.741 57.179,37.733C57.179,37.725 57.179,37.717 57.179,37.709C57.179,37.701 57.179,37.693 57.179,37.685C57.179,37.677 57.179,37.668 57.179,37.66C57.179,37.652 57.179,37.644 57.179,37.635C57.179,37.627 57.179,37.619 57.179,37.61C57.179,37.602 57.179,37.593 57.179,37.585C57.179,37.576 57.179,37.567 57.179,37.559C57.179,37.55 57.179,37.541 57.179,37.533C57.179,37.524 57.179,37.515 57.179,37.506C57.179,37.497 57.179,37.488 57.179,37.479C57.179,37.47 57.179,37.461 57.179,37.452C57.179,37.443 57.179,37.434 57.179,37.425C57.179,37.416 57.179,37.407 57.179,37.397C57.179,37.388 57.179,37.379 57.179,37.369C57.179,37.36 57.179,37.351 57.179,37.341C57.179,37.332 57.179,37.322 57.179,37.313C57.179,37.303 57.179,37.293 57.179,37.284C57.179,37.274 57.179,37.264 57.179,37.255C57.179,37.245 57.179,37.235 57.179,37.225C57.179,37.215 57.179,37.205 57.179,37.196C57.179,37.186 57.179,37.176 57.179,37.166C57.179,37.155 57.179,37.145 57.179,37.135C57.179,37.125 57.179,37.115 57.179,37.105C57.179,37.094 57.179,37.084 57.179,37.074C57.179,37.064 57.179,37.053 57.179,37.043C57.179,37.032 57.179,37.022 57.179,37.011C57.179,37.001 57.179,36.99 57.179,36.98C57.179,36.969 57.179,36.958 57.179,36.948C57.179,36.937 57.179,36.926 57.179,36.915C57.179,36.905 57.179,36.894 57.179,36.883C57.179,36.872 57.179,36.861 57.179,36.85C57.179,36.839 57.179,36.828 57.179,36.817C57.179,36.806 57.179,36.795 57.179,36.784C57.179,36.773 57.179,36.762 57.179,36.75C57.179,36.739 57.179,36.728 57.179,36.717C57.179,36.705 57.179,36.694 57.179,36.682C57.179,36.671 57.179,36.66 57.179,36.648C57.179,36.637 57.179,36.625 57.179,36.613C57.179,36.602 57.179,36.59 57.179,36.579C57.179,36.567 57.179,36.555 57.179,36.543C57.179,36.532 57.179,36.52 57.179,36.508C57.179,36.496 57.179,36.484 57.179,36.472C57.179,36.461 57.179,36.449 57.179,36.437C57.179,36.425 57.179,36.413 57.179,36.4C57.179,36.388 57.179,36.376 57.179,36.364C57.179,36.352 57.179,36.34 57.179,36.327C57.179,36.315 57.179,36.303 57.179,36.291C57.179,36.278 57.179,36.266 57.179,36.253C57.179,36.241 57.179,36.229 57.179,36.216C57.179,36.204 57.179,36.191 57.179,36.179C57.179,36.166 57.179,36.153 57.179,36.141C57.179,36.128 57.179,36.115 57.179,36.103C57.179,36.09 57.179,36.077 57.179,36.064C57.179,36.052 57.179,36.039 57.179,36.026C57.179,36.013 57.179,36 57.179,35.987C57.179,35.974 57.179,35.961 57.179,35.948C57.179,35.935 57.179,35.922 57.179,35.909C57.179,35.896 57.179,35.883 57.179,35.869C57.179,35.856 57.179,35.843 57.179,35.83C57.179,35.816 57.179,35.803 57.179,35.79C57.179,35.777 57.179,35.763 57.179,35.75C57.179,35.736 57.179,35.723 57.179,35.709C57.179,35.696 57.179,35.682 57.179,35.669C57.179,35.655 57.179,35.642 57.179,35.628C57.179,35.614 57.179,35.601 57.179,35.587C57.179,35.573 57.179,35.56 57.179,35.546C57.179,35.532 57.179,35.518 57.179,35.505C57.179,35.491 57.179,35.477 57.179,35.463C57.179,35.449 57.179,35.435 57.179,35.421C57.179,35.407 57.179,35.393 57.179,35.379C57.179,35.365 57.179,35.351 57.179,35.337C57.179,35.323 57.179,35.309 57.179,35.294C57.179,35.28 57.179,35.266 57.179,35.252C57.179,35.238 57.179,35.223 57.179,35.209C57.179,35.195 57.179,35.18 57.179,35.166C57.179,35.152 57.179,35.137 57.179,35.123C57.179,35.108 57.179,35.094 57.179,35.079C57.179,35.065 57.179,35.05 57.179,35.036C57.179,35.021 57.179,35.006 57.179,34.992C57.179,34.977 57.179,34.963 57.179,34.948C57.179,34.933 57.179,34.918 57.179,34.904C57.179,34.889 57.179,34.874 57.179,34.859C57.179,34.844 57.179,34.83 57.179,34.815C57.179,34.8 57.179,34.785 57.179,34.77C57.179,34.755 57.179,34.74 57.179,34.725C57.179,34.71 57.179,34.695 57.179,34.68C57.179,34.665 57.179,34.65 57.179,34.635C57.179,34.62 57.179,34.604 57.179,34.589C57.179,34.574 57.179,34.559 57.179,34.544C57.179,34.528 57.179,34.513 57.179,34.498C57.179,34.482 57.179,34.467 57.179,34.452C57.179,34.436 57.179,34.421 57.179,34.406C57.179,34.39 57.179,34.375 57.179,34.359C57.179,34.344 57.179,34.328 57.179,34.313C57.179,34.297 57.179,34.282 57.179,34.266C57.179,34.251 57.179,34.235 57.179,34.219C57.179,34.204 57.179,34.188 57.179,34.172C57.179,34.157 57.179,34.141 57.179,34.125C57.179,34.109 57.179,34.094 57.179,34.078C57.179,34.062 57.179,34.046 57.179,34.03C57.179,34.015 57.179,33.999 57.179,33.983C57.179,33.967 57.179,33.951 57.179,33.935C57.179,33.919 57.179,33.903 57.179,33.887C57.179,33.871 57.179,33.855 57.179,33.839C57.179,33.823 57.179,33.807 57.179,33.791C57.179,33.775 57.179,33.759 57.179,33.742C57.179,33.726 57.179,33.71 57.179,33.694C57.179,33.678 57.179,33.662 57.179,33.645C57.179,33.629 57.179,33.613 57.179,33.597C57.179,33.58 57.179,33.564 57.179,33.548C57.179,33.531 57.179,33.515 57.179,33.498C57.179,33.482 57.179,33.466 57.179,33.449C57.179,33.433 57.179,33.416 57.179,33.4C57.179,33.383 57.179,33.367 57.179,33.35C57.179,33.334 57.179,33.317 57.179,33.301C57.179,33.284 57.179,33.268 57.179,33.251C57.179,33.234 57.179,33.218 57.179,33.201C57.179,33.185 57.179,33.168 57.179,33.151C57.179,33.134 57.179,33.118 57.179,33.101C57.179,33.084 57.179,33.068 57.179,33.051C57.179,33.034 57.179,33.017 57.179,33C57.179,32.984 57.179,32.967 57.179,32.95C57.179,32.933 57.179,32.916 57.179,32.899C57.179,32.882 57.179,32.865 57.179,32.849C57.179,32.832 57.179,32.815 57.179,32.798C57.179,32.781 57.179,32.764 57.179,32.747C57.179,32.73 57.179,32.713 57.179,32.696C57.179,32.679 57.179,32.662 57.179,32.644C57.179,32.627 57.179,32.61 57.179,32.593C57.179,32.576 57.179,32.559 57.179,32.542C57.179,32.525 57.179,32.507 57.179,32.49C57.179,32.473 57.179,32.456 57.179,32.439C57.179,32.421 57.179,32.404 57.179,32.387C57.179,32.37 57.179,32.352 57.179,32.335C57.179,32.318 57.179,32.3 57.179,32.283C57.179,32.266 57.179,32.248 57.179,32.231C57.179,32.214 57.179,32.196 57.179,32.179C57.179,32.162 57.179,32.144 57.179,32.127C57.179,32.109 57.179,32.092 57.179,32.074C57.179,32.057 57.179,32.039 57.179,32.022C57.179,32.004 57.179,31.987 57.179,31.969C57.179,31.952 57.179,31.934 57.179,31.917C57.179,31.899 57.179,31.882 57.179,31.864C57.179,31.847 57.179,31.829 57.179,31.811C57.179,31.794 57.179,31.776 57.179,31.759C57.179,31.741 57.179,31.723 57.179,31.706C57.179,31.688 57.179,31.67 57.179,31.653C57.179,31.635 57.179,31.617 57.179,31.6C57.179,31.582 57.179,31.564 57.179,31.546C57.179,31.529 57.179,31.511 57.179,31.493C57.179,31.475 57.179,31.458 57.179,31.44C57.179,31.422 57.179,31.404 57.179,31.387C57.179,31.369 57.179,31.351 57.179,31.333C57.179,31.315 57.179,31.297 57.179,31.28C57.179,31.262 57.179,31.244 57.179,31.226C57.179,31.208 57.179,31.19 57.179,31.172C57.179,31.154 57.179,31.136 57.179,31.119C57.179,31.101 57.179,31.083 57.179,31.065C57.179,31.047 57.179,31.029 57.179,31.011C57.179,30.993 57.179,30.975 57.179,30.957C57.179,30.939 57.179,30.921 57.179,30.903C57.179,30.885 57.179,30.867 57.179,30.849C57.179,30.831 57.179,30.813 57.179,30.795C57.179,30.777 57.179,30.759 57.179,30.741C57.179,30.723 57.179,30.705 57.179,30.687C57.179,30.669 57.179,30.651 57.179,30.633C57.179,30.614 57.179,30.596 57.179,30.578C57.179,30.56 57.179,30.542 57.179,30.524C57.179,30.506 57.179,30.488 57.179,30.47C57.179,30.451 57.179,30.433 57.179,30.415C57.179,30.397 57.179,30.379 57.179,30.361C57.179,30.343 57.179,30.324 57.179,30.306C57.179,30.288 57.179,30.27 57.179,30.252C57.179,30.234 57.179,30.215 57.179,30.197C57.179,30.179 57.179,30.161 57.179,30.143C57.179,30.124 57.179,30.106 57.179,30.088C57.179,30.07 57.179,30.052 57.179,30.033C57.179,30.015 57.179,29.997 57.179,29.979C57.179,29.96 57.179,29.942 57.179,29.924C57.179,29.906 57.179,29.887 57.179,29.869C57.179,29.851 57.179,29.833 57.179,29.814C57.179,29.796 57.179,29.778 57.179,29.76C57.179,29.741 57.179,29.723 57.179,29.705C57.179,29.687 57.179,29.668 57.179,29.65C57.179,29.632 57.179,29.613 57.179,29.595C57.179,29.577 57.179,29.559 57.179,29.54C57.179,29.522 57.179,29.504 57.179,29.485C57.179,29.467 57.179,29.449 57.179,29.431C57.179,29.412 57.179,29.394 57.179,29.376C57.179,29.357 57.179,29.339 57.179,29.321C57.179,29.302 57.179,29.284 57.179,29.266C57.179,29.247 57.179,29.229 57.179,29.211C57.179,29.193 57.179,29.174 57.179,29.156C57.179,29.138 57.179,29.119 57.179,29.101C57.179,29.083 57.179,29.064 57.179,29.046C57.179,29.028 57.179,29.009 57.179,28.991C57.179,28.973 57.179,28.954 57.179,28.936C57.179,28.918 57.179,28.9 57.179,28.881C57.179,28.863 57.179,28.845 57.179,28.826C57.179,28.808 57.179,28.79 57.179,28.771C57.179,28.753 57.179,28.735 57.179,28.716C57.179,28.698 57.179,28.68 57.179,28.662C57.179,28.643 57.179,28.625 57.179,28.607C57.179,28.588 57.179,28.57 57.179,28.552C57.179,28.534 57.179,28.515 57.179,28.497C57.179,28.479 57.179,28.46 57.179,28.442C57.179,28.424 57.179,28.406 57.179,28.387C57.179,28.369 57.179,28.351 57.179,28.332C57.179,28.314 57.179,28.296 57.179,28.278C57.179,28.259 57.179,28.241 57.179,28.223C57.179,28.205 57.179,28.186 57.179,28.168C57.179,28.15 57.179,28.132 57.179,28.113C57.179,28.095 57.179,28.077 57.179,28.059C57.179,28.041 57.179,28.022 57.179,28.004C57.179,27.986 57.179,27.968 57.179,27.949C57.179,27.931 57.179,27.913 57.179,27.895C57.179,27.877 57.179,27.858 57.179,27.84C57.179,27.822 57.179,27.804 57.179,27.786C57.179,27.768 57.179,27.749 57.179,27.731C57.179,27.713 57.179,27.695 57.179,27.677C57.179,27.659 57.179,27.641 57.179,27.622C57.179,27.604 57.179,27.586 57.179,27.568C57.179,27.55 57.179,27.532 57.179,27.514C57.179,27.496 57.179,27.478 57.179,27.459C57.179,27.441 57.179,27.423 57.179,27.405C57.179,27.387 57.179,27.369 57.179,27.351C57.179,27.333 57.179,27.315 57.179,27.297C57.179,27.279 57.179,27.261 57.179,27.243C57.179,27.225 57.179,27.207 57.179,27.189C57.179,27.171 57.179,27.153 57.179,27.135C57.179,27.117 57.179,27.099 57.179,27.081C57.179,27.063 57.179,27.045 57.179,27.027C57.179,27.009 57.179,26.991 57.179,26.973C57.179,26.955 57.179,26.937 57.179,26.92C57.179,26.902 57.179,26.884 57.179,26.866C57.179,26.848 57.179,26.83 57.179,26.812C57.179,26.794 57.179,26.777 57.179,26.759C57.179,26.741 57.179,26.723 57.179,26.705C57.179,26.687 57.179,26.67 57.179,26.652C57.179,26.634 57.179,26.616 57.179,26.599C57.179,26.581 57.179,26.563 57.179,26.545C57.179,26.528 57.179,26.51 57.179,26.492C57.179,26.474 57.179,26.457 57.179,26.439C57.179,26.421 57.179,26.404 57.179,26.386C57.179,26.368 57.179,26.351 57.179,26.333C57.179,26.315 57.179,26.298 57.179,26.28C57.179,26.263 57.179,26.245 57.179,26.227C57.179,26.21 57.179,26.192 57.179,26.175C57.179,26.157 57.179,26.14 57.179,26.122C57.179,26.105 57.179,26.087 57.179,26.07C57.179,26.052 57.179,26.035 57.179,26.017C57.179,26 57.179,25.982 57.179,25.965C57.179,25.947 57.179,25.93 57.179,25.913C57.179,25.895 57.179,25.878 57.179,25.86C57.179,25.843 57.179,25.826 57.179,25.808C57.179,25.791 57.179,25.774 57.179,25.756C57.179,25.739 57.179,25.722 57.179,25.705C57.179,25.687 57.179,25.67 57.179,25.653C57.179,25.636 57.179,25.618 57.179,25.601C57.179,25.584 57.179,25.567 57.179,25.55C57.179,25.532 57.179,25.515 57.179,25.498C57.179,25.481 57.179,25.464 57.179,25.447C57.179,25.43 57.179,25.413 57.179,25.396C57.179,25.379 57.179,25.362 57.179,25.345C57.179,25.328 57.179,25.311 57.179,25.294C57.179,25.277 57.179,25.26 57.179,25.243C57.179,25.226 57.179,25.209 57.179,25.192C57.179,25.175 57.179,25.158 57.179,25.141C57.179,25.124 57.179,25.108 57.179,25.091C57.179,25.074 57.179,25.057 57.179,25.04C57.179,25.024 57.179,25.007 57.179,24.99C57.179,24.973 57.179,24.957 57.179,24.94C57.179,24.923 57.179,24.906 57.179,24.89C57.179,24.873 57.179,24.857 57.179,24.84C57.179,24.823 57.179,24.807 57.179,24.79C57.179,24.774 57.179,24.757 57.179,24.74C57.179,24.724 57.179,24.707 57.179,24.691C57.179,24.674 57.179,24.658 57.179,24.642C57.179,24.625 57.179,24.609 57.179,24.592C57.179,24.576 57.179,24.56 57.179,24.543C57.179,24.527 57.179,24.511 57.179,24.494C57.179,24.478 57.179,24.462 57.179,24.445C57.179,24.429 57.179,24.413 57.179,24.397C57.179,24.381 57.179,24.364 57.179,24.348C57.179,24.332 57.179,24.316 57.179,24.3C57.179,24.284 57.179,24.268 57.179,24.252C57.179,24.235 57.179,24.219 57.179,24.203C57.179,24.187 57.179,24.171 57.179,24.155C57.179,24.14 57.179,24.124 57.179,24.108C57.179,24.092 57.179,24.076 57.179,24.06C57.179,24.044 57.179,24.028 57.179,24.013C57.179,23.997 57.179,23.981 57.179,23.965C57.179,23.949 57.179,23.934 57.179,23.918C57.179,23.902 57.179,23.887 57.179,23.871C57.179,23.855 57.179,23.84 57.179,23.824C57.179,23.809 57.179,23.793 57.179,23.777C57.179,23.762 57.179,23.746 57.179,23.731C57.179,23.715 57.179,23.7 57.179,23.685C57.179,23.669 57.179,23.654 57.179,23.638C57.179,23.623 57.179,23.608 57.179,23.592C57.179,23.577 57.179,23.562 57.179,23.547C57.179,23.531 57.179,23.516 57.179,23.501C57.179,23.486 57.179,23.47 57.179,23.455C57.179,23.44 57.179,23.425 57.179,23.41C57.179,23.395 57.179,23.38 57.179,23.365C57.179,23.35 57.179,23.335 57.179,23.32C57.179,23.305 57.179,23.29 57.179,23.275C57.179,23.26 57.179,23.245 57.179,23.231C57.179,23.216 57.179,23.201 57.179,23.186C57.179,23.171 57.179,23.157 57.179,23.142C57.179,23.127 57.179,23.112 57.179,23.098C57.179,23.083 57.179,23.069 57.179,23.054C57.179,23.039 57.179,23.025 57.179,23.01C57.179,22.996 57.179,22.981 57.179,22.967C57.179,22.952 57.179,22.938 57.179,22.924C57.179,22.909 57.179,22.895 57.179,22.881C57.179,22.866 57.179,22.852 57.179,22.838C57.179,22.823 57.179,22.809 57.179,22.795C57.179,22.781 57.179,22.767 57.179,22.752C57.179,22.738 57.179,22.724 57.179,22.71C57.179,22.696 57.179,22.682 57.179,22.668C57.179,22.654 57.179,22.64 57.179,22.626C57.179,22.612 57.179,22.598 57.179,22.585C57.179,22.571 57.179,22.557 57.179,22.543C57.179,22.529 57.179,22.516 57.179,22.502C57.179,22.488 57.179,22.475 57.179,22.461C57.179,22.447 57.179,22.434 57.179,22.42C57.179,22.406 57.179,22.393 57.179,22.379C57.179,22.366 57.179,22.353 57.179,22.339C57.179,22.326 57.179,22.312 57.179,22.299C57.179,22.286 57.179,22.272 57.179,22.259C57.179,22.246 57.179,22.232 57.179,22.219C57.179,22.206 57.179,22.193 57.179,22.18C57.179,22.167 57.179,22.154 57.179,22.141C57.179,22.127 57.179,22.114 57.179,22.101C57.179,22.089 57.179,22.076 57.179,22.063C57.179,22.05 57.179,22.037 57.179,22.024C57.179,22.011 57.179,21.998 57.179,21.986C57.179,21.973 57.179,21.96 57.179,21.948C57.179,21.935 57.179,21.922 57.179,21.91C57.179,21.897 57.179,21.885 57.179,21.872C57.179,21.86 57.179,21.847 57.179,21.835C57.179,21.822 57.179,21.81 57.179,21.798C57.179,21.785 57.179,21.773 57.179,21.761C57.179,21.748 57.179,21.736 57.179,21.724C57.179,21.712 57.179,21.7 57.179,21.687C57.179,21.675 57.179,21.663 57.179,21.651C57.179,21.639 57.179,21.627 57.179,21.615C57.179,21.603 57.179,21.592 57.179,21.58C57.179,21.568 57.179,21.556 57.179,21.544C57.179,21.532 57.179,21.521 57.179,21.509C57.179,21.497 57.179,21.486 57.179,21.474C57.179,21.463 57.179,21.451 57.179,21.439C57.179,21.428 57.179,21.416 57.179,21.405C57.179,21.394 57.179,21.382 57.179,21.371C57.179,21.36 57.179,21.348 57.179,21.337C57.179,21.326 57.179,21.315 57.179,21.303C57.179,21.292 57.179,21.281 57.179,21.27C57.179,21.259 57.179,21.248 57.179,21.237C57.179,21.226 57.179,21.215 57.179,21.204C57.179,21.193 57.179,21.182 57.179,21.172C57.179,21.161 57.179,21.15 57.179,21.139C57.179,21.129 57.179,21.118 57.179,21.107C57.179,21.097 57.179,21.086 57.179,21.076C57.179,21.065 57.179,21.055 57.179,21.044C57.179,21.034 57.179,21.023 57.179,21.013C57.179,21.003 57.179,20.992 57.179,20.982C57.179,20.972 57.179,20.962 57.179,20.951C57.179,20.941 57.179,20.931 57.179,20.921C57.179,20.911 57.179,20.901 57.179,20.891C57.179,20.881 57.179,20.871 57.179,20.861C57.179,20.851 57.179,20.842 57.179,20.832C57.179,20.822 57.179,20.812 57.179,20.803C57.179,20.793 57.179,20.783 57.179,20.774C57.179,20.764 57.179,20.755 57.179,20.745C57.179,20.736 57.179,20.726 57.179,20.717C57.179,20.707 57.179,20.698 57.179,20.689C57.179,20.679 57.179,20.67 57.179,20.661C57.179,20.652 57.179,20.643 57.179,20.634C57.179,20.624 57.179,20.615 57.179,20.606C57.179,20.597 57.179,20.589 57.179,20.58C57.179,20.571 57.179,20.562 57.179,20.553C57.179,20.544 57.179,20.536 57.179,20.527C57.179,20.518 57.179,20.51 57.179,20.501C57.179,20.492 57.179,20.484 57.179,20.475C57.179,20.467 57.179,20.459 57.179,20.45C57.179,20.442 57.179,20.433 57.179,20.425C57.179,20.417 57.179,20.409 57.179,20.401C57.179,20.392 57.179,20.384 57.179,20.376C57.179,20.368 57.179,20.36 57.179,20.352C57.179,20.344 57.179,20.336 57.179,20.329C57.179,20.321 57.179,20.313 57.179,20.305C57.179,20.297 57.179,20.29 57.179,20.282C57.179,20.274 57.179,20.267 57.179,20.259C57.179,20.252 57.179,20.244 57.179,20.237C57.179,20.23 57.179,20.222 57.179,20.215C57.179,20.208 57.179,20.2 57.179,20.193C57.179,20.186 57.179,20.179 57.179,20.172C57.179,20.165 57.179,20.158 57.179,20.151C57.179,20.144 57.179,20.137 57.179,20.13C57.179,20.123 57.179,20.116 57.179,20.109C57.179,20.103 57.179,20.096 57.179,20.089C57.179,20.083 57.179,20.076 57.179,20.07C57.179,20.063 57.179,20.057 57.179,20.05C57.179,20.044 57.179,20.037 57.179,20.031C57.179,20.025 57.179,20.019 57.179,20.012C57.179,20.006 57.179,20 57.179,19.994C57.179,19.988 57.179,19.982 57.179,19.976C57.179,19.97 57.179,19.964 57.179,19.958C57.179,19.953 57.179,19.947 57.179,19.941C57.179,19.935 57.179,19.93 57.179,19.924C57.179,19.918 57.179,19.913 57.179,19.907C57.179,19.902 57.179,19.897 57.179,19.891C57.179,19.886 57.179,19.88 57.179,19.875C57.179,19.87 57.179,19.865 57.179,19.86C57.179,19.855 57.179,19.85 57.179,19.845C57.179,19.84 57.179,19.835 57.179,19.83C57.179,19.825 57.179,19.82 57.179,19.815C57.179,19.81 57.179,19.806 57.179,19.801C57.179,19.796 57.179,19.792 57.179,19.787C57.179,19.783 57.179,19.778 57.179,19.774C57.179,19.77 57.179,19.765 57.179,19.761C57.179,19.757 57.179,19.753 57.179,19.748C57.179,19.744 57.179,19.74 57.179,19.736C57.179,19.732 57.179,19.728 57.179,19.724C57.179,19.72 57.179,19.717 57.179,19.713C57.179,19.709 57.179,19.705 57.179,19.702C57.179,19.698 57.179,19.694 57.179,19.691C57.179,19.687 57.179,19.684 57.179,19.68C57.179,19.677 57.179,19.674 57.179,19.671C57.179,19.667 57.179,19.664 57.179,19.661C57.179,19.658 57.179,19.655 57.179,19.652C57.179,19.649 57.179,19.646 57.179,19.643C57.179,19.64 57.179,19.637 57.179,19.634C57.179,19.632 57.179,19.629 57.179,19.626C57.179,19.624 57.179,19.621 57.179,19.619C57.179,19.616 57.179,19.614 57.179,19.611C57.179,19.609 57.179,19.607 57.179,19.605C57.179,19.602 57.179,19.6 57.179,19.598C57.179,19.596 57.179,19.594 57.179,19.592C57.179,19.59 57.179,19.588 57.179,19.586C57.179,19.585 57.179,19.583 57.179,19.581C57.179,19.579 57.179,19.578 57.179,19.576C57.179,19.575 57.179,19.573 57.179,19.572C57.179,19.57 57.179,19.569 57.179,19.568C57.179,19.567 57.179,19.565 57.179,19.564C57.179,19.563 57.179,19.562 57.179,19.561C57.179,19.56 57.179,19.559 57.179,19.558L55.179,19.558C55.179,19.559 55.179,19.56 55.179,19.561C55.179,19.562 55.179,19.563 55.179,19.564C55.179,19.565 55.179,19.567 55.179,19.568C55.179,19.569 55.179,19.57 55.179,19.572C55.179,19.573 55.179,19.575 55.179,19.576C55.179,19.578 55.179,19.579 55.179,19.581C55.179,19.583 55.179,19.585 55.179,19.586C55.179,19.588 55.179,19.59 55.179,19.592C55.179,19.594 55.179,19.596 55.179,19.598C55.179,19.6 55.179,19.602 55.179,19.605C55.179,19.607 55.179,19.609 55.179,19.611C55.179,19.614 55.179,19.616 55.179,19.619C55.179,19.621 55.179,19.624 55.179,19.626C55.179,19.629 55.179,19.632 55.179,19.634C55.179,19.637 55.179,19.64 55.179,19.643C55.179,19.646 55.179,19.649 55.179,19.652C55.179,19.655 55.179,19.658 55.179,19.661C55.179,19.664 55.179,19.667 55.179,19.671C55.179,19.674 55.179,19.677 55.179,19.68C55.179,19.684 55.179,19.687 55.179,19.691C55.179,19.694 55.179,19.698 55.179,19.702C55.179,19.705 55.179,19.709 55.179,19.713C55.179,19.717 55.179,19.72 55.179,19.724C55.179,19.728 55.179,19.732 55.179,19.736C55.179,19.74 55.179,19.744 55.179,19.748C55.179,19.753 55.179,19.757 55.179,19.761C55.179,19.765 55.179,19.77 55.179,19.774C55.179,19.778 55.179,19.783 55.179,19.787C55.179,19.792 55.179,19.796 55.179,19.801C55.179,19.806 55.179,19.81 55.179,19.815C55.179,19.82 55.179,19.825 55.179,19.83C55.179,19.835 55.179,19.84 55.179,19.845C55.179,19.85 55.179,19.855 55.179,19.86C55.179,19.865 55.179,19.87 55.179,19.875C55.179,19.88 55.179,19.886 55.179,19.891C55.179,19.897 55.179,19.902 55.179,19.907C55.179,19.913 55.179,19.918 55.179,19.924C55.179,19.93 55.179,19.935 55.179,19.941C55.179,19.947 55.179,19.953 55.179,19.958C55.179,19.964 55.179,19.97 55.179,19.976C55.179,19.982 55.179,19.988 55.179,19.994C55.179,20 55.179,20.006 55.179,20.012C55.179,20.019 55.179,20.025 55.179,20.031C55.179,20.037 55.179,20.044 55.179,20.05C55.179,20.057 55.179,20.063 55.179,20.07C55.179,20.076 55.179,20.083 55.179,20.089C55.179,20.096 55.179,20.103 55.179,20.109C55.179,20.116 55.179,20.123 55.179,20.13C55.179,20.137 55.179,20.144 55.179,20.151C55.179,20.158 55.179,20.165 55.179,20.172C55.179,20.179 55.179,20.186 55.179,20.193C55.179,20.2 55.179,20.208 55.179,20.215C55.179,20.222 55.179,20.23 55.179,20.237C55.179,20.244 55.179,20.252 55.179,20.259C55.179,20.267 55.179,20.274 55.179,20.282C55.179,20.29 55.179,20.297 55.179,20.305C55.179,20.313 55.179,20.321 55.179,20.329C55.179,20.336 55.179,20.344 55.179,20.352C55.179,20.36 55.179,20.368 55.179,20.376C55.179,20.384 55.179,20.392 55.179,20.401C55.179,20.409 55.179,20.417 55.179,20.425C55.179,20.433 55.179,20.442 55.179,20.45C55.179,20.459 55.179,20.467 55.179,20.475C55.179,20.484 55.179,20.492 55.179,20.501C55.179,20.51 55.179,20.518 55.179,20.527C55.179,20.536 55.179,20.544 55.179,20.553C55.179,20.562 55.179,20.571 55.179,20.58C55.179,20.589 55.179,20.597 55.179,20.606C55.179,20.615 55.179,20.624 55.179,20.634C55.179,20.643 55.179,20.652 55.179,20.661C55.179,20.67 55.179,20.679 55.179,20.689C55.179,20.698 55.179,20.707 55.179,20.717C55.179,20.726 55.179,20.736 55.179,20.745C55.179,20.755 55.179,20.764 55.179,20.774C55.179,20.783 55.179,20.793 55.179,20.803C55.179,20.812 55.179,20.822 55.179,20.832C55.179,20.842 55.179,20.851 55.179,20.861C55.179,20.871 55.179,20.881 55.179,20.891C55.179,20.901 55.179,20.911 55.179,20.921C55.179,20.931 55.179,20.941 55.179,20.951C55.179,20.962 55.179,20.972 55.179,20.982C55.179,20.992 55.179,21.003 55.179,21.013C55.179,21.023 55.179,21.034 55.179,21.044C55.179,21.055 55.179,21.065 55.179,21.076C55.179,21.086 55.179,21.097 55.179,21.107C55.179,21.118 55.179,21.129 55.179,21.139C55.179,21.15 55.179,21.161 55.179,21.172C55.179,21.182 55.179,21.193 55.179,21.204C55.179,21.215 55.179,21.226 55.179,21.237C55.179,21.248 55.179,21.259 55.179,21.27C55.179,21.281 55.179,21.292 55.179,21.303C55.179,21.315 55.179,21.326 55.179,21.337C55.179,21.348 55.179,21.36 55.179,21.371C55.179,21.382 55.179,21.394 55.179,21.405C55.179,21.416 55.179,21.428 55.179,21.439C55.179,21.451 55.179,21.463 55.179,21.474C55.179,21.486 55.179,21.497 55.179,21.509C55.179,21.521 55.179,21.532 55.179,21.544C55.179,21.556 55.179,21.568 55.179,21.58C55.179,21.592 55.179,21.603 55.179,21.615C55.179,21.627 55.179,21.639 55.179,21.651C55.179,21.663 55.179,21.675 55.179,21.687C55.179,21.7 55.179,21.712 55.179,21.724C55.179,21.736 55.179,21.748 55.179,21.761C55.179,21.773 55.179,21.785 55.179,21.798C55.179,21.81 55.179,21.822 55.179,21.835C55.179,21.847 55.179,21.86 55.179,21.872C55.179,21.885 55.179,21.897 55.179,21.91C55.179,21.922 55.179,21.935 55.179,21.948C55.179,21.96 55.179,21.973 55.179,21.986C55.179,21.998 55.179,22.011 55.179,22.024C55.179,22.037 55.179,22.05 55.179,22.063C55.179,22.076 55.179,22.089 55.179,22.101C55.179,22.114 55.179,22.127 55.179,22.141C55.179,22.154 55.179,22.167 55.179,22.18C55.179,22.193 55.179,22.206 55.179,22.219C55.179,22.232 55.179,22.246 55.179,22.259C55.179,22.272 55.179,22.286 55.179,22.299C55.179,22.312 55.179,22.326 55.179,22.339C55.179,22.353 55.179,22.366 55.179,22.379C55.179,22.393 55.179,22.406 55.179,22.42C55.179,22.434 55.179,22.447 55.179,22.461C55.179,22.475 55.179,22.488 55.179,22.502C55.179,22.516 55.179,22.529 55.179,22.543C55.179,22.557 55.179,22.571 55.179,22.585C55.179,22.598 55.179,22.612 55.179,22.626C55.179,22.64 55.179,22.654 55.179,22.668C55.179,22.682 55.179,22.696 55.179,22.71C55.179,22.724 55.179,22.738 55.179,22.752C55.179,22.767 55.179,22.781 55.179,22.795C55.179,22.809 55.179,22.823 55.179,22.838C55.179,22.852 55.179,22.866 55.179,22.881C55.179,22.895 55.179,22.909 55.179,22.924C55.179,22.938 55.179,22.952 55.179,22.967C55.179,22.981 55.179,22.996 55.179,23.01C55.179,23.025 55.179,23.039 55.179,23.054C55.179,23.069 55.179,23.083 55.179,23.098C55.179,23.112 55.179,23.127 55.179,23.142C55.179,23.157 55.179,23.171 55.179,23.186C55.179,23.201 55.179,23.216 55.179,23.231C55.179,23.245 55.179,23.26 55.179,23.275C55.179,23.29 55.179,23.305 55.179,23.32C55.179,23.335 55.179,23.35 55.179,23.365C55.179,23.38 55.179,23.395 55.179,23.41C55.179,23.425 55.179,23.44 55.179,23.455C55.179,23.47 55.179,23.486 55.179,23.501C55.179,23.516 55.179,23.531 55.179,23.547C55.179,23.562 55.179,23.577 55.179,23.592C55.179,23.608 55.179,23.623 55.179,23.638C55.179,23.654 55.179,23.669 55.179,23.685C55.179,23.7 55.179,23.715 55.179,23.731C55.179,23.746 55.179,23.762 55.179,23.777C55.179,23.793 55.179,23.809 55.179,23.824C55.179,23.84 55.179,23.855 55.179,23.871C55.179,23.887 55.179,23.902 55.179,23.918C55.179,23.934 55.179,23.949 55.179,23.965C55.179,23.981 55.179,23.997 55.179,24.013C55.179,24.028 55.179,24.044 55.179,24.06C55.179,24.076 55.179,24.092 55.179,24.108C55.179,24.124 55.179,24.14 55.179,24.155C55.179,24.171 55.179,24.187 55.179,24.203C55.179,24.219 55.179,24.235 55.179,24.252C55.179,24.268 55.179,24.284 55.179,24.3C55.179,24.316 55.179,24.332 55.179,24.348C55.179,24.364 55.179,24.381 55.179,24.397C55.179,24.413 55.179,24.429 55.179,24.445C55.179,24.462 55.179,24.478 55.179,24.494C55.179,24.511 55.179,24.527 55.179,24.543C55.179,24.56 55.179,24.576 55.179,24.592C55.179,24.609 55.179,24.625 55.179,24.642C55.179,24.658 55.179,24.674 55.179,24.691C55.179,24.707 55.179,24.724 55.179,24.74C55.179,24.757 55.179,24.774 55.179,24.79C55.179,24.807 55.179,24.823 55.179,24.84C55.179,24.857 55.179,24.873 55.179,24.89C55.179,24.906 55.179,24.923 55.179,24.94C55.179,24.957 55.179,24.973 55.179,24.99C55.179,25.007 55.179,25.024 55.179,25.04C55.179,25.057 55.179,25.074 55.179,25.091C55.179,25.108 55.179,25.124 55.179,25.141C55.179,25.158 55.179,25.175 55.179,25.192C55.179,25.209 55.179,25.226 55.179,25.243C55.179,25.26 55.179,25.277 55.179,25.294C55.179,25.311 55.179,25.328 55.179,25.345C55.179,25.362 55.179,25.379 55.179,25.396C55.179,25.413 55.179,25.43 55.179,25.447C55.179,25.464 55.179,25.481 55.179,25.498C55.179,25.515 55.179,25.532 55.179,25.55C55.179,25.567 55.179,25.584 55.179,25.601C55.179,25.618 55.179,25.636 55.179,25.653C55.179,25.67 55.179,25.687 55.179,25.705C55.179,25.722 55.179,25.739 55.179,25.756C55.179,25.774 55.179,25.791 55.179,25.808C55.179,25.826 55.179,25.843 55.179,25.86C55.179,25.878 55.179,25.895 55.179,25.913C55.179,25.93 55.179,25.947 55.179,25.965C55.179,25.982 55.179,26 55.179,26.017C55.179,26.035 55.179,26.052 55.179,26.07C55.179,26.087 55.179,26.105 55.179,26.122C55.179,26.14 55.179,26.157 55.179,26.175C55.179,26.192 55.179,26.21 55.179,26.227C55.179,26.245 55.179,26.263 55.179,26.28C55.179,26.298 55.179,26.315 55.179,26.333C55.179,26.351 55.179,26.368 55.179,26.386C55.179,26.404 55.179,26.421 55.179,26.439C55.179,26.457 55.179,26.474 55.179,26.492C55.179,26.51 55.179,26.528 55.179,26.545C55.179,26.563 55.179,26.581 55.179,26.599C55.179,26.616 55.179,26.634 55.179,26.652C55.179,26.67 55.179,26.687 55.179,26.705C55.179,26.723 55.179,26.741 55.179,26.759C55.179,26.777 55.179,26.794 55.179,26.812C55.179,26.83 55.179,26.848 55.179,26.866C55.179,26.884 55.179,26.902 55.179,26.92C55.179,26.937 55.179,26.955 55.179,26.973C55.179,26.991 55.179,27.009 55.179,27.027C55.179,27.045 55.179,27.063 55.179,27.081C55.179,27.099 55.179,27.117 55.179,27.135C55.179,27.153 55.179,27.171 55.179,27.189C55.179,27.207 55.179,27.225 55.179,27.243C55.179,27.261 55.179,27.279 55.179,27.297C55.179,27.315 55.179,27.333 55.179,27.351C55.179,27.369 55.179,27.387 55.179,27.405C55.179,27.423 55.179,27.441 55.179,27.459C55.179,27.478 55.179,27.496 55.179,27.514C55.179,27.532 55.179,27.55 55.179,27.568C55.179,27.586 55.179,27.604 55.179,27.622C55.179,27.641 55.179,27.659 55.179,27.677C55.179,27.695 55.179,27.713 55.179,27.731C55.179,27.749 55.179,27.768 55.179,27.786C55.179,27.804 55.179,27.822 55.179,27.84C55.179,27.858 55.179,27.877 55.179,27.895C55.179,27.913 55.179,27.931 55.179,27.949C55.179,27.968 55.179,27.986 55.179,28.004C55.179,28.022 55.179,28.041 55.179,28.059C55.179,28.077 55.179,28.095 55.179,28.113C55.179,28.132 55.179,28.15 55.179,28.168C55.179,28.186 55.179,28.205 55.179,28.223C55.179,28.241 55.179,28.259 55.179,28.278C55.179,28.296 55.179,28.314 55.179,28.332C55.179,28.351 55.179,28.369 55.179,28.387C55.179,28.406 55.179,28.424 55.179,28.442C55.179,28.46 55.179,28.479 55.179,28.497C55.179,28.515 55.179,28.534 55.179,28.552C55.179,28.57 55.179,28.588 55.179,28.607C55.179,28.625 55.179,28.643 55.179,28.662C55.179,28.68 55.179,28.698 55.179,28.716C55.179,28.735 55.179,28.753 55.179,28.771C55.179,28.79 55.179,28.808 55.179,28.826C55.179,28.845 55.179,28.863 55.179,28.881C55.179,28.9 55.179,28.918 55.179,28.936C55.179,28.954 55.179,28.973 55.179,28.991C55.179,29.009 55.179,29.028 55.179,29.046C55.179,29.064 55.179,29.083 55.179,29.101C55.179,29.119 55.179,29.138 55.179,29.156C55.179,29.174 55.179,29.193 55.179,29.211C55.179,29.229 55.179,29.247 55.179,29.266C55.179,29.284 55.179,29.302 55.179,29.321C55.179,29.339 55.179,29.357 55.179,29.376C55.179,29.394 55.179,29.412 55.179,29.431C55.179,29.449 55.179,29.467 55.179,29.485C55.179,29.504 55.179,29.522 55.179,29.54C55.179,29.559 55.179,29.577 55.179,29.595C55.179,29.613 55.179,29.632 55.179,29.65C55.179,29.668 55.179,29.687 55.179,29.705C55.179,29.723 55.179,29.741 55.179,29.76C55.179,29.778 55.179,29.796 55.179,29.814C55.179,29.833 55.179,29.851 55.179,29.869C55.179,29.887 55.179,29.906 55.179,29.924C55.179,29.942 55.179,29.96 55.179,29.979C55.179,29.997 55.179,30.015 55.179,30.033C55.179,30.052 55.179,30.07 55.179,30.088C55.179,30.106 55.179,30.124 55.179,30.143C55.179,30.161 55.179,30.179 55.179,30.197C55.179,30.215 55.179,30.234 55.179,30.252C55.179,30.27 55.179,30.288 55.179,30.306C55.179,30.324 55.179,30.343 55.179,30.361C55.179,30.379 55.179,30.397 55.179,30.415C55.179,30.433 55.179,30.451 55.179,30.47C55.179,30.488 55.179,30.506 55.179,30.524C55.179,30.542 55.179,30.56 55.179,30.578C55.179,30.596 55.179,30.614 55.179,30.633C55.179,30.651 55.179,30.669 55.179,30.687C55.179,30.705 55.179,30.723 55.179,30.741C55.179,30.759 55.179,30.777 55.179,30.795C55.179,30.813 55.179,30.831 55.179,30.849C55.179,30.867 55.179,30.885 55.179,30.903C55.179,30.921 55.179,30.939 55.179,30.957C55.179,30.975 55.179,30.993 55.179,31.011C55.179,31.029 55.179,31.047 55.179,31.065C55.179,31.083 55.179,31.101 55.179,31.119C55.179,31.136 55.179,31.154 55.179,31.172C55.179,31.19 55.179,31.208 55.179,31.226C55.179,31.244 55.179,31.262 55.179,31.28C55.179,31.297 55.179,31.315 55.179,31.333C55.179,31.351 55.179,31.369 55.179,31.387C55.179,31.404 55.179,31.422 55.179,31.44C55.179,31.458 55.179,31.475 55.179,31.493C55.179,31.511 55.179,31.529 55.179,31.546C55.179,31.564 55.179,31.582 55.179,31.6C55.179,31.617 55.179,31.635 55.179,31.653C55.179,31.67 55.179,31.688 55.179,31.706C55.179,31.723 55.179,31.741 55.179,31.759C55.179,31.776 55.179,31.794 55.179,31.811C55.179,31.829 55.179,31.847 55.179,31.864C55.179,31.882 55.179,31.899 55.179,31.917C55.179,31.934 55.179,31.952 55.179,31.969C55.179,31.987 55.179,32.004 55.179,32.022C55.179,32.039 55.179,32.057 55.179,32.074C55.179,32.092 55.179,32.109 55.179,32.127C55.179,32.144 55.179,32.162 55.179,32.179C55.179,32.196 55.179,32.214 55.179,32.231C55.179,32.248 55.179,32.266 55.179,32.283C55.179,32.3 55.179,32.318 55.179,32.335C55.179,32.352 55.179,32.37 55.179,32.387C55.179,32.404 55.179,32.421 55.179,32.439C55.179,32.456 55.179,32.473 55.179,32.49C55.179,32.507 55.179,32.525 55.179,32.542C55.179,32.559 55.179,32.576 55.179,32.593C55.179,32.61 55.179,32.627 55.179,32.644C55.179,32.662 55.179,32.679 55.179,32.696C55.179,32.713 55.179,32.73 55.179,32.747C55.179,32.764 55.179,32.781 55.179,32.798C55.179,32.815 55.179,32.832 55.179,32.849C55.179,32.865 55.179,32.882 55.179,32.899C55.179,32.916 55.179,32.933 55.179,32.95C55.179,32.967 55.179,32.984 55.179,33C55.179,33.017 55.179,33.034 55.179,33.051C55.179,33.068 55.179,33.084 55.179,33.101C55.179,33.118 55.179,33.134 55.179,33.151C55.179,33.168 55.179,33.185 55.179,33.201C55.179,33.218 55.179,33.234 55.179,33.251C55.179,33.268 55.179,33.284 55.179,33.301C55.179,33.317 55.179,33.334 55.179,33.35C55.179,33.367 55.179,33.383 55.179,33.4C55.179,33.416 55.179,33.433 55.179,33.449C55.179,33.466 55.179,33.482 55.179,33.498C55.179,33.515 55.179,33.531 55.179,33.548C55.179,33.564 55.179,33.58 55.179,33.597C55.179,33.613 55.179,33.629 55.179,33.645C55.179,33.662 55.179,33.678 55.179,33.694C55.179,33.71 55.179,33.726 55.179,33.742C55.179,33.759 55.179,33.775 55.179,33.791C55.179,33.807 55.179,33.823 55.179,33.839C55.179,33.855 55.179,33.871 55.179,33.887C55.179,33.903 55.179,33.919 55.179,33.935C55.179,33.951 55.179,33.967 55.179,33.983C55.179,33.999 55.179,34.015 55.179,34.03C55.179,34.046 55.179,34.062 55.179,34.078C55.179,34.094 55.179,34.109 55.179,34.125C55.179,34.141 55.179,34.157 55.179,34.172C55.179,34.188 55.179,34.204 55.179,34.219C55.179,34.235 55.179,34.251 55.179,34.266C55.179,34.282 55.179,34.297 55.179,34.313C55.179,34.328 55.179,34.344 55.179,34.359C55.179,34.375 55.179,34.39 55.179,34.406C55.179,34.421 55.179,34.436 55.179,34.452C55.179,34.467 55.179,34.482 55.179,34.498C55.179,34.513 55.179,34.528 55.179,34.544C55.179,34.559 55.179,34.574 55.179,34.589C55.179,34.604 55.179,34.62 55.179,34.635C55.179,34.65 55.179,34.665 55.179,34.68C55.179,34.695 55.179,34.71 55.179,34.725C55.179,34.74 55.179,34.755 55.179,34.77C55.179,34.785 55.179,34.8 55.179,34.815C55.179,34.83 55.179,34.844 55.179,34.859C55.179,34.874 55.179,34.889 55.179,34.904C55.179,34.918 55.179,34.933 55.179,34.948C55.179,34.963 55.179,34.977 55.179,34.992C55.179,35.006 55.179,35.021 55.179,35.036C55.179,35.05 55.179,35.065 55.179,35.079C55.179,35.094 55.179,35.108 55.179,35.123C55.179,35.137 55.179,35.152 55.179,35.166C55.179,35.18 55.179,35.195 55.179,35.209C55.179,35.223 55.179,35.238 55.179,35.252C55.179,35.266 55.179,35.28 55.179,35.294C55.179,35.309 55.179,35.323 55.179,35.337C55.179,35.351 55.179,35.365 55.179,35.379C55.179,35.393 55.179,35.407 55.179,35.421C55.179,35.435 55.179,35.449 55.179,35.463C55.179,35.477 55.179,35.491 55.179,35.505C55.179,35.518 55.179,35.532 55.179,35.546C55.179,35.56 55.179,35.573 55.179,35.587C55.179,35.601 55.179,35.614 55.179,35.628C55.179,35.642 55.179,35.655 55.179,35.669C55.179,35.682 55.179,35.696 55.179,35.709C55.179,35.723 55.179,35.736 55.179,35.75C55.179,35.763 55.179,35.777 55.179,35.79C55.179,35.803 55.179,35.816 55.179,35.83C55.179,35.843 55.179,35.856 55.179,35.869C55.179,35.883 55.179,35.896 55.179,35.909C55.179,35.922 55.179,35.935 55.179,35.948C55.179,35.961 55.179,35.974 55.179,35.987C55.179,36 55.179,36.013 55.179,36.026C55.179,36.039 55.179,36.052 55.179,36.064C55.179,36.077 55.179,36.09 55.179,36.103C55.179,36.115 55.179,36.128 55.179,36.141C55.179,36.153 55.179,36.166 55.179,36.179C55.179,36.191 55.179,36.204 55.179,36.216C55.179,36.229 55.179,36.241 55.179,36.253C55.179,36.266 55.179,36.278 55.179,36.291C55.179,36.303 55.179,36.315 55.179,36.327C55.179,36.34 55.179,36.352 55.179,36.364C55.179,36.376 55.179,36.388 55.179,36.4C55.179,36.413 55.179,36.425 55.179,36.437C55.179,36.449 55.179,36.461 55.179,36.472C55.179,36.484 55.179,36.496 55.179,36.508C55.179,36.52 55.179,36.532 55.179,36.543C55.179,36.555 55.179,36.567 55.179,36.579C55.179,36.59 55.179,36.602 55.179,36.613C55.179,36.625 55.179,36.637 55.179,36.648C55.179,36.66 55.179,36.671 55.179,36.682C55.179,36.694 55.179,36.705 55.179,36.717C55.179,36.728 55.179,36.739 55.179,36.75C55.179,36.762 55.179,36.773 55.179,36.784C55.179,36.795 55.179,36.806 55.179,36.817C55.179,36.828 55.179,36.839 55.179,36.85C55.179,36.861 55.179,36.872 55.179,36.883C55.179,36.894 55.179,36.905 55.179,36.915C55.179,36.926 55.179,36.937 55.179,36.948C55.179,36.958 55.179,36.969 55.179,36.98C55.179,36.99 55.179,37.001 55.179,37.011C55.179,37.022 55.179,37.032 55.179,37.043C55.179,37.053 55.179,37.064 55.179,37.074C55.179,37.084 55.179,37.094 55.179,37.105C55.179,37.115 55.179,37.125 55.179,37.135C55.179,37.145 55.179,37.155 55.179,37.166C55.179,37.176 55.179,37.186 55.179,37.196C55.179,37.205 55.179,37.215 55.179,37.225C55.179,37.235 55.179,37.245 55.179,37.255C55.179,37.264 55.179,37.274 55.179,37.284C55.179,37.293 55.179,37.303 55.179,37.313C55.179,37.322 55.179,37.332 55.179,37.341C55.179,37.351 55.179,37.36 55.179,37.369C55.179,37.379 55.179,37.388 55.179,37.397C55.179,37.407 55.179,37.416 55.179,37.425C55.179,37.434 55.179,37.443 55.179,37.452C55.179,37.461 55.179,37.47 55.179,37.479C55.179,37.488 55.179,37.497 55.179,37.506C55.179,37.515 55.179,37.524 55.179,37.533C55.179,37.541 55.179,37.55 55.179,37.559C55.179,37.567 55.179,37.576 55.179,37.585C55.179,37.593 55.179,37.602 55.179,37.61C55.179,37.619 55.179,37.627 55.179,37.635C55.179,37.644 55.179,37.652 55.179,37.66C55.179,37.668 55.179,37.677 55.179,37.685C55.179,37.693 55.179,37.701 55.179,37.709C55.179,37.717 55.179,37.725 55.179,37.733C55.179,37.741 55.179,37.749 55.179,37.757C55.179,37.764 55.179,37.772 55.179,37.78C55.179,37.788 55.179,37.795 55.179,37.803C55.179,37.81 55.179,37.818 55.179,37.826C55.179,37.833 55.179,37.84 55.179,37.848C55.179,37.855 55.179,37.863 55.179,37.87C55.179,37.877 55.179,37.884 55.179,37.892C55.179,37.899 55.179,37.906 55.179,37.913C55.179,37.92 55.179,37.927 55.179,37.934C55.179,37.941 55.179,37.948 55.179,37.955C55.179,37.961 55.179,37.968 55.179,37.975C55.179,37.982 55.179,37.988 55.179,37.995C55.179,38.002 55.179,38.008 55.179,38.015C55.179,38.021 55.179,38.028 55.179,38.034C55.179,38.04 55.179,38.047 55.179,38.053C55.179,38.059 55.179,38.065 55.179,38.072C55.179,38.078 55.179,38.084 55.179,38.09C55.179,38.096 55.179,38.102 55.179,38.108C55.179,38.114 55.179,38.12 55.179,38.125C55.179,38.131 55.179,38.137 55.179,38.143C55.179,38.148 55.179,38.154 55.179,38.16C55.179,38.165 55.179,38.171 55.179,38.176C55.179,38.182 55.179,38.187 55.179,38.192C55.179,38.198 55.179,38.203 55.179,38.208C55.179,38.213 55.179,38.218 55.179,38.224C55.179,38.229 55.179,38.234 55.179,38.239C55.179,38.244 55.179,38.249 55.179,38.253C55.179,38.258 55.179,38.263 55.179,38.268C55.179,38.273 55.179,38.277 55.179,38.282C55.179,38.286 55.179,38.291 55.179,38.296C55.179,38.3 55.179,38.304 55.179,38.309C55.179,38.313 55.179,38.317 55.179,38.322C55.179,38.326 55.179,38.33 55.179,38.334C55.179,38.338 55.179,38.342 55.179,38.346C55.179,38.35 55.179,38.354 55.179,38.358C55.179,38.362 55.179,38.366 55.179,38.37C55.179,38.373 55.179,38.377 55.179,38.381C55.179,38.384 55.179,38.388 55.179,38.391C55.179,38.395 55.179,38.398 55.179,38.402C55.179,38.405 55.179,38.408 55.179,38.412C55.179,38.415 55.179,38.418 55.179,38.421C55.179,38.424 55.179,38.427 55.179,38.43C55.179,38.433 55.179,38.436 55.179,38.439C55.179,38.442 55.179,38.445 55.179,38.447C55.179,38.45 55.179,38.453 55.179,38.455C55.179,38.458 55.179,38.46 55.179,38.463C55.179,38.465 55.179,38.468 55.179,38.47C55.179,38.472 55.179,38.475 55.179,38.477C55.179,38.479 55.179,38.481 55.179,38.483C55.179,38.485 55.179,38.487 55.179,38.489C55.179,38.491 55.179,38.493 55.179,38.495C55.179,38.496 55.179,38.498 55.179,38.5C55.179,38.501 55.179,38.503 55.179,38.505C55.179,38.506 55.179,38.508 55.179,38.509C55.179,38.51 55.179,38.512 55.179,38.513C55.179,38.514 55.179,38.515 55.179,38.516C55.179,38.518 55.179,38.519 55.179,38.52C55.179,38.521 55.179,38.521 55.179,38.522C55.179,38.523 55.179,38.524 55.179,38.525C55.179,38.525 55.179,38.526 55.179,38.527C55.179,38.527 55.179,38.528 55.179,38.528C55.179,38.528 55.179,38.529 55.179,38.529C55.179,38.529 55.179,38.53 55.179,38.53C55.179,38.53 55.179,38.53 56.179,38.53ZM56.179,18.558L10.057,18.558L10.057,20.558L56.179,20.558L56.179,18.558ZM56.935,72.242C53.915,68.748 49.64,66.597 45.043,66.258L44.896,68.253C48.963,68.552 52.748,70.456 55.422,73.55L56.935,72.242ZM45.043,66.258C40.446,65.92 35.903,67.423 32.407,70.436L33.713,71.951C36.808,69.283 40.829,67.954 44.896,68.253L45.043,66.258ZM32.405,70.438C30.906,71.739 29.166,72.731 27.285,73.356L27.916,75.254C30.047,74.545 32.018,73.422 33.716,71.949L32.405,70.438ZM27.285,73.356C25.404,73.982 23.419,74.229 21.443,74.084L21.297,76.079C23.536,76.243 25.785,75.963 27.916,75.254L27.285,73.356ZM21.443,74.084C19.467,73.94 17.538,73.405 15.768,72.512L14.867,74.298C16.873,75.31 19.058,75.915 21.297,76.079L21.443,74.084ZM15.768,72.512C13.997,71.619 12.419,70.384 11.124,68.878L9.608,70.183C11.074,71.888 12.861,73.286 14.867,74.298L15.768,72.512ZM82.208,66.784C82.208,81.83 70.059,94.019 55.081,94.019L55.081,96.019C71.171,96.019 84.208,82.927 84.208,66.784L82.208,66.784ZM55.081,94.019C40.102,94.019 27.953,81.83 27.953,66.784L25.953,66.784C25.953,82.927 38.99,96.019 55.081,96.019L55.081,94.019ZM27.953,66.784C27.953,51.739 40.102,39.549 55.081,39.549L55.081,37.549C38.99,37.549 25.953,50.642 25.953,66.784L27.953,66.784ZM55.081,39.549C70.059,39.549 82.208,51.739 82.208,66.784L84.208,66.784C84.208,50.642 71.171,37.549 55.081,37.549L55.081,39.549ZM65.747,92.935L79.272,122.988L81.096,122.167L67.571,92.114L65.747,92.935ZM4.74,2.708L61.438,2.708L61.438,0.708L4.74,0.708L4.74,2.708ZM61.438,2.708C62.403,2.708 63.33,3.093 64.013,3.779L65.43,2.367C64.372,1.305 62.936,0.708 61.438,0.708L61.438,2.708ZM64.013,3.779C64.697,4.465 65.081,5.397 65.081,6.369L67.081,6.369C67.081,4.869 66.488,3.429 65.43,2.367L64.013,3.779ZM65.081,6.369L65.081,19.577L67.081,19.577L67.081,6.369L65.081,6.369ZM66.081,18.577L0.097,18.577L0.097,20.577L66.081,20.577L66.081,18.577ZM1.097,19.577L1.097,6.369L-0.903,6.369L-0.903,19.577L1.097,19.577ZM1.097,6.369C1.097,5.397 1.482,4.465 2.166,3.779L0.749,2.367C-0.309,3.429 -0.903,4.869 -0.903,6.369L1.097,6.369ZM2.166,3.779C2.849,3.093 3.775,2.708 4.74,2.708L4.74,0.708C3.242,0.708 1.807,1.305 0.749,2.367L2.166,3.779Z" fill="#FFFFFF"/>
</svg>
