<svg width="88" height="62" viewBox="0 0 88 62" fill="none" xmlns="http://www.w3.org/2000/svg" xmlns:xlink="http://www.w3.org/1999/xlink">
<path d="M58.049,33.558L56.677,33.558L56.677,33.559L58.049,33.558ZM56.126,43.282L57.394,43.806L57.394,43.805L56.126,43.282ZM51.712,33.558L53.084,33.56L53.084,33.555L51.712,33.558ZM56.138,23.822L57.407,23.301L57.406,23.297L56.138,23.822ZM43.118,33.558L44.491,33.56L44.491,33.555L43.118,33.558ZM50.577,15.505L51.547,14.534C51.011,13.999 50.143,13.999 49.608,14.534L50.577,15.505ZM2.333,33.484L1.804,32.218C1.29,32.433 0.957,32.938 0.961,33.495C0.965,34.053 1.307,34.552 1.824,34.759L2.333,33.484ZM49.985,15.056C50.684,14.764 51.014,13.96 50.722,13.261C50.429,12.562 49.626,12.232 48.926,12.524L49.985,15.056ZM55.189,54.598L56.503,54.991C56.707,54.311 56.358,53.587 55.698,53.323L55.189,54.598ZM51.317,59.368C50.871,59.981 51.007,60.839 51.62,61.285C52.233,61.731 53.091,61.595 53.537,60.982L51.317,59.368ZM85.667,34.857C86.424,34.857 87.039,34.242 87.039,33.484C87.039,32.726 86.424,32.112 85.667,32.112L85.667,34.857ZM81.968,32.112C81.21,32.112 80.595,32.726 80.595,33.484C80.595,34.242 81.21,34.857 81.968,34.857L81.968,32.112ZM78.158,34.857C78.916,34.857 79.53,34.242 79.53,33.484C79.53,32.726 78.916,32.112 78.158,32.112L78.158,34.857ZM71.155,32.112C70.397,32.112 69.783,32.726 69.783,33.484C69.783,34.242 70.397,34.857 71.155,34.857L71.155,32.112ZM67.395,34.857C68.153,34.857 68.767,34.242 68.767,33.484C68.767,32.726 68.153,32.112 67.395,32.112L67.395,34.857ZM63.696,32.112C62.938,32.112 62.323,32.726 62.323,33.484C62.323,34.242 62.938,34.857 63.696,34.857L63.696,32.112ZM83.409,60.039C84.009,60.503 84.871,60.393 85.334,59.793C85.798,59.194 85.688,58.332 85.088,57.868L83.409,60.039ZM82.647,55.98C82.047,55.516 81.186,55.626 80.722,56.226C80.258,56.826 80.368,57.687 80.968,58.151L82.647,55.98ZM76.704,54.957C77.305,55.419 78.167,55.307 78.629,54.707C79.091,54.106 78.979,53.244 78.379,52.782L76.704,54.957ZM70.365,46.612C69.764,46.15 68.903,46.262 68.44,46.862C67.978,47.463 68.09,48.325 68.69,48.787L70.365,46.612ZM64.987,45.735C65.585,46.2 66.447,46.092 66.912,45.494C67.377,44.896 67.269,44.033 66.671,43.568L64.987,45.735ZM64.242,41.68C63.644,41.215 62.782,41.323 62.316,41.922C61.851,42.52 61.959,43.382 62.558,43.847L64.242,41.68ZM62.558,23.134C61.959,23.599 61.851,24.461 62.316,25.059C62.782,25.658 63.644,25.766 64.242,25.301L62.558,23.134ZM66.671,23.413C67.269,22.948 67.377,22.085 66.912,21.487C66.447,20.888 65.585,20.78 64.987,21.246L66.671,23.413ZM68.706,18.219C68.099,18.673 67.975,19.533 68.428,20.14C68.882,20.747 69.742,20.871 70.349,20.417L68.706,18.219ZM77.747,14.889C78.354,14.436 78.478,13.576 78.024,12.969C77.571,12.361 76.711,12.237 76.104,12.691L77.747,14.889ZM80.968,8.83C80.368,9.293 80.258,10.155 80.722,10.755C81.186,11.354 82.047,11.465 82.647,11.001L80.968,8.83ZM85.088,9.113C85.688,8.649 85.798,7.787 85.334,7.188C84.871,6.588 84.009,6.478 83.409,6.942L85.088,9.113ZM48.95,14L48.632,12.665C48.128,12.785 47.735,13.178 47.615,13.682C47.495,14.186 47.669,14.714 48.064,15.048L48.95,14ZM56.544,2.259C56.663,1.511 56.153,0.807 55.405,0.687C54.657,0.568 53.953,1.078 53.833,1.826L56.544,2.259ZM50.528,15.443L51.498,14.472L51.487,14.462L50.528,15.443ZM56.089,23.761L54.821,24.286L54.822,24.289L56.089,23.761ZM32.565,59.065L32.565,57.692L32.565,57.692L32.565,59.065ZM7.068,33.558L5.695,33.558L5.695,33.559L7.068,33.558ZM8.51,31.663C8.567,30.907 8.001,30.248 7.245,30.191C6.49,30.134 5.831,30.7 5.773,31.455L8.51,31.663ZM5.724,31.386C5.663,32.142 6.225,32.804 6.981,32.865C7.736,32.927 8.399,32.364 8.46,31.609L5.724,31.386ZM32.515,8.052L32.515,9.424L32.517,9.424L32.515,8.052ZM48.063,15.109C48.642,15.599 49.508,15.527 49.998,14.948C50.487,14.37 50.415,13.504 49.837,13.014L48.063,15.109ZM36.188,17.715C35.617,18.213 35.557,19.08 36.054,19.652C36.552,20.223 37.419,20.283 37.99,19.786L36.188,17.715ZM45.142,5.23C45.321,4.493 44.869,3.751 44.133,3.572C43.396,3.393 42.654,3.845 42.475,4.581L45.142,5.23ZM56.677,33.559C56.679,36.715 56.06,39.841 54.857,42.759L57.394,43.805C58.735,40.555 59.424,37.073 59.421,33.558L56.677,33.559ZM57.028,42.248C55.788,41.166 54.795,39.831 54.114,38.332L51.615,39.467C52.457,41.323 53.688,42.976 55.223,44.316L57.028,42.248ZM54.114,38.332C53.434,36.834 53.083,35.206 53.084,33.56L50.34,33.557C50.338,35.595 50.772,37.611 51.615,39.467L54.114,38.332ZM53.084,33.555C53.08,31.906 53.431,30.276 54.114,28.775L51.615,27.639C50.77,29.499 50.335,31.519 50.34,33.562L53.084,33.555ZM54.114,28.775C54.796,27.275 55.793,25.939 57.037,24.859L55.238,22.786C53.696,24.124 52.46,25.78 51.615,27.639L54.114,28.775ZM54.869,24.344C56.069,27.266 56.684,30.396 56.677,33.555L59.421,33.561C59.429,30.042 58.745,26.556 57.407,23.301L54.869,24.344ZM54.857,42.759C53.644,45.699 51.86,48.369 49.608,50.615L51.547,52.558C54.055,50.056 56.042,47.081 57.394,43.806L54.857,42.759ZM51.547,50.615C49.306,48.378 47.529,45.72 46.318,42.793L43.782,43.842C45.131,47.103 47.111,50.065 49.608,52.558L51.547,50.615ZM46.318,42.793C45.107,39.866 44.486,36.728 44.491,33.56L41.746,33.556C41.741,37.086 42.433,40.581 43.782,43.842L46.318,42.793ZM44.491,33.555C44.484,30.384 45.104,27.242 46.315,24.31L43.779,23.262C42.43,26.528 41.739,30.028 41.746,33.561L44.491,33.555ZM46.315,24.31C47.527,21.379 49.305,18.717 51.547,16.476L49.608,14.534C47.109,17.031 45.128,19.997 43.779,23.262L46.315,24.31ZM49.608,16.476C51.862,18.728 53.651,21.402 54.87,24.347L57.406,23.297C56.049,20.019 54.058,17.041 51.547,14.534L49.608,16.476ZM2.862,34.75L49.985,15.056L48.926,12.524L1.804,32.218L2.862,34.75ZM1.824,34.759L54.679,55.872L55.698,53.323L2.842,32.21L1.824,34.759ZM53.874,54.204C53.319,56.058 52.454,57.804 51.317,59.368L53.537,60.982C54.856,59.167 55.859,57.142 56.503,54.991L53.874,54.204ZM85.667,32.112L81.968,32.112L81.968,34.857L85.667,34.857L85.667,32.112ZM78.158,32.112L71.155,32.112L71.155,34.857L78.158,34.857L78.158,32.112ZM67.395,32.112L63.696,32.112L63.696,34.857L67.395,34.857L67.395,32.112ZM85.088,57.868L82.647,55.98L80.968,58.151L83.409,60.039L85.088,57.868ZM78.379,52.782L70.365,46.612L68.69,48.787L76.704,54.957L78.379,52.782ZM66.671,43.568L64.242,41.68L62.558,43.847L64.987,45.735L66.671,43.568ZM64.242,25.301L66.671,23.413L64.987,21.246L62.558,23.134L64.242,25.301ZM70.349,20.417L77.747,14.889L76.104,12.691L68.706,18.219L70.349,20.417ZM82.647,11.001L85.088,9.113L83.409,6.942L80.968,8.83L82.647,11.001ZM48.95,14C49.269,15.335 49.27,15.334 49.272,15.334C49.272,15.334 49.274,15.334 49.275,15.333C49.277,15.333 49.279,15.332 49.281,15.332C49.285,15.331 49.29,15.329 49.295,15.328C49.305,15.326 49.316,15.323 49.328,15.319C49.352,15.313 49.381,15.304 49.414,15.294C49.479,15.273 49.561,15.245 49.657,15.206C49.849,15.129 50.099,15.012 50.389,14.837C50.972,14.486 51.707,13.909 52.477,12.975C54.015,11.109 55.647,7.87 56.544,2.259L53.833,1.826C52.991,7.099 51.505,9.839 50.358,11.23C49.785,11.925 49.287,12.297 48.972,12.487C48.813,12.582 48.697,12.634 48.637,12.658C48.607,12.671 48.59,12.676 48.589,12.676C48.588,12.676 48.591,12.675 48.598,12.673C48.602,12.673 48.606,12.671 48.612,12.67C48.615,12.669 48.618,12.668 48.621,12.668C48.623,12.667 48.624,12.667 48.626,12.666C48.627,12.666 48.628,12.666 48.629,12.666C48.63,12.665 48.632,12.665 48.95,14ZM48.064,15.048C48.587,15.49 49.08,15.947 49.569,16.425L51.487,14.462C50.965,13.952 50.423,13.448 49.836,12.952L48.064,15.048ZM49.558,16.415C51.813,18.666 53.601,21.341 54.821,24.286L57.357,23.236C55.999,19.957 54.008,16.979 51.498,14.472L49.558,16.415ZM54.822,24.289C56.046,27.226 56.676,30.376 56.677,33.558L59.421,33.558C59.421,30.014 58.719,26.504 57.355,23.233L54.822,24.289ZM49.605,50.618C47.37,52.862 44.714,54.642 41.79,55.856L42.842,58.391C46.101,57.039 49.06,55.055 51.55,52.555L49.605,50.618ZM41.79,55.856C38.866,57.07 35.731,57.694 32.565,57.692L32.564,60.437C36.091,60.439 39.584,59.744 42.842,58.391L41.79,55.856ZM32.565,57.692C26.169,57.692 20.034,55.15 15.51,50.624L13.569,52.565C18.608,57.605 25.44,60.437 32.565,60.437L32.565,57.692ZM15.51,50.624C10.986,46.099 8.443,39.96 8.44,33.558L5.695,33.559C5.699,40.688 8.531,47.525 13.569,52.565L15.51,50.624ZM8.44,33.558C8.44,32.909 8.463,32.277 8.51,31.663L5.773,31.455C5.721,32.141 5.695,32.842 5.695,33.558L8.44,33.558ZM8.46,31.609C8.952,25.563 11.701,19.924 16.158,15.813L14.297,13.795C9.333,18.373 6.273,24.653 5.724,31.386L8.46,31.609ZM16.158,15.813C20.615,11.703 26.454,9.422 32.515,9.424L32.516,6.68C25.765,6.677 19.261,9.217 14.297,13.795L16.158,15.813ZM32.517,9.424C38.209,9.415 43.718,11.43 48.063,15.109L49.837,13.014C44.995,8.915 38.855,6.67 32.513,6.68L32.517,9.424ZM37.089,18.751C37.99,19.786 37.991,19.785 37.991,19.785C37.992,19.785 37.992,19.784 37.993,19.784C37.993,19.783 37.994,19.782 37.995,19.781C37.997,19.78 38,19.778 38.002,19.775C38.007,19.771 38.013,19.766 38.02,19.76C38.034,19.747 38.052,19.731 38.073,19.711C38.117,19.67 38.175,19.614 38.247,19.542C38.391,19.399 38.589,19.19 38.83,18.911C39.312,18.354 39.963,17.518 40.688,16.359C42.138,14.04 43.875,10.443 45.142,5.23L42.475,4.581C41.277,9.511 39.654,12.836 38.361,14.904C37.714,15.939 37.147,16.662 36.755,17.116C36.558,17.343 36.405,17.503 36.307,17.601C36.258,17.65 36.222,17.684 36.202,17.703C36.192,17.712 36.186,17.718 36.183,17.72C36.182,17.721 36.182,17.721 36.183,17.72C36.183,17.72 36.184,17.719 36.185,17.719C36.185,17.718 36.186,17.718 36.186,17.717C36.187,17.717 36.187,17.716 36.187,17.716C36.188,17.716 36.188,17.715 37.089,18.751Z" fill="#FFFFFF"/>
</svg>
