<svg width="16" height="16" viewBox="0 0 16 16" fill="none" xmlns="http://www.w3.org/2000/svg" xmlns:xlink="http://www.w3.org/1999/xlink">
<path d="M14.385,7.385L7.616,7.385L7.616,0.615C7.616,0.452 7.551,0.296 7.436,0.18C7.32,0.065 7.164,0 7,0C6.837,0 6.681,0.065 6.565,0.18C6.45,0.296 6.385,0.452 6.385,0.615L6.385,7.385L-0.384,7.385C-0.547,7.385 -0.704,7.449 -0.819,7.565C-0.935,7.68 -1,7.837 -1,8C-1.003,8.08 -0.988,8.16 -0.958,8.234C-0.928,8.308 -0.882,8.374 -0.824,8.429C-0.765,8.484 -0.696,8.526 -0.62,8.552C-0.544,8.577 -0.464,8.586 -0.384,8.578L6.385,8.578L6.385,15.385C6.385,15.548 6.45,15.704 6.565,15.82C6.681,15.935 6.837,16 7,16C7.164,16 7.32,15.935 7.436,15.82C7.551,15.704 7.616,15.548 7.616,15.385L7.616,8.615L14.385,8.615C14.548,8.615 14.705,8.551 14.82,8.435C14.936,8.32 15,8.163 15,8C15,7.837 14.936,7.68 14.82,7.565C14.705,7.449 14.548,7.385 14.385,7.385Z" fill="#FFFFFF" stroke="#FFFFFF" stroke-width="0.5" stroke-miterlimit="3.999327"/>
</svg>
