<svg width="22" height="20" viewBox="0 0 22 20" fill="none" xmlns="http://www.w3.org/2000/svg" xmlns:xlink="http://www.w3.org/1999/xlink">
<path d="M2.076,3.439L3.576,3.448L3.576,3.448L2.076,3.439ZM4.41,2.156L3.794,3.523L3.794,3.523L4.41,2.156ZM4.319,17.851L4.922,19.225L4.319,17.851ZM2,16.546L0.5,16.537L2,16.546ZM19.097,11.366L18.494,9.992L18.494,9.992L19.097,11.366ZM19.112,8.778L19.728,7.41L19.112,8.778ZM2.038,9.993L0.538,9.984L0.538,9.984L2.038,9.993ZM18.494,9.992L3.717,16.478L4.922,19.225L19.7,12.74L18.494,9.992ZM3.794,3.523L18.496,10.145L19.728,7.41L5.026,0.788L3.794,3.523ZM3.576,3.448C3.576,3.482 3.563,3.517 3.55,3.538C3.54,3.553 3.54,3.544 3.567,3.529C3.628,3.496 3.715,3.488 3.794,3.523L5.026,0.788C4.037,0.342 2.96,0.44 2.122,0.9C1.282,1.362 0.583,2.259 0.576,3.43L3.576,3.448ZM3.717,16.478C3.636,16.513 3.55,16.503 3.49,16.47C3.464,16.455 3.464,16.447 3.474,16.463C3.488,16.485 3.5,16.52 3.5,16.555L0.5,16.537C0.493,17.709 1.183,18.614 2.019,19.084C2.853,19.553 3.929,19.66 4.922,19.225L3.717,16.478ZM19.7,12.74C20.824,12.246 21.493,11.209 21.5,10.085C21.506,8.96 20.849,7.915 19.728,7.41L18.496,10.145C18.522,10.157 18.533,10.166 18.534,10.167C18.535,10.168 18.531,10.164 18.524,10.154C18.51,10.133 18.5,10.102 18.5,10.067C18.5,10.033 18.511,10.003 18.525,9.982C18.531,9.973 18.535,9.969 18.534,9.97C18.532,9.972 18.521,9.981 18.494,9.992L19.7,12.74ZM3.5,16.555L3.538,10.001L0.538,9.984L0.5,16.537L3.5,16.555ZM3.538,10.001L3.576,3.448L0.576,3.43L0.538,9.984L3.538,10.001Z" fill="#FFFFFF"/>
</svg>
