<svg width="32" height="26" viewBox="0 0 32 26" fill="none" xmlns="http://www.w3.org/2000/svg" xmlns:xlink="http://www.w3.org/1999/xlink">
<path d="M15.701,5.455C20.345,5.455 24.812,7.429 28.178,10.968C28.432,11.242 28.837,11.238 29.087,10.961L31.509,8.256C31.636,8.115 31.706,7.925 31.705,7.726C31.704,7.528 31.632,7.338 31.504,7.199C22.669,-2.165 8.731,-2.165 -0.104,7.199C-0.232,7.338 -0.304,7.528 -0.306,7.726C-0.307,7.924 -0.236,8.115 -0.11,8.256L2.314,10.961C2.563,11.239 2.968,11.242 3.222,10.968C6.588,7.429 11.056,5.455 15.701,5.455ZM15.701,14.254C18.253,14.254 20.713,15.303 22.605,17.197C22.861,17.466 23.264,17.46 23.513,17.184L25.933,14.48C26.061,14.338 26.132,14.145 26.13,13.945C26.128,13.745 26.054,13.555 25.924,13.416C20.163,7.489 11.243,7.489 5.483,13.416C5.353,13.555 5.278,13.745 5.277,13.945C5.275,14.146 5.346,14.338 5.474,14.48L7.893,17.184C8.142,17.46 8.546,17.466 8.801,17.197C10.692,15.304 13.151,14.255 15.701,14.254ZM20.549,20.174C20.552,20.375 20.481,20.568 20.352,20.708L16.165,25.381C16.043,25.519 15.875,25.596 15.701,25.596C15.526,25.596 15.359,25.519 15.236,25.381L11.049,20.708C10.92,20.568 10.848,20.374 10.852,20.174C10.856,19.973 10.935,19.784 11.069,19.649C13.743,17.148 17.659,17.148 20.332,19.649C20.467,19.784 20.545,19.974 20.549,20.174Z" clip-rule="evenodd" fill-rule="evenodd" fill="#000000"/>
</svg>
